M48
; DRILL file {KiCad 8.0.6} date 2024-12-05T21:44:19-0500
; FORMAT={-:-/ absolute / metric / decimal}
; #@! TF.CreationDate,2024-12-05T21:44:19-05:00
; #@! TF.GenerationSoftware,Kicad,Pcbnew,8.0.6
; #@! TF.FileFunction,NonPlated,1,4,NPTH
FMAT,2
METRIC
; #@! TA.AperFunction,NonPlated,NPTH,ComponentDrill
T1C0.650
; #@! TA.AperFunction,NonPlated,NPTH,ComponentDrill
T2C1.750
; #@! TA.AperFunction,NonPlated,NPTH,ComponentDrill
T3C2.200
; #@! TA.AperFunction,NonPlated,NPTH,ComponentDrill
T4C3.050
; #@! TA.AperFunction,NonPlated,NPTH,ComponentDrill
T5C4.000
%
G90
G05
T1
X52.61Y-40.605
X58.39Y-40.605
T2
X44.609Y-80.962
X44.609Y-100.012
X44.609Y-119.062
X44.609Y-138.112
X44.609Y-157.162
X54.134Y-176.213
X54.769Y-80.962
X54.769Y-100.012
X54.769Y-119.062
X54.769Y-138.112
X54.769Y-157.162
X63.659Y-100.012
X63.659Y-119.062
X63.659Y-138.112
X63.659Y-157.162
X63.689Y-80.962
X64.294Y-176.213
X73.819Y-100.012
X73.819Y-119.062
X73.819Y-138.112
X73.819Y-157.162
X73.849Y-80.962
X82.709Y-100.012
X82.709Y-119.062
X82.709Y-138.112
X82.709Y-157.162
X82.709Y-176.213
X82.739Y-80.962
X92.869Y-100.012
X92.869Y-119.062
X92.869Y-138.112
X92.869Y-157.162
X92.869Y-176.213
X92.899Y-80.962
X101.759Y-100.012
X101.759Y-119.062
X101.759Y-138.112
X101.759Y-166.688
X111.919Y-100.012
X111.919Y-119.062
X111.919Y-138.112
X111.919Y-166.688
T3
X37.0Y-48.0
X37.0Y-186.5
X119.6Y-47.95
X119.6Y-186.45
T4
X45.879Y-78.422
X45.879Y-97.472
X45.879Y-116.522
X45.879Y-135.572
X45.879Y-154.623
X52.229Y-75.882
X52.229Y-94.932
X52.229Y-113.983
X52.229Y-133.032
X52.229Y-152.082
X55.404Y-173.672
X61.754Y-171.132
X64.929Y-97.472
X64.929Y-116.522
X64.929Y-135.572
X64.929Y-154.623
X64.959Y-78.422
X71.279Y-94.932
X71.279Y-113.983
X71.279Y-133.032
X71.279Y-152.082
X71.309Y-75.882
X83.979Y-97.472
X83.979Y-116.522
X83.979Y-135.572
X83.979Y-154.623
X83.979Y-173.672
X84.009Y-78.422
X90.329Y-94.932
X90.329Y-113.983
X90.329Y-133.032
X90.329Y-152.082
X90.329Y-171.132
X90.359Y-75.882
X103.029Y-97.472
X103.029Y-116.522
X103.029Y-135.572
X103.029Y-164.147
X109.379Y-94.932
X109.379Y-113.983
X109.379Y-133.032
X109.379Y-161.607
T5
X49.689Y-80.962
X49.689Y-100.012
X49.689Y-119.062
X49.689Y-138.112
X49.689Y-157.162
X59.214Y-176.213
X68.739Y-100.012
X68.739Y-119.062
X68.739Y-138.112
X68.739Y-157.162
X68.769Y-80.962
X87.789Y-100.012
X87.789Y-119.062
X87.789Y-138.112
X87.789Y-157.162
X87.789Y-176.213
X87.819Y-80.962
X106.839Y-100.012
X106.839Y-119.062
X106.839Y-138.112
X106.839Y-166.688
M30
