%TF.GenerationSoftware,KiCad,Pcbnew,8.0.6*%
%TF.CreationDate,2024-12-05T21:44:36-05:00*%
%TF.ProjectId,kiCAD Keypad,6b694341-4420-44b6-9579-7061642e6b69,rev?*%
%TF.SameCoordinates,Original*%
%TF.FileFunction,Soldermask,Top*%
%TF.FilePolarity,Negative*%
%FSLAX46Y46*%
G04 Gerber Fmt 4.6, Leading zero omitted, Abs format (unit mm)*
G04 Created by KiCad (PCBNEW 8.0.6) date 2024-12-05 21:44:36*
%MOMM*%
%LPD*%
G01*
G04 APERTURE LIST*
G04 Aperture macros list*
%AMRoundRect*
0 Rectangle with rounded corners*
0 $1 Rounding radius*
0 $2 $3 $4 $5 $6 $7 $8 $9 X,Y pos of 4 corners*
0 Add a 4 corners polygon primitive as box body*
4,1,4,$2,$3,$4,$5,$6,$7,$8,$9,$2,$3,0*
0 Add four circle primitives for the rounded corners*
1,1,$1+$1,$2,$3*
1,1,$1+$1,$4,$5*
1,1,$1+$1,$6,$7*
1,1,$1+$1,$8,$9*
0 Add four rect primitives between the rounded corners*
20,1,$1+$1,$2,$3,$4,$5,0*
20,1,$1+$1,$4,$5,$6,$7,0*
20,1,$1+$1,$6,$7,$8,$9,0*
20,1,$1+$1,$8,$9,$2,$3,0*%
G04 Aperture macros list end*
%ADD10RoundRect,0.102000X0.825000X0.825000X-0.825000X0.825000X-0.825000X-0.825000X0.825000X-0.825000X0*%
%ADD11C,1.854000*%
%ADD12O,3.204000X6.204000*%
%ADD13RoundRect,0.250000X-0.250000X0.525000X-0.250000X-0.525000X0.250000X-0.525000X0.250000X0.525000X0*%
%ADD14R,3.000000X1.000000*%
%ADD15C,1.750000*%
%ADD16C,3.050000*%
%ADD17C,4.000000*%
%ADD18RoundRect,0.150000X-0.150000X0.512500X-0.150000X-0.512500X0.150000X-0.512500X0.150000X0.512500X0*%
%ADD19RoundRect,0.135000X0.185000X-0.135000X0.185000X0.135000X-0.185000X0.135000X-0.185000X-0.135000X0*%
%ADD20R,1.500000X0.900000*%
%ADD21R,0.900000X1.500000*%
%ADD22R,1.000000X1.000000*%
%ADD23C,0.600000*%
%ADD24C,2.000000*%
%ADD25RoundRect,0.250000X-0.250000X-0.475000X0.250000X-0.475000X0.250000X0.475000X-0.250000X0.475000X0*%
%ADD26RoundRect,0.135000X-0.135000X-0.185000X0.135000X-0.185000X0.135000X0.185000X-0.135000X0.185000X0*%
%ADD27RoundRect,0.250000X-0.475000X0.250000X-0.475000X-0.250000X0.475000X-0.250000X0.475000X0.250000X0*%
%ADD28C,2.200000*%
%ADD29RoundRect,0.135000X-0.185000X0.135000X-0.185000X-0.135000X0.185000X-0.135000X0.185000X0.135000X0*%
%ADD30RoundRect,0.250000X0.250000X0.475000X-0.250000X0.475000X-0.250000X-0.475000X0.250000X-0.475000X0*%
%ADD31RoundRect,0.147500X-0.147500X-0.172500X0.147500X-0.172500X0.147500X0.172500X-0.147500X0.172500X0*%
%ADD32RoundRect,0.150000X-0.512500X-0.150000X0.512500X-0.150000X0.512500X0.150000X-0.512500X0.150000X0*%
%ADD33RoundRect,0.250000X0.475000X-0.250000X0.475000X0.250000X-0.475000X0.250000X-0.475000X-0.250000X0*%
%ADD34RoundRect,0.140000X0.170000X-0.140000X0.170000X0.140000X-0.170000X0.140000X-0.170000X-0.140000X0*%
%ADD35C,0.650000*%
%ADD36RoundRect,0.150000X0.150000X0.425000X-0.150000X0.425000X-0.150000X-0.425000X0.150000X-0.425000X0*%
%ADD37RoundRect,0.075000X0.075000X0.500000X-0.075000X0.500000X-0.075000X-0.500000X0.075000X-0.500000X0*%
%ADD38O,1.000000X2.100000*%
%ADD39O,1.000000X1.800000*%
%ADD40RoundRect,0.135000X0.135000X0.185000X-0.135000X0.185000X-0.135000X-0.185000X0.135000X-0.185000X0*%
%ADD41R,1.600000X1.600000*%
%ADD42O,1.600000X1.600000*%
G04 APERTURE END LIST*
D10*
%TO.C,SW3*%
X109338750Y-87962500D03*
D11*
X104338750Y-87962500D03*
X109338750Y-73462500D03*
X104338750Y-73462500D03*
X106838750Y-73462500D03*
D12*
X112538750Y-80962500D03*
X101138750Y-80962500D03*
%TD*%
D13*
%TO.C,SW2*%
X109600000Y-60375000D03*
X109600000Y-65625000D03*
X106400000Y-60375000D03*
X106400000Y-65625000D03*
%TD*%
D14*
%TO.C,J3*%
X49120000Y-49110000D03*
X44080000Y-49110000D03*
X49120000Y-51650000D03*
X44080000Y-51650000D03*
X49120000Y-54190000D03*
X44080000Y-54190000D03*
X49120000Y-56730000D03*
X44080000Y-56730000D03*
X49120000Y-59270000D03*
X44080000Y-59270000D03*
X49120000Y-61810000D03*
X44080000Y-61810000D03*
X49120000Y-64350000D03*
X44080000Y-64350000D03*
X49120000Y-66890000D03*
X44080000Y-66890000D03*
%TD*%
D15*
%TO.C,S8*%
X44608750Y-119062500D03*
D16*
X45878750Y-116522500D03*
D17*
X49688750Y-119062500D03*
D16*
X52228750Y-113982500D03*
D15*
X54768750Y-119062500D03*
%TD*%
D13*
%TO.C,SW1*%
X69600000Y-51875000D03*
X69600000Y-57125000D03*
X66400000Y-51875000D03*
X66400000Y-57125000D03*
%TD*%
D18*
%TO.C,U2*%
X56450000Y-48225000D03*
X55500000Y-48225000D03*
X54550000Y-48225000D03*
X54550000Y-50500000D03*
X55500000Y-50500000D03*
X56450000Y-50500000D03*
%TD*%
D15*
%TO.C,S1*%
X44608750Y-80962500D03*
D16*
X45878750Y-78422500D03*
D17*
X49688750Y-80962500D03*
D16*
X52228750Y-75882500D03*
D15*
X54768750Y-80962500D03*
%TD*%
D19*
%TO.C,R3*%
X49200000Y-38710000D03*
X49200000Y-37690000D03*
%TD*%
D15*
%TO.C,S21*%
X82708750Y-176212500D03*
D16*
X83978750Y-173672500D03*
D17*
X87788750Y-176212500D03*
D16*
X90328750Y-171132500D03*
D15*
X92868750Y-176212500D03*
%TD*%
D20*
%TO.C,U1*%
X83110000Y-47150000D03*
X83110000Y-48420000D03*
X83110000Y-49690000D03*
X83110000Y-50960000D03*
X83110000Y-52230000D03*
X83110000Y-53500000D03*
X83110000Y-54770000D03*
X83110000Y-56040000D03*
X83110000Y-57310000D03*
X83110000Y-58580000D03*
X83110000Y-59850000D03*
X83110000Y-61120000D03*
X83110000Y-62390000D03*
X83110000Y-63660000D03*
D21*
X84875000Y-64910000D03*
X86145000Y-64910000D03*
X87415000Y-64910000D03*
X88685000Y-64910000D03*
X89955000Y-64910000D03*
X91225000Y-64910000D03*
X92495000Y-64910000D03*
X93765000Y-64910000D03*
X95035000Y-64910000D03*
X96305000Y-64910000D03*
X97575000Y-64910000D03*
X98845000Y-64910000D03*
D20*
X100610000Y-63660000D03*
X100610000Y-62390000D03*
X100610000Y-61120000D03*
X100610000Y-59850000D03*
X100610000Y-58580000D03*
X100610000Y-57310000D03*
X100610000Y-56040000D03*
X100610000Y-54770000D03*
X100610000Y-53500000D03*
X100610000Y-52230000D03*
X100610000Y-50960000D03*
X100610000Y-49690000D03*
X100610000Y-48420000D03*
X100610000Y-47150000D03*
D22*
X89000000Y-51000000D03*
D23*
X89000000Y-51750000D03*
D22*
X89000000Y-52500000D03*
D23*
X89000000Y-53250000D03*
D22*
X89000000Y-54000000D03*
D23*
X89750000Y-51000000D03*
X89750000Y-52500000D03*
X89750000Y-54000000D03*
D22*
X90500000Y-51000000D03*
D23*
X90500000Y-51750000D03*
D22*
X90500000Y-52500000D03*
D23*
X90500000Y-53250000D03*
D22*
X90500000Y-54000000D03*
D23*
X91250000Y-51000000D03*
X91250000Y-52500000D03*
X91250000Y-54000000D03*
D22*
X92000000Y-51000000D03*
D23*
X92000000Y-51750000D03*
D22*
X92000000Y-52500000D03*
D23*
X92000000Y-53250000D03*
D22*
X92000000Y-54000000D03*
%TD*%
D24*
%TO.C,FM1*%
X119800000Y-42200000D03*
%TD*%
D25*
%TO.C,C3*%
X71800000Y-57250000D03*
X73700000Y-57250000D03*
%TD*%
D19*
%TO.C,R4*%
X61800000Y-38710000D03*
X61800000Y-37690000D03*
%TD*%
D24*
%TO.C,FM3*%
X121900000Y-181600000D03*
%TD*%
D15*
%TO.C,S3*%
X82738750Y-80962500D03*
D16*
X84008750Y-78422500D03*
D17*
X87818750Y-80962500D03*
D16*
X90358750Y-75882500D03*
D15*
X92898750Y-80962500D03*
%TD*%
D26*
%TO.C,R6*%
X108000000Y-71437500D03*
X109020000Y-71437500D03*
%TD*%
D27*
%TO.C,C6*%
X68750000Y-47300000D03*
X68750000Y-49200000D03*
%TD*%
D28*
%TO.C,H1*%
X119600000Y-47950000D03*
%TD*%
D29*
%TO.C,R2*%
X103200000Y-61380000D03*
X103200000Y-62400000D03*
%TD*%
D28*
%TO.C,H2*%
X37000000Y-48000000D03*
%TD*%
D30*
%TO.C,C5*%
X60950000Y-48250000D03*
X59050000Y-48250000D03*
%TD*%
D15*
%TO.C,S12*%
X44608750Y-138112500D03*
D16*
X45878750Y-135572500D03*
D17*
X49688750Y-138112500D03*
D16*
X52228750Y-133032500D03*
D15*
X54768750Y-138112500D03*
%TD*%
D28*
%TO.C,H4*%
X37000000Y-186500000D03*
%TD*%
D15*
%TO.C,S14*%
X82708750Y-138112500D03*
D16*
X83978750Y-135572500D03*
D17*
X87788750Y-138112500D03*
D16*
X90328750Y-133032500D03*
D15*
X92868750Y-138112500D03*
%TD*%
D31*
%TO.C,D22*%
X94015000Y-68000000D03*
X94985000Y-68000000D03*
%TD*%
D15*
%TO.C,S6*%
X82708750Y-100012500D03*
D16*
X83978750Y-97472500D03*
D17*
X87788750Y-100012500D03*
D16*
X90328750Y-94932500D03*
D15*
X92868750Y-100012500D03*
%TD*%
%TO.C,S7*%
X101758750Y-100012500D03*
D16*
X103028750Y-97472500D03*
D17*
X106838750Y-100012500D03*
D16*
X109378750Y-94932500D03*
D15*
X111918750Y-100012500D03*
%TD*%
D32*
%TO.C,U3*%
X63862500Y-47450000D03*
X63862500Y-48400000D03*
X63862500Y-49350000D03*
X66137500Y-49350000D03*
X66137500Y-47450000D03*
%TD*%
D26*
%TO.C,R5*%
X105490000Y-71437500D03*
X106510000Y-71437500D03*
%TD*%
D15*
%TO.C,S13*%
X63658750Y-138112500D03*
D16*
X64928750Y-135572500D03*
D17*
X68738750Y-138112500D03*
D16*
X71278750Y-133032500D03*
D15*
X73818750Y-138112500D03*
%TD*%
D33*
%TO.C,C2*%
X77250000Y-48950000D03*
X77250000Y-47050000D03*
%TD*%
D15*
%TO.C,S11*%
X101758750Y-119062500D03*
D16*
X103028750Y-116522500D03*
D17*
X106838750Y-119062500D03*
D16*
X109378750Y-113982500D03*
D15*
X111918750Y-119062500D03*
%TD*%
%TO.C,S2*%
X63688750Y-80962500D03*
D16*
X64958750Y-78422500D03*
D17*
X68768750Y-80962500D03*
D16*
X71308750Y-75882500D03*
D15*
X73848750Y-80962500D03*
%TD*%
%TO.C,S4*%
X44608750Y-100012500D03*
D16*
X45878750Y-97472500D03*
D17*
X49688750Y-100012500D03*
D16*
X52228750Y-94932500D03*
D15*
X54768750Y-100012500D03*
%TD*%
%TO.C,S5*%
X63658750Y-100012500D03*
D16*
X64928750Y-97472500D03*
D17*
X68738750Y-100012500D03*
D16*
X71278750Y-94932500D03*
D15*
X73818750Y-100012500D03*
%TD*%
D34*
%TO.C,C1*%
X81250000Y-48460000D03*
X81250000Y-47500000D03*
%TD*%
D15*
%TO.C,S18*%
X82708750Y-157162500D03*
D16*
X83978750Y-154622500D03*
D17*
X87788750Y-157162500D03*
D16*
X90328750Y-152082500D03*
D15*
X92868750Y-157162500D03*
%TD*%
%TO.C,S20*%
X54133750Y-176212500D03*
D16*
X55403750Y-173672500D03*
D17*
X59213750Y-176212500D03*
D16*
X61753750Y-171132500D03*
D15*
X64293750Y-176212500D03*
%TD*%
%TO.C,S15*%
X101758750Y-138112500D03*
D16*
X103028750Y-135572500D03*
D17*
X106838750Y-138112500D03*
D16*
X109378750Y-133032500D03*
D15*
X111918750Y-138112500D03*
%TD*%
%TO.C,S17*%
X63658750Y-157162500D03*
D16*
X64928750Y-154622500D03*
D17*
X68738750Y-157162500D03*
D16*
X71278750Y-152082500D03*
D15*
X73818750Y-157162500D03*
%TD*%
%TO.C,S9*%
X63658750Y-119062500D03*
D16*
X64928750Y-116522500D03*
D17*
X68738750Y-119062500D03*
D16*
X71278750Y-113982500D03*
D15*
X73818750Y-119062500D03*
%TD*%
%TO.C,S10*%
X82708750Y-119062500D03*
D16*
X83978750Y-116522500D03*
D17*
X87788750Y-119062500D03*
D16*
X90328750Y-113982500D03*
D15*
X92868750Y-119062500D03*
%TD*%
D35*
%TO.C,J1*%
X58390000Y-40605000D03*
X52610000Y-40605000D03*
D36*
X58700000Y-41680000D03*
X57900000Y-41680000D03*
D37*
X56750000Y-41680000D03*
X55750000Y-41680000D03*
X55250000Y-41680000D03*
X54250000Y-41680000D03*
D36*
X53100000Y-41680000D03*
X52300000Y-41680000D03*
X52300000Y-41680000D03*
X53100000Y-41680000D03*
D37*
X53750000Y-41680000D03*
X54750000Y-41680000D03*
X56250000Y-41680000D03*
X57250000Y-41680000D03*
D36*
X57900000Y-41680000D03*
X58700000Y-41680000D03*
D38*
X59820000Y-41105000D03*
D39*
X59820000Y-36925000D03*
D38*
X51180000Y-41105000D03*
D39*
X51180000Y-36925000D03*
%TD*%
D15*
%TO.C,S16*%
X44608750Y-157162500D03*
D16*
X45878750Y-154622500D03*
D17*
X49688750Y-157162500D03*
D16*
X52228750Y-152082500D03*
D15*
X54768750Y-157162500D03*
%TD*%
D29*
%TO.C,R1*%
X72000000Y-50890000D03*
X72000000Y-51910000D03*
%TD*%
D15*
%TO.C,S19*%
X101758750Y-166687500D03*
D16*
X103028750Y-164147500D03*
D17*
X106838750Y-166687500D03*
D16*
X109378750Y-161607500D03*
D15*
X111918750Y-166687500D03*
%TD*%
D24*
%TO.C,FM2*%
X39000000Y-52500000D03*
%TD*%
D40*
%TO.C,R7*%
X92260000Y-68000000D03*
X91240000Y-68000000D03*
%TD*%
D28*
%TO.C,H3*%
X119600000Y-186450000D03*
%TD*%
D34*
%TO.C,C4*%
X103200000Y-64480000D03*
X103200000Y-63520000D03*
%TD*%
D41*
%TO.C,D16*%
X59213750Y-160972500D03*
D42*
X59213750Y-153352500D03*
%TD*%
D41*
%TO.C,D5*%
X78263750Y-103822500D03*
D42*
X78263750Y-96202500D03*
%TD*%
D41*
%TO.C,D14*%
X97313750Y-141922500D03*
D42*
X97313750Y-134302500D03*
%TD*%
D41*
%TO.C,D9*%
X78263750Y-122872500D03*
D42*
X78263750Y-115252500D03*
%TD*%
D41*
%TO.C,D4*%
X59213750Y-103822500D03*
D42*
X59213750Y-96202500D03*
%TD*%
D41*
%TO.C,D1*%
X59213750Y-84772500D03*
D42*
X59213750Y-77152500D03*
%TD*%
D41*
%TO.C,D17*%
X78263750Y-160972500D03*
D42*
X78263750Y-153352500D03*
%TD*%
D41*
%TO.C,D19*%
X116363750Y-160972500D03*
D42*
X116363750Y-153352500D03*
%TD*%
D41*
%TO.C,D6*%
X97313750Y-103822500D03*
D42*
X97313750Y-96202500D03*
%TD*%
D41*
%TO.C,D10*%
X97313750Y-122872500D03*
D42*
X97313750Y-115252500D03*
%TD*%
D41*
%TO.C,D20*%
X78263750Y-180022500D03*
D42*
X78263750Y-172402500D03*
%TD*%
D41*
%TO.C,D21*%
X97313750Y-180022500D03*
D42*
X97313750Y-172402500D03*
%TD*%
D41*
%TO.C,D2*%
X78263750Y-84772500D03*
D42*
X78263750Y-77152500D03*
%TD*%
D41*
%TO.C,D3*%
X97313750Y-84772500D03*
D42*
X97313750Y-77152500D03*
%TD*%
D41*
%TO.C,D8*%
X59213750Y-122872500D03*
D42*
X59213750Y-115252500D03*
%TD*%
D41*
%TO.C,D15*%
X116363750Y-141922500D03*
D42*
X116363750Y-134302500D03*
%TD*%
D41*
%TO.C,D12*%
X59213750Y-141922500D03*
D42*
X59213750Y-134302500D03*
%TD*%
D41*
%TO.C,D11*%
X116363750Y-122872500D03*
D42*
X116363750Y-115252500D03*
%TD*%
D41*
%TO.C,D7*%
X116363750Y-103822500D03*
D42*
X116363750Y-96202500D03*
%TD*%
D41*
%TO.C,D18*%
X97313750Y-160972500D03*
D42*
X97313750Y-153352500D03*
%TD*%
D41*
%TO.C,D13*%
X78263750Y-141922500D03*
D42*
X78263750Y-134302500D03*
%TD*%
M02*
