%TF.GenerationSoftware,KiCad,Pcbnew,8.0.6*%
%TF.CreationDate,2024-12-09T21:02:00-05:00*%
%TF.ProjectId,kiCAD Keypad,6b694341-4420-44b6-9579-7061642e6b69,rev?*%
%TF.SameCoordinates,Original*%
%TF.FileFunction,Soldermask,Top*%
%TF.FilePolarity,Negative*%
%FSLAX46Y46*%
G04 Gerber Fmt 4.6, Leading zero omitted, Abs format (unit mm)*
G04 Created by KiCad (PCBNEW 8.0.6) date 2024-12-09 21:02:00*
%MOMM*%
%LPD*%
G01*
G04 APERTURE LIST*
G04 Aperture macros list*
%AMRoundRect*
0 Rectangle with rounded corners*
0 $1 Rounding radius*
0 $2 $3 $4 $5 $6 $7 $8 $9 X,Y pos of 4 corners*
0 Add a 4 corners polygon primitive as box body*
4,1,4,$2,$3,$4,$5,$6,$7,$8,$9,$2,$3,0*
0 Add four circle primitives for the rounded corners*
1,1,$1+$1,$2,$3*
1,1,$1+$1,$4,$5*
1,1,$1+$1,$6,$7*
1,1,$1+$1,$8,$9*
0 Add four rect primitives between the rounded corners*
20,1,$1+$1,$2,$3,$4,$5,0*
20,1,$1+$1,$4,$5,$6,$7,0*
20,1,$1+$1,$6,$7,$8,$9,0*
20,1,$1+$1,$8,$9,$2,$3,0*%
%AMOutline5P*
0 Free polygon, 5 corners , with rotation*
0 The origin of the aperture is its center*
0 number of corners: always 5*
0 $1 to $10 corner X, Y*
0 $11 Rotation angle, in degrees counterclockwise*
0 create outline with 5 corners*
4,1,5,$1,$2,$3,$4,$5,$6,$7,$8,$9,$10,$1,$2,$11*%
%AMOutline6P*
0 Free polygon, 6 corners , with rotation*
0 The origin of the aperture is its center*
0 number of corners: always 6*
0 $1 to $12 corner X, Y*
0 $13 Rotation angle, in degrees counterclockwise*
0 create outline with 6 corners*
4,1,6,$1,$2,$3,$4,$5,$6,$7,$8,$9,$10,$11,$12,$1,$2,$13*%
%AMOutline7P*
0 Free polygon, 7 corners , with rotation*
0 The origin of the aperture is its center*
0 number of corners: always 7*
0 $1 to $14 corner X, Y*
0 $15 Rotation angle, in degrees counterclockwise*
0 create outline with 7 corners*
4,1,7,$1,$2,$3,$4,$5,$6,$7,$8,$9,$10,$11,$12,$13,$14,$1,$2,$15*%
%AMOutline8P*
0 Free polygon, 8 corners , with rotation*
0 The origin of the aperture is its center*
0 number of corners: always 8*
0 $1 to $16 corner X, Y*
0 $17 Rotation angle, in degrees counterclockwise*
0 create outline with 8 corners*
4,1,8,$1,$2,$3,$4,$5,$6,$7,$8,$9,$10,$11,$12,$13,$14,$15,$16,$1,$2,$17*%
G04 Aperture macros list end*
%ADD10RoundRect,0.140000X-0.170000X0.140000X-0.170000X-0.140000X0.170000X-0.140000X0.170000X0.140000X0*%
%ADD11RoundRect,0.250000X0.250000X-0.525000X0.250000X0.525000X-0.250000X0.525000X-0.250000X-0.525000X0*%
%ADD12RoundRect,0.135000X-0.185000X0.135000X-0.185000X-0.135000X0.185000X-0.135000X0.185000X0.135000X0*%
%ADD13R,0.800000X0.400000*%
%ADD14R,0.400000X0.800000*%
%ADD15Outline5P,-0.600000X0.204000X-0.204000X0.600000X0.600000X0.600000X0.600000X-0.600000X-0.600000X-0.600000X0.000000*%
%ADD16R,1.200000X1.200000*%
%ADD17R,0.800000X0.800000*%
%ADD18O,1.700000X1.700000*%
%ADD19R,1.700000X1.700000*%
%ADD20RoundRect,0.150000X-0.512500X-0.150000X0.512500X-0.150000X0.512500X0.150000X-0.512500X0.150000X0*%
%ADD21RoundRect,0.102000X0.825000X0.825000X-0.825000X0.825000X-0.825000X-0.825000X0.825000X-0.825000X0*%
%ADD22C,1.854000*%
%ADD23O,3.204000X6.204000*%
%ADD24R,3.000000X1.000000*%
%ADD25C,1.750000*%
%ADD26C,3.050000*%
%ADD27C,4.000000*%
%ADD28RoundRect,0.135000X0.185000X-0.135000X0.185000X0.135000X-0.185000X0.135000X-0.185000X-0.135000X0*%
%ADD29C,2.000000*%
%ADD30RoundRect,0.135000X-0.135000X-0.185000X0.135000X-0.185000X0.135000X0.185000X-0.135000X0.185000X0*%
%ADD31RoundRect,0.250000X-0.475000X0.250000X-0.475000X-0.250000X0.475000X-0.250000X0.475000X0.250000X0*%
%ADD32C,2.200000*%
%ADD33RoundRect,0.250000X0.250000X0.475000X-0.250000X0.475000X-0.250000X-0.475000X0.250000X-0.475000X0*%
%ADD34RoundRect,0.147500X-0.147500X-0.172500X0.147500X-0.172500X0.147500X0.172500X-0.147500X0.172500X0*%
%ADD35RoundRect,0.250000X0.475000X-0.250000X0.475000X0.250000X-0.475000X0.250000X-0.475000X-0.250000X0*%
%ADD36RoundRect,0.140000X0.170000X-0.140000X0.170000X0.140000X-0.170000X0.140000X-0.170000X-0.140000X0*%
%ADD37C,0.650000*%
%ADD38RoundRect,0.150000X0.150000X0.350000X-0.150000X0.350000X-0.150000X-0.350000X0.150000X-0.350000X0*%
%ADD39RoundRect,0.150000X0.150000X0.425000X-0.150000X0.425000X-0.150000X-0.425000X0.150000X-0.425000X0*%
%ADD40RoundRect,0.075000X0.075000X0.500000X-0.075000X0.500000X-0.075000X-0.500000X0.075000X-0.500000X0*%
%ADD41O,1.000000X2.100000*%
%ADD42O,1.000000X1.800000*%
%ADD43RoundRect,0.135000X0.135000X0.185000X-0.135000X0.185000X-0.135000X-0.185000X0.135000X-0.185000X0*%
%ADD44R,1.600000X1.600000*%
%ADD45O,1.600000X1.600000*%
%ADD46RoundRect,0.150000X-0.150000X0.512500X-0.150000X-0.512500X0.150000X-0.512500X0.150000X0.512500X0*%
G04 APERTURE END LIST*
D10*
%TO.C,C3*%
X110000000Y-46980000D03*
X110000000Y-46020000D03*
%TD*%
D11*
%TO.C,SW1*%
X115800000Y-46075000D03*
X115800000Y-51325000D03*
X112600000Y-46075000D03*
X112600000Y-51325000D03*
%TD*%
D12*
%TO.C,R1*%
X110200000Y-50410000D03*
X110200000Y-49390000D03*
%TD*%
D13*
%TO.C,U3*%
X84450000Y-46700000D03*
X84450000Y-47550000D03*
X84450000Y-48400000D03*
X84450000Y-49250000D03*
X84450000Y-50100000D03*
X84450000Y-50950000D03*
X84450000Y-51800000D03*
X84450000Y-52650000D03*
X84450000Y-53500000D03*
X84450000Y-54350000D03*
X84450000Y-55200000D03*
X84450000Y-56050000D03*
X84450000Y-56900000D03*
X84450000Y-57750000D03*
X84450000Y-58600000D03*
D14*
X85500000Y-59650000D03*
X86350000Y-59650000D03*
X87200000Y-59650000D03*
X88050000Y-59650000D03*
X88900000Y-59650000D03*
X89750000Y-59650000D03*
X90600000Y-59650000D03*
X91450000Y-59650000D03*
X92300000Y-59650000D03*
X93150000Y-59650000D03*
X94000000Y-59650000D03*
X94850000Y-59650000D03*
X95700000Y-59650000D03*
X96550000Y-59650000D03*
X97400000Y-59650000D03*
D13*
X98450000Y-58600000D03*
X98450000Y-57750000D03*
X98450000Y-56900000D03*
X98450000Y-56050000D03*
X98450000Y-55200000D03*
X98450000Y-54350000D03*
X98450000Y-53500000D03*
X98450000Y-52650000D03*
X98450000Y-51800000D03*
X98450000Y-50950000D03*
X98450000Y-50100000D03*
X98450000Y-49250000D03*
X98450000Y-48400000D03*
X98450000Y-47550000D03*
X98450000Y-46700000D03*
D14*
X97400000Y-45650000D03*
X96550000Y-45650000D03*
X95700000Y-45650000D03*
X94850000Y-45650000D03*
X94000000Y-45650000D03*
X93150000Y-45650000D03*
X92300000Y-45650000D03*
X91450000Y-45650000D03*
X90600000Y-45650000D03*
X89750000Y-45650000D03*
X88900000Y-45650000D03*
X88050000Y-45650000D03*
X87200000Y-45650000D03*
X86350000Y-45650000D03*
X85500000Y-45650000D03*
D15*
X89800000Y-51000000D03*
D16*
X89800000Y-52650000D03*
X89800000Y-54300000D03*
X91450000Y-51000000D03*
X91450000Y-52650000D03*
X91450000Y-54300000D03*
X93100000Y-51000000D03*
X93100000Y-52650000D03*
X93100000Y-54300000D03*
D17*
X84450000Y-45650000D03*
X84450000Y-59650000D03*
X98450000Y-59650000D03*
X98450000Y-45650000D03*
%TD*%
D18*
%TO.C,J2*%
X122300000Y-54380000D03*
X122300000Y-56920000D03*
X122300000Y-59460000D03*
D19*
X122300000Y-62000000D03*
%TD*%
D20*
%TO.C,U4*%
X63700000Y-47450000D03*
X63700000Y-48400000D03*
X63700000Y-49350000D03*
X65975000Y-49350000D03*
X65975000Y-47450000D03*
%TD*%
D21*
%TO.C,SW3*%
X109338750Y-87962500D03*
D22*
X104338750Y-87962500D03*
X109338750Y-73462500D03*
X104338750Y-73462500D03*
X106838750Y-73462500D03*
D23*
X112538750Y-80962500D03*
X101138750Y-80962500D03*
%TD*%
D11*
%TO.C,SW2*%
X66100000Y-57225000D03*
X66100000Y-51975000D03*
X69300000Y-57225000D03*
X69300000Y-51975000D03*
%TD*%
D24*
%TO.C,J3*%
X49120000Y-49110000D03*
X44080000Y-49110000D03*
X49120000Y-51650000D03*
X44080000Y-51650000D03*
X49120000Y-54190000D03*
X44080000Y-54190000D03*
X49120000Y-56730000D03*
X44080000Y-56730000D03*
X49120000Y-59270000D03*
X44080000Y-59270000D03*
X49120000Y-61810000D03*
X44080000Y-61810000D03*
X49120000Y-64350000D03*
X44080000Y-64350000D03*
X49120000Y-66890000D03*
X44080000Y-66890000D03*
%TD*%
D25*
%TO.C,S8*%
X44608750Y-119062500D03*
D26*
X45878750Y-116522500D03*
D27*
X49688750Y-119062500D03*
D26*
X52228750Y-113982500D03*
D25*
X54768750Y-119062500D03*
%TD*%
%TO.C,S1*%
X44608750Y-80962500D03*
D26*
X45878750Y-78422500D03*
D27*
X49688750Y-80962500D03*
D26*
X52228750Y-75882500D03*
D25*
X54768750Y-80962500D03*
%TD*%
D28*
%TO.C,R3*%
X49200000Y-38710000D03*
X49200000Y-37690000D03*
%TD*%
D25*
%TO.C,S21*%
X82708750Y-176212500D03*
D26*
X83978750Y-173672500D03*
D27*
X87788750Y-176212500D03*
D26*
X90328750Y-171132500D03*
D25*
X92868750Y-176212500D03*
%TD*%
D29*
%TO.C,FM1*%
X119800000Y-42200000D03*
%TD*%
D28*
%TO.C,R4*%
X61800000Y-38710000D03*
X61800000Y-37690000D03*
%TD*%
D29*
%TO.C,FM3*%
X121900000Y-181600000D03*
%TD*%
D25*
%TO.C,S3*%
X82738750Y-80962500D03*
D26*
X84008750Y-78422500D03*
D27*
X87818750Y-80962500D03*
D26*
X90358750Y-75882500D03*
D25*
X92898750Y-80962500D03*
%TD*%
D30*
%TO.C,R6*%
X108000000Y-71437500D03*
X109020000Y-71437500D03*
%TD*%
D31*
%TO.C,C6*%
X68750000Y-49200000D03*
X68750000Y-47300000D03*
%TD*%
D32*
%TO.C,H1*%
X119600000Y-47950000D03*
%TD*%
D12*
%TO.C,R2*%
X72300000Y-52990000D03*
X72300000Y-54010000D03*
%TD*%
D32*
%TO.C,H2*%
X37000000Y-48000000D03*
%TD*%
D33*
%TO.C,C5*%
X59050000Y-48250000D03*
X60950000Y-48250000D03*
%TD*%
D25*
%TO.C,S12*%
X44608750Y-138112500D03*
D26*
X45878750Y-135572500D03*
D27*
X49688750Y-138112500D03*
D26*
X52228750Y-133032500D03*
D25*
X54768750Y-138112500D03*
%TD*%
D32*
%TO.C,H4*%
X37000000Y-186500000D03*
%TD*%
D25*
%TO.C,S14*%
X82708750Y-138112500D03*
D26*
X83978750Y-135572500D03*
D27*
X87788750Y-138112500D03*
D26*
X90328750Y-133032500D03*
D25*
X92868750Y-138112500D03*
%TD*%
D34*
%TO.C,D22*%
X84530000Y-62800000D03*
X85500000Y-62800000D03*
%TD*%
D25*
%TO.C,S6*%
X82708750Y-100012500D03*
D26*
X83978750Y-97472500D03*
D27*
X87788750Y-100012500D03*
D26*
X90328750Y-94932500D03*
D25*
X92868750Y-100012500D03*
%TD*%
%TO.C,S7*%
X101758750Y-100012500D03*
D26*
X103028750Y-97472500D03*
D27*
X106838750Y-100012500D03*
D26*
X109378750Y-94932500D03*
D25*
X111918750Y-100012500D03*
%TD*%
D30*
%TO.C,R5*%
X105490000Y-71437500D03*
X106510000Y-71437500D03*
%TD*%
D25*
%TO.C,S13*%
X63658750Y-138112500D03*
D26*
X64928750Y-135572500D03*
D27*
X68738750Y-138112500D03*
D26*
X71278750Y-133032500D03*
D25*
X73818750Y-138112500D03*
%TD*%
D35*
%TO.C,C2*%
X77250000Y-48950000D03*
X77250000Y-47050000D03*
%TD*%
D25*
%TO.C,S11*%
X101758750Y-119062500D03*
D26*
X103028750Y-116522500D03*
D27*
X106838750Y-119062500D03*
D26*
X109378750Y-113982500D03*
D25*
X111918750Y-119062500D03*
%TD*%
%TO.C,S2*%
X63688750Y-80962500D03*
D26*
X64958750Y-78422500D03*
D27*
X68768750Y-80962500D03*
D26*
X71308750Y-75882500D03*
D25*
X73848750Y-80962500D03*
%TD*%
%TO.C,S4*%
X44608750Y-100012500D03*
D26*
X45878750Y-97472500D03*
D27*
X49688750Y-100012500D03*
D26*
X52228750Y-94932500D03*
D25*
X54768750Y-100012500D03*
%TD*%
%TO.C,S5*%
X63658750Y-100012500D03*
D26*
X64928750Y-97472500D03*
D27*
X68738750Y-100012500D03*
D26*
X71278750Y-94932500D03*
D25*
X73818750Y-100012500D03*
%TD*%
D36*
%TO.C,C1*%
X81250000Y-48380000D03*
X81250000Y-47420000D03*
%TD*%
D25*
%TO.C,S18*%
X82708750Y-157162500D03*
D26*
X83978750Y-154622500D03*
D27*
X87788750Y-157162500D03*
D26*
X90328750Y-152082500D03*
D25*
X92868750Y-157162500D03*
%TD*%
%TO.C,S20*%
X54133750Y-176212500D03*
D26*
X55403750Y-173672500D03*
D27*
X59213750Y-176212500D03*
D26*
X61753750Y-171132500D03*
D25*
X64293750Y-176212500D03*
%TD*%
%TO.C,S15*%
X101758750Y-138112500D03*
D26*
X103028750Y-135572500D03*
D27*
X106838750Y-138112500D03*
D26*
X109378750Y-133032500D03*
D25*
X111918750Y-138112500D03*
%TD*%
%TO.C,S17*%
X63658750Y-157162500D03*
D26*
X64928750Y-154622500D03*
D27*
X68738750Y-157162500D03*
D26*
X71278750Y-152082500D03*
D25*
X73818750Y-157162500D03*
%TD*%
%TO.C,S9*%
X63658750Y-119062500D03*
D26*
X64928750Y-116522500D03*
D27*
X68738750Y-119062500D03*
D26*
X71278750Y-113982500D03*
D25*
X73818750Y-119062500D03*
%TD*%
%TO.C,S10*%
X82708750Y-119062500D03*
D26*
X83978750Y-116522500D03*
D27*
X87788750Y-119062500D03*
D26*
X90328750Y-113982500D03*
D25*
X92868750Y-119062500D03*
%TD*%
D37*
%TO.C,J1*%
X58390000Y-40605000D03*
X52610000Y-40605000D03*
D38*
X58700000Y-41755000D03*
D39*
X57900000Y-41680000D03*
D40*
X56750000Y-41680000D03*
X55750000Y-41680000D03*
X55250000Y-41680000D03*
X54250000Y-41680000D03*
D39*
X53100000Y-41680000D03*
D38*
X52300000Y-41755000D03*
X52300000Y-41755000D03*
D39*
X53100000Y-41680000D03*
D40*
X53750000Y-41680000D03*
X54750000Y-41680000D03*
X56250000Y-41680000D03*
X57250000Y-41680000D03*
D39*
X57900000Y-41680000D03*
D38*
X58700000Y-41755000D03*
D41*
X59820000Y-41105000D03*
D42*
X59820000Y-36925000D03*
D41*
X51180000Y-41105000D03*
D42*
X51180000Y-36925000D03*
%TD*%
D25*
%TO.C,S16*%
X44608750Y-157162500D03*
D26*
X45878750Y-154622500D03*
D27*
X49688750Y-157162500D03*
D26*
X52228750Y-152082500D03*
D25*
X54768750Y-157162500D03*
%TD*%
%TO.C,S19*%
X101758750Y-166687500D03*
D26*
X103028750Y-164147500D03*
D27*
X106838750Y-166687500D03*
D26*
X109378750Y-161607500D03*
D25*
X111918750Y-166687500D03*
%TD*%
D29*
%TO.C,FM2*%
X39000000Y-52500000D03*
%TD*%
D43*
%TO.C,R7*%
X82775000Y-62800000D03*
X81755000Y-62800000D03*
%TD*%
D32*
%TO.C,H3*%
X119600000Y-186450000D03*
%TD*%
D36*
%TO.C,C4*%
X72300000Y-56090000D03*
X72300000Y-55130000D03*
%TD*%
D44*
%TO.C,D16*%
X59213750Y-160972500D03*
D45*
X59213750Y-153352500D03*
%TD*%
D44*
%TO.C,D5*%
X78263750Y-103822500D03*
D45*
X78263750Y-96202500D03*
%TD*%
D44*
%TO.C,D14*%
X97313750Y-141922500D03*
D45*
X97313750Y-134302500D03*
%TD*%
D44*
%TO.C,D9*%
X78263750Y-122872500D03*
D45*
X78263750Y-115252500D03*
%TD*%
D44*
%TO.C,D4*%
X59213750Y-103822500D03*
D45*
X59213750Y-96202500D03*
%TD*%
D44*
%TO.C,D1*%
X59213750Y-84772500D03*
D45*
X59213750Y-77152500D03*
%TD*%
D44*
%TO.C,D17*%
X78263750Y-160972500D03*
D45*
X78263750Y-153352500D03*
%TD*%
D44*
%TO.C,D19*%
X116363750Y-160972500D03*
D45*
X116363750Y-153352500D03*
%TD*%
D44*
%TO.C,D6*%
X97313750Y-103822500D03*
D45*
X97313750Y-96202500D03*
%TD*%
D44*
%TO.C,D10*%
X97313750Y-122872500D03*
D45*
X97313750Y-115252500D03*
%TD*%
D44*
%TO.C,D20*%
X78263750Y-180022500D03*
D45*
X78263750Y-172402500D03*
%TD*%
D44*
%TO.C,D21*%
X97313750Y-180022500D03*
D45*
X97313750Y-172402500D03*
%TD*%
D44*
%TO.C,D2*%
X78263750Y-84772500D03*
D45*
X78263750Y-77152500D03*
%TD*%
D44*
%TO.C,D3*%
X97313750Y-84772500D03*
D45*
X97313750Y-77152500D03*
%TD*%
D44*
%TO.C,D8*%
X59213750Y-122872500D03*
D45*
X59213750Y-115252500D03*
%TD*%
D44*
%TO.C,D15*%
X116363750Y-141922500D03*
D45*
X116363750Y-134302500D03*
%TD*%
D44*
%TO.C,D12*%
X59213750Y-141922500D03*
D45*
X59213750Y-134302500D03*
%TD*%
D44*
%TO.C,D11*%
X116363750Y-122872500D03*
D45*
X116363750Y-115252500D03*
%TD*%
D44*
%TO.C,D7*%
X116363750Y-103822500D03*
D45*
X116363750Y-96202500D03*
%TD*%
D44*
%TO.C,D18*%
X97313750Y-160972500D03*
D45*
X97313750Y-153352500D03*
%TD*%
D44*
%TO.C,D13*%
X78263750Y-141922500D03*
D45*
X78263750Y-134302500D03*
%TD*%
D46*
%TO.C,U2*%
X56450000Y-48512500D03*
X55500000Y-48512500D03*
X54550000Y-48512500D03*
X54550000Y-46237500D03*
X55500000Y-46237500D03*
X56450000Y-46237500D03*
%TD*%
M02*
