%TF.GenerationSoftware,KiCad,Pcbnew,8.0.6*%
%TF.CreationDate,2024-12-08T22:14:42-05:00*%
%TF.ProjectId,kiCAD Keypad,6b694341-4420-44b6-9579-7061642e6b69,rev?*%
%TF.SameCoordinates,Original*%
%TF.FileFunction,Legend,Bot*%
%TF.FilePolarity,Positive*%
%FSLAX46Y46*%
G04 Gerber Fmt 4.6, Leading zero omitted, Abs format (unit mm)*
G04 Created by KiCad (PCBNEW 8.0.6) date 2024-12-08 22:14:42*
%MOMM*%
%LPD*%
G01*
G04 APERTURE LIST*
%ADD10C,0.120000*%
%ADD11C,0.100000*%
G04 APERTURE END LIST*
D10*
%TO.C,S8*%
X45588750Y-112162500D02*
X50688750Y-112162500D01*
X49488750Y-116362500D02*
X54588750Y-116362500D01*
X43588750Y-114162500D02*
G75*
G02*
X45588750Y-112162500I1999999J1D01*
G01*
X47488750Y-118362500D02*
G75*
G02*
X49488750Y-116362500I1999999J1D01*
G01*
%TO.C,S1*%
X45588750Y-74062500D02*
X50688750Y-74062500D01*
X49488750Y-78262500D02*
X54588750Y-78262500D01*
X43588750Y-76062500D02*
G75*
G02*
X45588750Y-74062500I1999999J1D01*
G01*
X47488750Y-80262500D02*
G75*
G02*
X49488750Y-78262500I1999999J1D01*
G01*
%TO.C,S21*%
X83688750Y-169312500D02*
X88788750Y-169312500D01*
X87588750Y-173512500D02*
X92688750Y-173512500D01*
X81688750Y-171312500D02*
G75*
G02*
X83688750Y-169312500I1999999J1D01*
G01*
X85588750Y-175512500D02*
G75*
G02*
X87588750Y-173512500I1999999J1D01*
G01*
%TO.C,S3*%
X83718750Y-74062500D02*
X88818750Y-74062500D01*
X87618750Y-78262500D02*
X92718750Y-78262500D01*
X81718750Y-76062500D02*
G75*
G02*
X83718750Y-74062500I1999999J1D01*
G01*
X85618750Y-80262500D02*
G75*
G02*
X87618750Y-78262500I1999999J1D01*
G01*
%TO.C,S12*%
X45588750Y-131212500D02*
X50688750Y-131212500D01*
X49488750Y-135412500D02*
X54588750Y-135412500D01*
X43588750Y-133212500D02*
G75*
G02*
X45588750Y-131212500I1999999J1D01*
G01*
X47488750Y-137412500D02*
G75*
G02*
X49488750Y-135412500I1999999J1D01*
G01*
%TO.C,S14*%
X83688750Y-131212500D02*
X88788750Y-131212500D01*
X87588750Y-135412500D02*
X92688750Y-135412500D01*
X81688750Y-133212500D02*
G75*
G02*
X83688750Y-131212500I1999999J1D01*
G01*
X85588750Y-137412500D02*
G75*
G02*
X87588750Y-135412500I1999999J1D01*
G01*
%TO.C,S6*%
X83688750Y-93112500D02*
X88788750Y-93112500D01*
X87588750Y-97312500D02*
X92688750Y-97312500D01*
X81688750Y-95112500D02*
G75*
G02*
X83688750Y-93112500I1999999J1D01*
G01*
X85588750Y-99312500D02*
G75*
G02*
X87588750Y-97312500I1999999J1D01*
G01*
%TO.C,S7*%
X102738750Y-93112500D02*
X107838750Y-93112500D01*
X106638750Y-97312500D02*
X111738750Y-97312500D01*
X100738750Y-95112500D02*
G75*
G02*
X102738750Y-93112500I1999999J1D01*
G01*
X104638750Y-99312500D02*
G75*
G02*
X106638750Y-97312500I1999999J1D01*
G01*
%TO.C,S13*%
X64638750Y-131212500D02*
X69738750Y-131212500D01*
X68538750Y-135412500D02*
X73638750Y-135412500D01*
X62638750Y-133212500D02*
G75*
G02*
X64638750Y-131212500I1999999J1D01*
G01*
X66538750Y-137412500D02*
G75*
G02*
X68538750Y-135412500I1999999J1D01*
G01*
%TO.C,S11*%
X102738750Y-112162500D02*
X107838750Y-112162500D01*
X106638750Y-116362500D02*
X111738750Y-116362500D01*
X100738750Y-114162500D02*
G75*
G02*
X102738750Y-112162500I1999999J1D01*
G01*
X104638750Y-118362500D02*
G75*
G02*
X106638750Y-116362500I1999999J1D01*
G01*
%TO.C,S2*%
X64668750Y-74062500D02*
X69768750Y-74062500D01*
X68568750Y-78262500D02*
X73668750Y-78262500D01*
X62668750Y-76062500D02*
G75*
G02*
X64668750Y-74062500I1999999J1D01*
G01*
X66568750Y-80262500D02*
G75*
G02*
X68568750Y-78262500I1999999J1D01*
G01*
%TO.C,S4*%
X45588750Y-93112500D02*
X50688750Y-93112500D01*
X49488750Y-97312500D02*
X54588750Y-97312500D01*
X43588750Y-95112500D02*
G75*
G02*
X45588750Y-93112500I1999999J1D01*
G01*
X47488750Y-99312500D02*
G75*
G02*
X49488750Y-97312500I1999999J1D01*
G01*
%TO.C,S5*%
X64638750Y-93112500D02*
X69738750Y-93112500D01*
X68538750Y-97312500D02*
X73638750Y-97312500D01*
X62638750Y-95112500D02*
G75*
G02*
X64638750Y-93112500I1999999J1D01*
G01*
X66538750Y-99312500D02*
G75*
G02*
X68538750Y-97312500I1999999J1D01*
G01*
%TO.C,S18*%
X83688750Y-150262500D02*
X88788750Y-150262500D01*
X87588750Y-154462500D02*
X92688750Y-154462500D01*
X81688750Y-152262500D02*
G75*
G02*
X83688750Y-150262500I1999999J1D01*
G01*
X85588750Y-156462500D02*
G75*
G02*
X87588750Y-154462500I1999999J1D01*
G01*
%TO.C,S20*%
X55113750Y-169312500D02*
X60213750Y-169312500D01*
X59013750Y-173512500D02*
X64113750Y-173512500D01*
X53113750Y-171312500D02*
G75*
G02*
X55113750Y-169312500I1999999J1D01*
G01*
X57013750Y-175512500D02*
G75*
G02*
X59013750Y-173512500I1999999J1D01*
G01*
%TO.C,S15*%
X102738750Y-131212500D02*
X107838750Y-131212500D01*
X106638750Y-135412500D02*
X111738750Y-135412500D01*
X100738750Y-133212500D02*
G75*
G02*
X102738750Y-131212500I1999999J1D01*
G01*
X104638750Y-137412500D02*
G75*
G02*
X106638750Y-135412500I1999999J1D01*
G01*
%TO.C,S17*%
X64638750Y-150262500D02*
X69738750Y-150262500D01*
X68538750Y-154462500D02*
X73638750Y-154462500D01*
X62638750Y-152262500D02*
G75*
G02*
X64638750Y-150262500I1999999J1D01*
G01*
X66538750Y-156462500D02*
G75*
G02*
X68538750Y-154462500I1999999J1D01*
G01*
%TO.C,S9*%
X64638750Y-112162500D02*
X69738750Y-112162500D01*
X68538750Y-116362500D02*
X73638750Y-116362500D01*
X62638750Y-114162500D02*
G75*
G02*
X64638750Y-112162500I1999999J1D01*
G01*
X66538750Y-118362500D02*
G75*
G02*
X68538750Y-116362500I1999999J1D01*
G01*
%TO.C,S10*%
X83688750Y-112162500D02*
X88788750Y-112162500D01*
X87588750Y-116362500D02*
X92688750Y-116362500D01*
X81688750Y-114162500D02*
G75*
G02*
X83688750Y-112162500I1999999J1D01*
G01*
X85588750Y-118362500D02*
G75*
G02*
X87588750Y-116362500I1999999J1D01*
G01*
%TO.C,S16*%
X45588750Y-150262500D02*
X50688750Y-150262500D01*
X49488750Y-154462500D02*
X54588750Y-154462500D01*
X43588750Y-152262500D02*
G75*
G02*
X45588750Y-150262500I1999999J1D01*
G01*
X47488750Y-156462500D02*
G75*
G02*
X49488750Y-154462500I1999999J1D01*
G01*
%TO.C,S19*%
X102738750Y-159787500D02*
X107838750Y-159787500D01*
X106638750Y-163987500D02*
X111738750Y-163987500D01*
X100738750Y-161787500D02*
G75*
G02*
X102738750Y-159787500I1999999J1D01*
G01*
X104638750Y-165987500D02*
G75*
G02*
X106638750Y-163987500I1999999J1D01*
G01*
D11*
%TO.C,D16*%
X58663750Y-157512500D02*
X59763750Y-157512500D01*
X58813750Y-156912500D02*
X59613750Y-156912500D01*
X59213750Y-156412500D02*
X59213750Y-156912500D01*
X59213750Y-157512500D02*
X58813750Y-156912500D01*
X59213750Y-157512500D02*
X59213750Y-157912500D01*
X59613750Y-156912500D02*
X59213750Y-157512500D01*
%TO.C,D5*%
X77713750Y-100362500D02*
X78813750Y-100362500D01*
X77863750Y-99762500D02*
X78663750Y-99762500D01*
X78263750Y-99262500D02*
X78263750Y-99762500D01*
X78263750Y-100362500D02*
X77863750Y-99762500D01*
X78263750Y-100362500D02*
X78263750Y-100762500D01*
X78663750Y-99762500D02*
X78263750Y-100362500D01*
%TO.C,D14*%
X96763750Y-138462500D02*
X97863750Y-138462500D01*
X96913750Y-137862500D02*
X97713750Y-137862500D01*
X97313750Y-137362500D02*
X97313750Y-137862500D01*
X97313750Y-138462500D02*
X96913750Y-137862500D01*
X97313750Y-138462500D02*
X97313750Y-138862500D01*
X97713750Y-137862500D02*
X97313750Y-138462500D01*
%TO.C,D9*%
X77713750Y-119412500D02*
X78813750Y-119412500D01*
X77863750Y-118812500D02*
X78663750Y-118812500D01*
X78263750Y-118312500D02*
X78263750Y-118812500D01*
X78263750Y-119412500D02*
X77863750Y-118812500D01*
X78263750Y-119412500D02*
X78263750Y-119812500D01*
X78663750Y-118812500D02*
X78263750Y-119412500D01*
%TO.C,D4*%
X58663750Y-100362500D02*
X59763750Y-100362500D01*
X58813750Y-99762500D02*
X59613750Y-99762500D01*
X59213750Y-99262500D02*
X59213750Y-99762500D01*
X59213750Y-100362500D02*
X58813750Y-99762500D01*
X59213750Y-100362500D02*
X59213750Y-100762500D01*
X59613750Y-99762500D02*
X59213750Y-100362500D01*
%TO.C,D1*%
X58663750Y-81312500D02*
X59763750Y-81312500D01*
X58813750Y-80712500D02*
X59613750Y-80712500D01*
X59213750Y-80212500D02*
X59213750Y-80712500D01*
X59213750Y-81312500D02*
X58813750Y-80712500D01*
X59213750Y-81312500D02*
X59213750Y-81712500D01*
X59613750Y-80712500D02*
X59213750Y-81312500D01*
%TO.C,D17*%
X77713750Y-157512500D02*
X78813750Y-157512500D01*
X77863750Y-156912500D02*
X78663750Y-156912500D01*
X78263750Y-156412500D02*
X78263750Y-156912500D01*
X78263750Y-157512500D02*
X77863750Y-156912500D01*
X78263750Y-157512500D02*
X78263750Y-157912500D01*
X78663750Y-156912500D02*
X78263750Y-157512500D01*
%TO.C,D19*%
X115813750Y-157512500D02*
X116913750Y-157512500D01*
X115963750Y-156912500D02*
X116763750Y-156912500D01*
X116363750Y-156412500D02*
X116363750Y-156912500D01*
X116363750Y-157512500D02*
X115963750Y-156912500D01*
X116363750Y-157512500D02*
X116363750Y-157912500D01*
X116763750Y-156912500D02*
X116363750Y-157512500D01*
%TO.C,D6*%
X96763750Y-100362500D02*
X97863750Y-100362500D01*
X96913750Y-99762500D02*
X97713750Y-99762500D01*
X97313750Y-99262500D02*
X97313750Y-99762500D01*
X97313750Y-100362500D02*
X96913750Y-99762500D01*
X97313750Y-100362500D02*
X97313750Y-100762500D01*
X97713750Y-99762500D02*
X97313750Y-100362500D01*
%TO.C,D10*%
X96763750Y-119412500D02*
X97863750Y-119412500D01*
X96913750Y-118812500D02*
X97713750Y-118812500D01*
X97313750Y-118312500D02*
X97313750Y-118812500D01*
X97313750Y-119412500D02*
X96913750Y-118812500D01*
X97313750Y-119412500D02*
X97313750Y-119812500D01*
X97713750Y-118812500D02*
X97313750Y-119412500D01*
%TO.C,D20*%
X77713750Y-176562500D02*
X78813750Y-176562500D01*
X77863750Y-175962500D02*
X78663750Y-175962500D01*
X78263750Y-175462500D02*
X78263750Y-175962500D01*
X78263750Y-176562500D02*
X77863750Y-175962500D01*
X78263750Y-176562500D02*
X78263750Y-176962500D01*
X78663750Y-175962500D02*
X78263750Y-176562500D01*
%TO.C,D21*%
X96763750Y-176562500D02*
X97863750Y-176562500D01*
X96913750Y-175962500D02*
X97713750Y-175962500D01*
X97313750Y-175462500D02*
X97313750Y-175962500D01*
X97313750Y-176562500D02*
X96913750Y-175962500D01*
X97313750Y-176562500D02*
X97313750Y-176962500D01*
X97713750Y-175962500D02*
X97313750Y-176562500D01*
%TO.C,D2*%
X77713750Y-81312500D02*
X78813750Y-81312500D01*
X77863750Y-80712500D02*
X78663750Y-80712500D01*
X78263750Y-80212500D02*
X78263750Y-80712500D01*
X78263750Y-81312500D02*
X77863750Y-80712500D01*
X78263750Y-81312500D02*
X78263750Y-81712500D01*
X78663750Y-80712500D02*
X78263750Y-81312500D01*
%TO.C,D3*%
X96763750Y-81312500D02*
X97863750Y-81312500D01*
X96913750Y-80712500D02*
X97713750Y-80712500D01*
X97313750Y-80212500D02*
X97313750Y-80712500D01*
X97313750Y-81312500D02*
X96913750Y-80712500D01*
X97313750Y-81312500D02*
X97313750Y-81712500D01*
X97713750Y-80712500D02*
X97313750Y-81312500D01*
%TO.C,D8*%
X58663750Y-119412500D02*
X59763750Y-119412500D01*
X58813750Y-118812500D02*
X59613750Y-118812500D01*
X59213750Y-118312500D02*
X59213750Y-118812500D01*
X59213750Y-119412500D02*
X58813750Y-118812500D01*
X59213750Y-119412500D02*
X59213750Y-119812500D01*
X59613750Y-118812500D02*
X59213750Y-119412500D01*
%TO.C,D15*%
X115813750Y-138462500D02*
X116913750Y-138462500D01*
X115963750Y-137862500D02*
X116763750Y-137862500D01*
X116363750Y-137362500D02*
X116363750Y-137862500D01*
X116363750Y-138462500D02*
X115963750Y-137862500D01*
X116363750Y-138462500D02*
X116363750Y-138862500D01*
X116763750Y-137862500D02*
X116363750Y-138462500D01*
%TO.C,D12*%
X58663750Y-138462500D02*
X59763750Y-138462500D01*
X58813750Y-137862500D02*
X59613750Y-137862500D01*
X59213750Y-137362500D02*
X59213750Y-137862500D01*
X59213750Y-138462500D02*
X58813750Y-137862500D01*
X59213750Y-138462500D02*
X59213750Y-138862500D01*
X59613750Y-137862500D02*
X59213750Y-138462500D01*
%TO.C,D11*%
X115813750Y-119412500D02*
X116913750Y-119412500D01*
X115963750Y-118812500D02*
X116763750Y-118812500D01*
X116363750Y-118312500D02*
X116363750Y-118812500D01*
X116363750Y-119412500D02*
X115963750Y-118812500D01*
X116363750Y-119412500D02*
X116363750Y-119812500D01*
X116763750Y-118812500D02*
X116363750Y-119412500D01*
%TO.C,D7*%
X115813750Y-100362500D02*
X116913750Y-100362500D01*
X115963750Y-99762500D02*
X116763750Y-99762500D01*
X116363750Y-99262500D02*
X116363750Y-99762500D01*
X116363750Y-100362500D02*
X115963750Y-99762500D01*
X116363750Y-100362500D02*
X116363750Y-100762500D01*
X116763750Y-99762500D02*
X116363750Y-100362500D01*
%TO.C,D18*%
X96763750Y-157512500D02*
X97863750Y-157512500D01*
X96913750Y-156912500D02*
X97713750Y-156912500D01*
X97313750Y-156412500D02*
X97313750Y-156912500D01*
X97313750Y-157512500D02*
X96913750Y-156912500D01*
X97313750Y-157512500D02*
X97313750Y-157912500D01*
X97713750Y-156912500D02*
X97313750Y-157512500D01*
%TO.C,D13*%
X77713750Y-138462500D02*
X78813750Y-138462500D01*
X77863750Y-137862500D02*
X78663750Y-137862500D01*
X78263750Y-137362500D02*
X78263750Y-137862500D01*
X78263750Y-138462500D02*
X77863750Y-137862500D01*
X78263750Y-138462500D02*
X78263750Y-138862500D01*
X78663750Y-137862500D02*
X78263750Y-138462500D01*
%TD*%
M02*
