%TF.GenerationSoftware,KiCad,Pcbnew,8.0.6*%
%TF.CreationDate,2024-12-08T22:14:42-05:00*%
%TF.ProjectId,kiCAD Keypad,6b694341-4420-44b6-9579-7061642e6b69,rev?*%
%TF.SameCoordinates,Original*%
%TF.FileFunction,Soldermask,Bot*%
%TF.FilePolarity,Negative*%
%FSLAX46Y46*%
G04 Gerber Fmt 4.6, Leading zero omitted, Abs format (unit mm)*
G04 Created by KiCad (PCBNEW 8.0.6) date 2024-12-08 22:14:42*
%MOMM*%
%LPD*%
G01*
G04 APERTURE LIST*
G04 Aperture macros list*
%AMRoundRect*
0 Rectangle with rounded corners*
0 $1 Rounding radius*
0 $2 $3 $4 $5 $6 $7 $8 $9 X,Y pos of 4 corners*
0 Add a 4 corners polygon primitive as box body*
4,1,4,$2,$3,$4,$5,$6,$7,$8,$9,$2,$3,0*
0 Add four circle primitives for the rounded corners*
1,1,$1+$1,$2,$3*
1,1,$1+$1,$4,$5*
1,1,$1+$1,$6,$7*
1,1,$1+$1,$8,$9*
0 Add four rect primitives between the rounded corners*
20,1,$1+$1,$2,$3,$4,$5,0*
20,1,$1+$1,$4,$5,$6,$7,0*
20,1,$1+$1,$6,$7,$8,$9,0*
20,1,$1+$1,$8,$9,$2,$3,0*%
G04 Aperture macros list end*
%ADD10RoundRect,0.102000X0.825000X0.825000X-0.825000X0.825000X-0.825000X-0.825000X0.825000X-0.825000X0*%
%ADD11C,1.854000*%
%ADD12O,3.204000X6.204000*%
%ADD13C,1.750000*%
%ADD14C,3.050000*%
%ADD15C,4.000000*%
%ADD16RoundRect,0.250000X-1.025000X-1.000000X1.025000X-1.000000X1.025000X1.000000X-1.025000X1.000000X0*%
%ADD17C,0.600000*%
%ADD18C,2.200000*%
%ADD19C,0.650000*%
%ADD20O,1.000000X2.100000*%
%ADD21O,1.000000X1.800000*%
%ADD22R,1.600000X1.600000*%
%ADD23O,1.600000X1.600000*%
G04 APERTURE END LIST*
D10*
%TO.C,SW3*%
X109338750Y-87962500D03*
D11*
X104338750Y-87962500D03*
X109338750Y-73462500D03*
X104338750Y-73462500D03*
X106838750Y-73462500D03*
D12*
X112538750Y-80962500D03*
X101138750Y-80962500D03*
%TD*%
D13*
%TO.C,S8*%
X44608750Y-119062500D03*
D14*
X45878750Y-116522500D03*
D15*
X49688750Y-119062500D03*
D14*
X52228750Y-113982500D03*
D13*
X54768750Y-119062500D03*
D16*
X42603750Y-116522500D03*
X55530750Y-113982500D03*
%TD*%
D13*
%TO.C,S1*%
X44608750Y-80962500D03*
D14*
X45878750Y-78422500D03*
D15*
X49688750Y-80962500D03*
D14*
X52228750Y-75882500D03*
D13*
X54768750Y-80962500D03*
D16*
X42603750Y-78422500D03*
X55530750Y-75882500D03*
%TD*%
D13*
%TO.C,S21*%
X82708750Y-176212500D03*
D14*
X83978750Y-173672500D03*
D15*
X87788750Y-176212500D03*
D14*
X90328750Y-171132500D03*
D13*
X92868750Y-176212500D03*
D16*
X80703750Y-173672500D03*
X93630750Y-171132500D03*
%TD*%
D17*
%TO.C,U1*%
X89000000Y-51750000D03*
X89000000Y-53250000D03*
X89750000Y-51000000D03*
X89750000Y-52500000D03*
X89750000Y-54000000D03*
X90500000Y-51750000D03*
X90500000Y-53250000D03*
X91250000Y-51000000D03*
X91250000Y-52500000D03*
X91250000Y-54000000D03*
X92000000Y-51750000D03*
X92000000Y-53250000D03*
%TD*%
D13*
%TO.C,S3*%
X82738750Y-80962500D03*
D14*
X84008750Y-78422500D03*
D15*
X87818750Y-80962500D03*
D14*
X90358750Y-75882500D03*
D13*
X92898750Y-80962500D03*
D16*
X80733750Y-78422500D03*
X93660750Y-75882500D03*
%TD*%
D18*
%TO.C,H1*%
X119600000Y-47950000D03*
%TD*%
%TO.C,H2*%
X37000000Y-48000000D03*
%TD*%
D13*
%TO.C,S12*%
X44608750Y-138112500D03*
D14*
X45878750Y-135572500D03*
D15*
X49688750Y-138112500D03*
D14*
X52228750Y-133032500D03*
D13*
X54768750Y-138112500D03*
D16*
X42603750Y-135572500D03*
X55530750Y-133032500D03*
%TD*%
D18*
%TO.C,H4*%
X37000000Y-186500000D03*
%TD*%
D13*
%TO.C,S14*%
X82708750Y-138112500D03*
D14*
X83978750Y-135572500D03*
D15*
X87788750Y-138112500D03*
D14*
X90328750Y-133032500D03*
D13*
X92868750Y-138112500D03*
D16*
X80703750Y-135572500D03*
X93630750Y-133032500D03*
%TD*%
D13*
%TO.C,S6*%
X82708750Y-100012500D03*
D14*
X83978750Y-97472500D03*
D15*
X87788750Y-100012500D03*
D14*
X90328750Y-94932500D03*
D13*
X92868750Y-100012500D03*
D16*
X80703750Y-97472500D03*
X93630750Y-94932500D03*
%TD*%
D13*
%TO.C,S7*%
X101758750Y-100012500D03*
D14*
X103028750Y-97472500D03*
D15*
X106838750Y-100012500D03*
D14*
X109378750Y-94932500D03*
D13*
X111918750Y-100012500D03*
D16*
X99753750Y-97472500D03*
X112680750Y-94932500D03*
%TD*%
D13*
%TO.C,S13*%
X63658750Y-138112500D03*
D14*
X64928750Y-135572500D03*
D15*
X68738750Y-138112500D03*
D14*
X71278750Y-133032500D03*
D13*
X73818750Y-138112500D03*
D16*
X61653750Y-135572500D03*
X74580750Y-133032500D03*
%TD*%
D13*
%TO.C,S11*%
X101758750Y-119062500D03*
D14*
X103028750Y-116522500D03*
D15*
X106838750Y-119062500D03*
D14*
X109378750Y-113982500D03*
D13*
X111918750Y-119062500D03*
D16*
X99753750Y-116522500D03*
X112680750Y-113982500D03*
%TD*%
D13*
%TO.C,S2*%
X63688750Y-80962500D03*
D14*
X64958750Y-78422500D03*
D15*
X68768750Y-80962500D03*
D14*
X71308750Y-75882500D03*
D13*
X73848750Y-80962500D03*
D16*
X61683750Y-78422500D03*
X74610750Y-75882500D03*
%TD*%
D13*
%TO.C,S4*%
X44608750Y-100012500D03*
D14*
X45878750Y-97472500D03*
D15*
X49688750Y-100012500D03*
D14*
X52228750Y-94932500D03*
D13*
X54768750Y-100012500D03*
D16*
X42603750Y-97472500D03*
X55530750Y-94932500D03*
%TD*%
D13*
%TO.C,S5*%
X63658750Y-100012500D03*
D14*
X64928750Y-97472500D03*
D15*
X68738750Y-100012500D03*
D14*
X71278750Y-94932500D03*
D13*
X73818750Y-100012500D03*
D16*
X61653750Y-97472500D03*
X74580750Y-94932500D03*
%TD*%
D13*
%TO.C,S18*%
X82708750Y-157162500D03*
D14*
X83978750Y-154622500D03*
D15*
X87788750Y-157162500D03*
D14*
X90328750Y-152082500D03*
D13*
X92868750Y-157162500D03*
D16*
X80703750Y-154622500D03*
X93630750Y-152082500D03*
%TD*%
D13*
%TO.C,S20*%
X54133750Y-176212500D03*
D14*
X55403750Y-173672500D03*
D15*
X59213750Y-176212500D03*
D14*
X61753750Y-171132500D03*
D13*
X64293750Y-176212500D03*
D16*
X52128750Y-173672500D03*
X65055750Y-171132500D03*
%TD*%
D13*
%TO.C,S15*%
X101758750Y-138112500D03*
D14*
X103028750Y-135572500D03*
D15*
X106838750Y-138112500D03*
D14*
X109378750Y-133032500D03*
D13*
X111918750Y-138112500D03*
D16*
X99753750Y-135572500D03*
X112680750Y-133032500D03*
%TD*%
D13*
%TO.C,S17*%
X63658750Y-157162500D03*
D14*
X64928750Y-154622500D03*
D15*
X68738750Y-157162500D03*
D14*
X71278750Y-152082500D03*
D13*
X73818750Y-157162500D03*
D16*
X61653750Y-154622500D03*
X74580750Y-152082500D03*
%TD*%
D13*
%TO.C,S9*%
X63658750Y-119062500D03*
D14*
X64928750Y-116522500D03*
D15*
X68738750Y-119062500D03*
D14*
X71278750Y-113982500D03*
D13*
X73818750Y-119062500D03*
D16*
X61653750Y-116522500D03*
X74580750Y-113982500D03*
%TD*%
D13*
%TO.C,S10*%
X82708750Y-119062500D03*
D14*
X83978750Y-116522500D03*
D15*
X87788750Y-119062500D03*
D14*
X90328750Y-113982500D03*
D13*
X92868750Y-119062500D03*
D16*
X80703750Y-116522500D03*
X93630750Y-113982500D03*
%TD*%
D19*
%TO.C,J1*%
X58390000Y-40605000D03*
X52610000Y-40605000D03*
D20*
X59820000Y-41105000D03*
D21*
X59820000Y-36925000D03*
D20*
X51180000Y-41105000D03*
D21*
X51180000Y-36925000D03*
%TD*%
D13*
%TO.C,S16*%
X44608750Y-157162500D03*
D14*
X45878750Y-154622500D03*
D15*
X49688750Y-157162500D03*
D14*
X52228750Y-152082500D03*
D13*
X54768750Y-157162500D03*
D16*
X42603750Y-154622500D03*
X55530750Y-152082500D03*
%TD*%
D13*
%TO.C,S19*%
X101758750Y-166687500D03*
D14*
X103028750Y-164147500D03*
D15*
X106838750Y-166687500D03*
D14*
X109378750Y-161607500D03*
D13*
X111918750Y-166687500D03*
D16*
X99753750Y-164147500D03*
X112680750Y-161607500D03*
%TD*%
D18*
%TO.C,H3*%
X119600000Y-186450000D03*
%TD*%
D22*
%TO.C,D16*%
X59213750Y-160972500D03*
D23*
X59213750Y-153352500D03*
%TD*%
D22*
%TO.C,D5*%
X78263750Y-103822500D03*
D23*
X78263750Y-96202500D03*
%TD*%
D22*
%TO.C,D14*%
X97313750Y-141922500D03*
D23*
X97313750Y-134302500D03*
%TD*%
D22*
%TO.C,D9*%
X78263750Y-122872500D03*
D23*
X78263750Y-115252500D03*
%TD*%
D22*
%TO.C,D4*%
X59213750Y-103822500D03*
D23*
X59213750Y-96202500D03*
%TD*%
D22*
%TO.C,D1*%
X59213750Y-84772500D03*
D23*
X59213750Y-77152500D03*
%TD*%
D22*
%TO.C,D17*%
X78263750Y-160972500D03*
D23*
X78263750Y-153352500D03*
%TD*%
D22*
%TO.C,D19*%
X116363750Y-160972500D03*
D23*
X116363750Y-153352500D03*
%TD*%
D22*
%TO.C,D6*%
X97313750Y-103822500D03*
D23*
X97313750Y-96202500D03*
%TD*%
D22*
%TO.C,D10*%
X97313750Y-122872500D03*
D23*
X97313750Y-115252500D03*
%TD*%
D22*
%TO.C,D20*%
X78263750Y-180022500D03*
D23*
X78263750Y-172402500D03*
%TD*%
D22*
%TO.C,D21*%
X97313750Y-180022500D03*
D23*
X97313750Y-172402500D03*
%TD*%
D22*
%TO.C,D2*%
X78263750Y-84772500D03*
D23*
X78263750Y-77152500D03*
%TD*%
D22*
%TO.C,D3*%
X97313750Y-84772500D03*
D23*
X97313750Y-77152500D03*
%TD*%
D22*
%TO.C,D8*%
X59213750Y-122872500D03*
D23*
X59213750Y-115252500D03*
%TD*%
D22*
%TO.C,D15*%
X116363750Y-141922500D03*
D23*
X116363750Y-134302500D03*
%TD*%
D22*
%TO.C,D12*%
X59213750Y-141922500D03*
D23*
X59213750Y-134302500D03*
%TD*%
D22*
%TO.C,D11*%
X116363750Y-122872500D03*
D23*
X116363750Y-115252500D03*
%TD*%
D22*
%TO.C,D7*%
X116363750Y-103822500D03*
D23*
X116363750Y-96202500D03*
%TD*%
D22*
%TO.C,D18*%
X97313750Y-160972500D03*
D23*
X97313750Y-153352500D03*
%TD*%
D22*
%TO.C,D13*%
X78263750Y-141922500D03*
D23*
X78263750Y-134302500D03*
%TD*%
M02*
