M48
; DRILL file {KiCad 8.0.6} date 2024-12-09T21:01:51-0500
; FORMAT={-:-/ absolute / metric / decimal}
; #@! TF.CreationDate,2024-12-09T21:01:51-05:00
; #@! TF.GenerationSoftware,Kicad,Pcbnew,8.0.6
; #@! TF.FileFunction,Plated,1,4,PTH
FMAT,2
METRIC
; #@! TA.AperFunction,Plated,PTH,ViaDrill
T1C0.300
; #@! TA.AperFunction,Plated,PTH,ComponentDrill
T2C0.600
; #@! TA.AperFunction,Plated,PTH,ComponentDrill
T3C0.800
; #@! TA.AperFunction,Plated,PTH,ComponentDrill
T4C1.000
; #@! TA.AperFunction,Plated,PTH,ComponentDrill
T5C1.100
; #@! TA.AperFunction,Plated,PTH,ComponentDrill
T6C2.000
%
G90
G05
T1
X41.0Y-49.25
X41.6Y-53.2
X49.181Y-36.25
X51.6Y-49.2
X51.75Y-43.25
X53.4Y-54.2
X55.5Y-44.425
X59.2Y-46.6
X59.5Y-43.25
X60.0Y-60.4
X61.8Y-59.2
X61.9Y-36.6
X62.5Y-48.4
X64.5Y-52.0
X64.7Y-57.2
X69.4Y-63.8
X70.2Y-48.0
X70.4Y-49.4
X70.75Y-46.75
X72.0Y-49.9
X72.2Y-62.4
X72.3Y-52.09
X72.3Y-57.0
X75.5Y-48.75
X75.6Y-47.4
X75.75Y-46.4
X76.0Y-50.25
X78.1Y-52.2
X78.8Y-51.1
X79.2Y-59.6
X80.191Y-62.891
X80.3Y-57.31
X80.8Y-46.4
X80.95Y-59.85
X81.04Y-61.213
X98.5Y-80.9
X99.1Y-61.0
X106.5Y-70.25
X108.625Y-70.125
X108.8Y-47.2
X110.2Y-48.4
X117.3Y-51.5
X117.4Y-46.0
X120.1Y-54.4
X120.3Y-62.1
T3
X59.214Y-77.153
X59.214Y-84.772
X59.214Y-96.203
X59.214Y-103.822
X59.214Y-115.252
X59.214Y-122.872
X59.214Y-134.302
X59.214Y-141.922
X59.214Y-153.352
X59.214Y-160.972
X78.264Y-77.153
X78.264Y-84.772
X78.264Y-96.203
X78.264Y-103.822
X78.264Y-115.252
X78.264Y-122.872
X78.264Y-134.302
X78.264Y-141.922
X78.264Y-153.352
X78.264Y-160.972
X78.264Y-172.403
X78.264Y-180.022
X97.314Y-77.153
X97.314Y-84.772
X97.314Y-96.203
X97.314Y-103.822
X97.314Y-115.252
X97.314Y-122.872
X97.314Y-134.302
X97.314Y-141.922
X97.314Y-153.352
X97.314Y-160.972
X97.314Y-172.403
X97.314Y-180.022
X116.364Y-96.203
X116.364Y-103.822
X116.364Y-115.252
X116.364Y-122.872
X116.364Y-134.302
X116.364Y-141.922
X116.364Y-153.352
X116.364Y-160.972
T4
X122.3Y-54.38
X122.3Y-56.92
X122.3Y-59.46
X122.3Y-62.0
T5
X104.339Y-73.462
X104.339Y-87.962
X106.839Y-73.462
X109.339Y-73.462
X109.339Y-87.962
T2
G00X51.18Y-37.325
M15
G01X51.18Y-36.525
M16
G05
G00X51.18Y-41.655
M15
G01X51.18Y-40.555
M16
G05
G00X59.82Y-37.325
M15
G01X59.82Y-36.525
M16
G05
G00X59.82Y-41.655
M15
G01X59.82Y-40.555
M16
G05
T6
G00X101.139Y-81.362
M15
G01X101.139Y-80.562
M16
G05
G00X112.539Y-81.362
M15
G01X112.539Y-80.562
M16
G05
M30
