%TF.GenerationSoftware,KiCad,Pcbnew,8.0.6*%
%TF.CreationDate,2024-12-09T21:02:00-05:00*%
%TF.ProjectId,kiCAD Keypad,6b694341-4420-44b6-9579-7061642e6b69,rev?*%
%TF.SameCoordinates,Original*%
%TF.FileFunction,Paste,Top*%
%TF.FilePolarity,Positive*%
%FSLAX46Y46*%
G04 Gerber Fmt 4.6, Leading zero omitted, Abs format (unit mm)*
G04 Created by KiCad (PCBNEW 8.0.6) date 2024-12-09 21:02:00*
%MOMM*%
%LPD*%
G01*
G04 APERTURE LIST*
G04 Aperture macros list*
%AMRoundRect*
0 Rectangle with rounded corners*
0 $1 Rounding radius*
0 $2 $3 $4 $5 $6 $7 $8 $9 X,Y pos of 4 corners*
0 Add a 4 corners polygon primitive as box body*
4,1,4,$2,$3,$4,$5,$6,$7,$8,$9,$2,$3,0*
0 Add four circle primitives for the rounded corners*
1,1,$1+$1,$2,$3*
1,1,$1+$1,$4,$5*
1,1,$1+$1,$6,$7*
1,1,$1+$1,$8,$9*
0 Add four rect primitives between the rounded corners*
20,1,$1+$1,$2,$3,$4,$5,0*
20,1,$1+$1,$4,$5,$6,$7,0*
20,1,$1+$1,$6,$7,$8,$9,0*
20,1,$1+$1,$8,$9,$2,$3,0*%
%AMOutline5P*
0 Free polygon, 5 corners , with rotation*
0 The origin of the aperture is its center*
0 number of corners: always 5*
0 $1 to $10 corner X, Y*
0 $11 Rotation angle, in degrees counterclockwise*
0 create outline with 5 corners*
4,1,5,$1,$2,$3,$4,$5,$6,$7,$8,$9,$10,$1,$2,$11*%
%AMOutline6P*
0 Free polygon, 6 corners , with rotation*
0 The origin of the aperture is its center*
0 number of corners: always 6*
0 $1 to $12 corner X, Y*
0 $13 Rotation angle, in degrees counterclockwise*
0 create outline with 6 corners*
4,1,6,$1,$2,$3,$4,$5,$6,$7,$8,$9,$10,$11,$12,$1,$2,$13*%
%AMOutline7P*
0 Free polygon, 7 corners , with rotation*
0 The origin of the aperture is its center*
0 number of corners: always 7*
0 $1 to $14 corner X, Y*
0 $15 Rotation angle, in degrees counterclockwise*
0 create outline with 7 corners*
4,1,7,$1,$2,$3,$4,$5,$6,$7,$8,$9,$10,$11,$12,$13,$14,$1,$2,$15*%
%AMOutline8P*
0 Free polygon, 8 corners , with rotation*
0 The origin of the aperture is its center*
0 number of corners: always 8*
0 $1 to $16 corner X, Y*
0 $17 Rotation angle, in degrees counterclockwise*
0 create outline with 8 corners*
4,1,8,$1,$2,$3,$4,$5,$6,$7,$8,$9,$10,$11,$12,$13,$14,$15,$16,$1,$2,$17*%
G04 Aperture macros list end*
%ADD10RoundRect,0.140000X-0.170000X0.140000X-0.170000X-0.140000X0.170000X-0.140000X0.170000X0.140000X0*%
%ADD11RoundRect,0.250000X0.250000X-0.525000X0.250000X0.525000X-0.250000X0.525000X-0.250000X-0.525000X0*%
%ADD12RoundRect,0.135000X-0.185000X0.135000X-0.185000X-0.135000X0.185000X-0.135000X0.185000X0.135000X0*%
%ADD13R,0.800000X0.400000*%
%ADD14R,0.400000X0.800000*%
%ADD15Outline5P,-0.600000X0.204000X-0.204000X0.600000X0.600000X0.600000X0.600000X-0.600000X-0.600000X-0.600000X0.000000*%
%ADD16R,1.200000X1.200000*%
%ADD17R,0.800000X0.800000*%
%ADD18RoundRect,0.150000X-0.512500X-0.150000X0.512500X-0.150000X0.512500X0.150000X-0.512500X0.150000X0*%
%ADD19R,3.000000X1.000000*%
%ADD20RoundRect,0.135000X0.185000X-0.135000X0.185000X0.135000X-0.185000X0.135000X-0.185000X-0.135000X0*%
%ADD21RoundRect,0.135000X-0.135000X-0.185000X0.135000X-0.185000X0.135000X0.185000X-0.135000X0.185000X0*%
%ADD22RoundRect,0.250000X-0.475000X0.250000X-0.475000X-0.250000X0.475000X-0.250000X0.475000X0.250000X0*%
%ADD23RoundRect,0.250000X0.250000X0.475000X-0.250000X0.475000X-0.250000X-0.475000X0.250000X-0.475000X0*%
%ADD24RoundRect,0.147500X-0.147500X-0.172500X0.147500X-0.172500X0.147500X0.172500X-0.147500X0.172500X0*%
%ADD25RoundRect,0.250000X0.475000X-0.250000X0.475000X0.250000X-0.475000X0.250000X-0.475000X-0.250000X0*%
%ADD26RoundRect,0.140000X0.170000X-0.140000X0.170000X0.140000X-0.170000X0.140000X-0.170000X-0.140000X0*%
%ADD27RoundRect,0.150000X0.150000X0.350000X-0.150000X0.350000X-0.150000X-0.350000X0.150000X-0.350000X0*%
%ADD28RoundRect,0.150000X0.150000X0.425000X-0.150000X0.425000X-0.150000X-0.425000X0.150000X-0.425000X0*%
%ADD29RoundRect,0.075000X0.075000X0.500000X-0.075000X0.500000X-0.075000X-0.500000X0.075000X-0.500000X0*%
%ADD30O,1.000000X2.100000*%
%ADD31O,1.000000X1.800000*%
%ADD32RoundRect,0.135000X0.135000X0.185000X-0.135000X0.185000X-0.135000X-0.185000X0.135000X-0.185000X0*%
%ADD33RoundRect,0.150000X-0.150000X0.512500X-0.150000X-0.512500X0.150000X-0.512500X0.150000X0.512500X0*%
G04 APERTURE END LIST*
D10*
%TO.C,C3*%
X110000000Y-46980000D03*
X110000000Y-46020000D03*
%TD*%
D11*
%TO.C,SW1*%
X115800000Y-46075000D03*
X115800000Y-51325000D03*
X112600000Y-46075000D03*
X112600000Y-51325000D03*
%TD*%
D12*
%TO.C,R1*%
X110200000Y-50410000D03*
X110200000Y-49390000D03*
%TD*%
D13*
%TO.C,U3*%
X84450000Y-46700000D03*
X84450000Y-47550000D03*
X84450000Y-48400000D03*
X84450000Y-49250000D03*
X84450000Y-50100000D03*
X84450000Y-50950000D03*
X84450000Y-51800000D03*
X84450000Y-52650000D03*
X84450000Y-53500000D03*
X84450000Y-54350000D03*
X84450000Y-55200000D03*
X84450000Y-56050000D03*
X84450000Y-56900000D03*
X84450000Y-57750000D03*
X84450000Y-58600000D03*
D14*
X85500000Y-59650000D03*
X86350000Y-59650000D03*
X87200000Y-59650000D03*
X88050000Y-59650000D03*
X88900000Y-59650000D03*
X89750000Y-59650000D03*
X90600000Y-59650000D03*
X91450000Y-59650000D03*
X92300000Y-59650000D03*
X93150000Y-59650000D03*
X94000000Y-59650000D03*
X94850000Y-59650000D03*
X95700000Y-59650000D03*
X96550000Y-59650000D03*
X97400000Y-59650000D03*
D13*
X98450000Y-58600000D03*
X98450000Y-57750000D03*
X98450000Y-56900000D03*
X98450000Y-56050000D03*
X98450000Y-55200000D03*
X98450000Y-54350000D03*
X98450000Y-53500000D03*
X98450000Y-52650000D03*
X98450000Y-51800000D03*
X98450000Y-50950000D03*
X98450000Y-50100000D03*
X98450000Y-49250000D03*
X98450000Y-48400000D03*
X98450000Y-47550000D03*
X98450000Y-46700000D03*
D14*
X97400000Y-45650000D03*
X96550000Y-45650000D03*
X95700000Y-45650000D03*
X94850000Y-45650000D03*
X94000000Y-45650000D03*
X93150000Y-45650000D03*
X92300000Y-45650000D03*
X91450000Y-45650000D03*
X90600000Y-45650000D03*
X89750000Y-45650000D03*
X88900000Y-45650000D03*
X88050000Y-45650000D03*
X87200000Y-45650000D03*
X86350000Y-45650000D03*
X85500000Y-45650000D03*
D15*
X89800000Y-51000000D03*
D16*
X89800000Y-52650000D03*
X89800000Y-54300000D03*
X91450000Y-51000000D03*
X91450000Y-52650000D03*
X91450000Y-54300000D03*
X93100000Y-51000000D03*
X93100000Y-52650000D03*
X93100000Y-54300000D03*
D17*
X84450000Y-45650000D03*
X84450000Y-59650000D03*
X98450000Y-59650000D03*
X98450000Y-45650000D03*
%TD*%
D18*
%TO.C,U4*%
X63700000Y-47450000D03*
X63700000Y-48400000D03*
X63700000Y-49350000D03*
X65975000Y-49350000D03*
X65975000Y-47450000D03*
%TD*%
D11*
%TO.C,SW2*%
X66100000Y-57225000D03*
X66100000Y-51975000D03*
X69300000Y-57225000D03*
X69300000Y-51975000D03*
%TD*%
D19*
%TO.C,J3*%
X49120000Y-49110000D03*
X44080000Y-49110000D03*
X49120000Y-51650000D03*
X44080000Y-51650000D03*
X49120000Y-54190000D03*
X44080000Y-54190000D03*
X49120000Y-56730000D03*
X44080000Y-56730000D03*
X49120000Y-59270000D03*
X44080000Y-59270000D03*
X49120000Y-61810000D03*
X44080000Y-61810000D03*
X49120000Y-64350000D03*
X44080000Y-64350000D03*
X49120000Y-66890000D03*
X44080000Y-66890000D03*
%TD*%
D20*
%TO.C,R3*%
X49200000Y-38710000D03*
X49200000Y-37690000D03*
%TD*%
%TO.C,R4*%
X61800000Y-38710000D03*
X61800000Y-37690000D03*
%TD*%
D21*
%TO.C,R6*%
X108000000Y-71437500D03*
X109020000Y-71437500D03*
%TD*%
D22*
%TO.C,C6*%
X68750000Y-49200000D03*
X68750000Y-47300000D03*
%TD*%
D12*
%TO.C,R2*%
X72300000Y-52990000D03*
X72300000Y-54010000D03*
%TD*%
D23*
%TO.C,C5*%
X59050000Y-48250000D03*
X60950000Y-48250000D03*
%TD*%
D24*
%TO.C,D22*%
X84530000Y-62800000D03*
X85500000Y-62800000D03*
%TD*%
D21*
%TO.C,R5*%
X105490000Y-71437500D03*
X106510000Y-71437500D03*
%TD*%
D25*
%TO.C,C2*%
X77250000Y-48950000D03*
X77250000Y-47050000D03*
%TD*%
D26*
%TO.C,C1*%
X81250000Y-48380000D03*
X81250000Y-47420000D03*
%TD*%
D27*
%TO.C,J1*%
X58700000Y-41755000D03*
D28*
X57900000Y-41680000D03*
D29*
X56750000Y-41680000D03*
X55750000Y-41680000D03*
X55250000Y-41680000D03*
X54250000Y-41680000D03*
D28*
X53100000Y-41680000D03*
D27*
X52300000Y-41755000D03*
X52300000Y-41755000D03*
D28*
X53100000Y-41680000D03*
D29*
X53750000Y-41680000D03*
X54750000Y-41680000D03*
X56250000Y-41680000D03*
X57250000Y-41680000D03*
D28*
X57900000Y-41680000D03*
D27*
X58700000Y-41755000D03*
D30*
X59820000Y-41105000D03*
D31*
X59820000Y-36925000D03*
D30*
X51180000Y-41105000D03*
D31*
X51180000Y-36925000D03*
%TD*%
D32*
%TO.C,R7*%
X82775000Y-62800000D03*
X81755000Y-62800000D03*
%TD*%
D26*
%TO.C,C4*%
X72300000Y-56090000D03*
X72300000Y-55130000D03*
%TD*%
D33*
%TO.C,U2*%
X56450000Y-48512500D03*
X55500000Y-48512500D03*
X54550000Y-48512500D03*
X54550000Y-46237500D03*
X55500000Y-46237500D03*
X56450000Y-46237500D03*
%TD*%
M02*
