%TF.GenerationSoftware,KiCad,Pcbnew,8.0.6*%
%TF.CreationDate,2024-12-22T21:39:13-05:00*%
%TF.ProjectId,Keypad 2.0,4b657970-6164-4203-922e-302e6b696361,rev?*%
%TF.SameCoordinates,Original*%
%TF.FileFunction,Legend,Bot*%
%TF.FilePolarity,Positive*%
%FSLAX46Y46*%
G04 Gerber Fmt 4.6, Leading zero omitted, Abs format (unit mm)*
G04 Created by KiCad (PCBNEW 8.0.6) date 2024-12-22 21:39:13*
%MOMM*%
%LPD*%
G01*
G04 APERTURE LIST*
%ADD10C,0.200000*%
%ADD11C,0.100000*%
%ADD12C,0.120000*%
G04 APERTURE END LIST*
D10*
X116209435Y-49944719D02*
X116780863Y-49944719D01*
X116495149Y-49944719D02*
X116495149Y-48944719D01*
X116495149Y-48944719D02*
X116590387Y-49087576D01*
X116590387Y-49087576D02*
X116685625Y-49182814D01*
X116685625Y-49182814D02*
X116780863Y-49230433D01*
X115304673Y-48944719D02*
X115780863Y-48944719D01*
X115780863Y-48944719D02*
X115828482Y-49420909D01*
X115828482Y-49420909D02*
X115780863Y-49373290D01*
X115780863Y-49373290D02*
X115685625Y-49325671D01*
X115685625Y-49325671D02*
X115447530Y-49325671D01*
X115447530Y-49325671D02*
X115352292Y-49373290D01*
X115352292Y-49373290D02*
X115304673Y-49420909D01*
X115304673Y-49420909D02*
X115257054Y-49516147D01*
X115257054Y-49516147D02*
X115257054Y-49754242D01*
X115257054Y-49754242D02*
X115304673Y-49849480D01*
X115304673Y-49849480D02*
X115352292Y-49897100D01*
X115352292Y-49897100D02*
X115447530Y-49944719D01*
X115447530Y-49944719D02*
X115685625Y-49944719D01*
X115685625Y-49944719D02*
X115780863Y-49897100D01*
X115780863Y-49897100D02*
X115828482Y-49849480D01*
X116971340Y-34704719D02*
X117304673Y-34228528D01*
X117542768Y-34704719D02*
X117542768Y-33704719D01*
X117542768Y-33704719D02*
X117161816Y-33704719D01*
X117161816Y-33704719D02*
X117066578Y-33752338D01*
X117066578Y-33752338D02*
X117018959Y-33799957D01*
X117018959Y-33799957D02*
X116971340Y-33895195D01*
X116971340Y-33895195D02*
X116971340Y-34038052D01*
X116971340Y-34038052D02*
X117018959Y-34133290D01*
X117018959Y-34133290D02*
X117066578Y-34180909D01*
X117066578Y-34180909D02*
X117161816Y-34228528D01*
X117161816Y-34228528D02*
X117542768Y-34228528D01*
X116590387Y-34657100D02*
X116447530Y-34704719D01*
X116447530Y-34704719D02*
X116209435Y-34704719D01*
X116209435Y-34704719D02*
X116114197Y-34657100D01*
X116114197Y-34657100D02*
X116066578Y-34609480D01*
X116066578Y-34609480D02*
X116018959Y-34514242D01*
X116018959Y-34514242D02*
X116018959Y-34419004D01*
X116018959Y-34419004D02*
X116066578Y-34323766D01*
X116066578Y-34323766D02*
X116114197Y-34276147D01*
X116114197Y-34276147D02*
X116209435Y-34228528D01*
X116209435Y-34228528D02*
X116399911Y-34180909D01*
X116399911Y-34180909D02*
X116495149Y-34133290D01*
X116495149Y-34133290D02*
X116542768Y-34085671D01*
X116542768Y-34085671D02*
X116590387Y-33990433D01*
X116590387Y-33990433D02*
X116590387Y-33895195D01*
X116590387Y-33895195D02*
X116542768Y-33799957D01*
X116542768Y-33799957D02*
X116495149Y-33752338D01*
X116495149Y-33752338D02*
X116399911Y-33704719D01*
X116399911Y-33704719D02*
X116161816Y-33704719D01*
X116161816Y-33704719D02*
X116018959Y-33752338D01*
X115733244Y-33704719D02*
X115161816Y-33704719D01*
X115447530Y-34704719D02*
X115447530Y-33704719D01*
X94340564Y-41324719D02*
X93721517Y-41324719D01*
X93721517Y-41324719D02*
X94054850Y-41705671D01*
X94054850Y-41705671D02*
X93911993Y-41705671D01*
X93911993Y-41705671D02*
X93816755Y-41753290D01*
X93816755Y-41753290D02*
X93769136Y-41800909D01*
X93769136Y-41800909D02*
X93721517Y-41896147D01*
X93721517Y-41896147D02*
X93721517Y-42134242D01*
X93721517Y-42134242D02*
X93769136Y-42229480D01*
X93769136Y-42229480D02*
X93816755Y-42277100D01*
X93816755Y-42277100D02*
X93911993Y-42324719D01*
X93911993Y-42324719D02*
X94197707Y-42324719D01*
X94197707Y-42324719D02*
X94292945Y-42277100D01*
X94292945Y-42277100D02*
X94340564Y-42229480D01*
X116780863Y-41419957D02*
X116733244Y-41372338D01*
X116733244Y-41372338D02*
X116638006Y-41324719D01*
X116638006Y-41324719D02*
X116399911Y-41324719D01*
X116399911Y-41324719D02*
X116304673Y-41372338D01*
X116304673Y-41372338D02*
X116257054Y-41419957D01*
X116257054Y-41419957D02*
X116209435Y-41515195D01*
X116209435Y-41515195D02*
X116209435Y-41610433D01*
X116209435Y-41610433D02*
X116257054Y-41753290D01*
X116257054Y-41753290D02*
X116828482Y-42324719D01*
X116828482Y-42324719D02*
X116209435Y-42324719D01*
X115590387Y-41324719D02*
X115495149Y-41324719D01*
X115495149Y-41324719D02*
X115399911Y-41372338D01*
X115399911Y-41372338D02*
X115352292Y-41419957D01*
X115352292Y-41419957D02*
X115304673Y-41515195D01*
X115304673Y-41515195D02*
X115257054Y-41705671D01*
X115257054Y-41705671D02*
X115257054Y-41943766D01*
X115257054Y-41943766D02*
X115304673Y-42134242D01*
X115304673Y-42134242D02*
X115352292Y-42229480D01*
X115352292Y-42229480D02*
X115399911Y-42277100D01*
X115399911Y-42277100D02*
X115495149Y-42324719D01*
X115495149Y-42324719D02*
X115590387Y-42324719D01*
X115590387Y-42324719D02*
X115685625Y-42277100D01*
X115685625Y-42277100D02*
X115733244Y-42229480D01*
X115733244Y-42229480D02*
X115780863Y-42134242D01*
X115780863Y-42134242D02*
X115828482Y-41943766D01*
X115828482Y-41943766D02*
X115828482Y-41705671D01*
X115828482Y-41705671D02*
X115780863Y-41515195D01*
X115780863Y-41515195D02*
X115733244Y-41419957D01*
X115733244Y-41419957D02*
X115685625Y-41372338D01*
X115685625Y-41372338D02*
X115590387Y-41324719D01*
X94197707Y-57564719D02*
X94007231Y-57564719D01*
X94007231Y-57564719D02*
X93911993Y-57517100D01*
X93911993Y-57517100D02*
X93864374Y-57469480D01*
X93864374Y-57469480D02*
X93769136Y-57326623D01*
X93769136Y-57326623D02*
X93721517Y-57136147D01*
X93721517Y-57136147D02*
X93721517Y-56755195D01*
X93721517Y-56755195D02*
X93769136Y-56659957D01*
X93769136Y-56659957D02*
X93816755Y-56612338D01*
X93816755Y-56612338D02*
X93911993Y-56564719D01*
X93911993Y-56564719D02*
X94102469Y-56564719D01*
X94102469Y-56564719D02*
X94197707Y-56612338D01*
X94197707Y-56612338D02*
X94245326Y-56659957D01*
X94245326Y-56659957D02*
X94292945Y-56755195D01*
X94292945Y-56755195D02*
X94292945Y-56993290D01*
X94292945Y-56993290D02*
X94245326Y-57088528D01*
X94245326Y-57088528D02*
X94197707Y-57136147D01*
X94197707Y-57136147D02*
X94102469Y-57183766D01*
X94102469Y-57183766D02*
X93911993Y-57183766D01*
X93911993Y-57183766D02*
X93816755Y-57136147D01*
X93816755Y-57136147D02*
X93769136Y-57088528D01*
X93769136Y-57088528D02*
X93721517Y-56993290D01*
X99409285Y-55024719D02*
X99980713Y-55024719D01*
X99694999Y-55024719D02*
X99694999Y-54024719D01*
X99694999Y-54024719D02*
X99790237Y-54167576D01*
X99790237Y-54167576D02*
X99885475Y-54262814D01*
X99885475Y-54262814D02*
X99980713Y-54310433D01*
X93816755Y-48944719D02*
X94007231Y-48944719D01*
X94007231Y-48944719D02*
X94102469Y-48992338D01*
X94102469Y-48992338D02*
X94150088Y-49039957D01*
X94150088Y-49039957D02*
X94245326Y-49182814D01*
X94245326Y-49182814D02*
X94292945Y-49373290D01*
X94292945Y-49373290D02*
X94292945Y-49754242D01*
X94292945Y-49754242D02*
X94245326Y-49849480D01*
X94245326Y-49849480D02*
X94197707Y-49897100D01*
X94197707Y-49897100D02*
X94102469Y-49944719D01*
X94102469Y-49944719D02*
X93911993Y-49944719D01*
X93911993Y-49944719D02*
X93816755Y-49897100D01*
X93816755Y-49897100D02*
X93769136Y-49849480D01*
X93769136Y-49849480D02*
X93721517Y-49754242D01*
X93721517Y-49754242D02*
X93721517Y-49516147D01*
X93721517Y-49516147D02*
X93769136Y-49420909D01*
X93769136Y-49420909D02*
X93816755Y-49373290D01*
X93816755Y-49373290D02*
X93911993Y-49325671D01*
X93911993Y-49325671D02*
X94102469Y-49325671D01*
X94102469Y-49325671D02*
X94197707Y-49373290D01*
X94197707Y-49373290D02*
X94245326Y-49420909D01*
X94245326Y-49420909D02*
X94292945Y-49516147D01*
X117352292Y-31212338D02*
X117447530Y-31164719D01*
X117447530Y-31164719D02*
X117590387Y-31164719D01*
X117590387Y-31164719D02*
X117733244Y-31212338D01*
X117733244Y-31212338D02*
X117828482Y-31307576D01*
X117828482Y-31307576D02*
X117876101Y-31402814D01*
X117876101Y-31402814D02*
X117923720Y-31593290D01*
X117923720Y-31593290D02*
X117923720Y-31736147D01*
X117923720Y-31736147D02*
X117876101Y-31926623D01*
X117876101Y-31926623D02*
X117828482Y-32021861D01*
X117828482Y-32021861D02*
X117733244Y-32117100D01*
X117733244Y-32117100D02*
X117590387Y-32164719D01*
X117590387Y-32164719D02*
X117495149Y-32164719D01*
X117495149Y-32164719D02*
X117352292Y-32117100D01*
X117352292Y-32117100D02*
X117304673Y-32069480D01*
X117304673Y-32069480D02*
X117304673Y-31736147D01*
X117304673Y-31736147D02*
X117495149Y-31736147D01*
X116876101Y-32164719D02*
X116876101Y-31164719D01*
X116876101Y-31164719D02*
X116304673Y-32164719D01*
X116304673Y-32164719D02*
X116304673Y-31164719D01*
X115828482Y-32164719D02*
X115828482Y-31164719D01*
X115828482Y-31164719D02*
X115590387Y-31164719D01*
X115590387Y-31164719D02*
X115447530Y-31212338D01*
X115447530Y-31212338D02*
X115352292Y-31307576D01*
X115352292Y-31307576D02*
X115304673Y-31402814D01*
X115304673Y-31402814D02*
X115257054Y-31593290D01*
X115257054Y-31593290D02*
X115257054Y-31736147D01*
X115257054Y-31736147D02*
X115304673Y-31926623D01*
X115304673Y-31926623D02*
X115352292Y-32021861D01*
X115352292Y-32021861D02*
X115447530Y-32117100D01*
X115447530Y-32117100D02*
X115590387Y-32164719D01*
X115590387Y-32164719D02*
X115828482Y-32164719D01*
X94340564Y-51484719D02*
X93673898Y-51484719D01*
X93673898Y-51484719D02*
X94102469Y-52484719D01*
X116209435Y-47404719D02*
X116780863Y-47404719D01*
X116495149Y-47404719D02*
X116495149Y-46404719D01*
X116495149Y-46404719D02*
X116590387Y-46547576D01*
X116590387Y-46547576D02*
X116685625Y-46642814D01*
X116685625Y-46642814D02*
X116780863Y-46690433D01*
X115638006Y-46833290D02*
X115733244Y-46785671D01*
X115733244Y-46785671D02*
X115780863Y-46738052D01*
X115780863Y-46738052D02*
X115828482Y-46642814D01*
X115828482Y-46642814D02*
X115828482Y-46595195D01*
X115828482Y-46595195D02*
X115780863Y-46499957D01*
X115780863Y-46499957D02*
X115733244Y-46452338D01*
X115733244Y-46452338D02*
X115638006Y-46404719D01*
X115638006Y-46404719D02*
X115447530Y-46404719D01*
X115447530Y-46404719D02*
X115352292Y-46452338D01*
X115352292Y-46452338D02*
X115304673Y-46499957D01*
X115304673Y-46499957D02*
X115257054Y-46595195D01*
X115257054Y-46595195D02*
X115257054Y-46642814D01*
X115257054Y-46642814D02*
X115304673Y-46738052D01*
X115304673Y-46738052D02*
X115352292Y-46785671D01*
X115352292Y-46785671D02*
X115447530Y-46833290D01*
X115447530Y-46833290D02*
X115638006Y-46833290D01*
X115638006Y-46833290D02*
X115733244Y-46880909D01*
X115733244Y-46880909D02*
X115780863Y-46928528D01*
X115780863Y-46928528D02*
X115828482Y-47023766D01*
X115828482Y-47023766D02*
X115828482Y-47214242D01*
X115828482Y-47214242D02*
X115780863Y-47309480D01*
X115780863Y-47309480D02*
X115733244Y-47357100D01*
X115733244Y-47357100D02*
X115638006Y-47404719D01*
X115638006Y-47404719D02*
X115447530Y-47404719D01*
X115447530Y-47404719D02*
X115352292Y-47357100D01*
X115352292Y-47357100D02*
X115304673Y-47309480D01*
X115304673Y-47309480D02*
X115257054Y-47214242D01*
X115257054Y-47214242D02*
X115257054Y-47023766D01*
X115257054Y-47023766D02*
X115304673Y-46928528D01*
X115304673Y-46928528D02*
X115352292Y-46880909D01*
X115352292Y-46880909D02*
X115447530Y-46833290D01*
X118066577Y-36244719D02*
X117447530Y-36244719D01*
X117447530Y-36244719D02*
X117780863Y-36625671D01*
X117780863Y-36625671D02*
X117638006Y-36625671D01*
X117638006Y-36625671D02*
X117542768Y-36673290D01*
X117542768Y-36673290D02*
X117495149Y-36720909D01*
X117495149Y-36720909D02*
X117447530Y-36816147D01*
X117447530Y-36816147D02*
X117447530Y-37054242D01*
X117447530Y-37054242D02*
X117495149Y-37149480D01*
X117495149Y-37149480D02*
X117542768Y-37197100D01*
X117542768Y-37197100D02*
X117638006Y-37244719D01*
X117638006Y-37244719D02*
X117923720Y-37244719D01*
X117923720Y-37244719D02*
X118018958Y-37197100D01*
X118018958Y-37197100D02*
X118066577Y-37149480D01*
X117018958Y-37149480D02*
X116971339Y-37197100D01*
X116971339Y-37197100D02*
X117018958Y-37244719D01*
X117018958Y-37244719D02*
X117066577Y-37197100D01*
X117066577Y-37197100D02*
X117018958Y-37149480D01*
X117018958Y-37149480D02*
X117018958Y-37244719D01*
X116638006Y-36244719D02*
X116018959Y-36244719D01*
X116018959Y-36244719D02*
X116352292Y-36625671D01*
X116352292Y-36625671D02*
X116209435Y-36625671D01*
X116209435Y-36625671D02*
X116114197Y-36673290D01*
X116114197Y-36673290D02*
X116066578Y-36720909D01*
X116066578Y-36720909D02*
X116018959Y-36816147D01*
X116018959Y-36816147D02*
X116018959Y-37054242D01*
X116018959Y-37054242D02*
X116066578Y-37149480D01*
X116066578Y-37149480D02*
X116114197Y-37197100D01*
X116114197Y-37197100D02*
X116209435Y-37244719D01*
X116209435Y-37244719D02*
X116495149Y-37244719D01*
X116495149Y-37244719D02*
X116590387Y-37197100D01*
X116590387Y-37197100D02*
X116638006Y-37149480D01*
X115685625Y-36578052D02*
X115447530Y-37244719D01*
X115447530Y-37244719D02*
X115209435Y-36578052D01*
X94292945Y-38879957D02*
X94245326Y-38832338D01*
X94245326Y-38832338D02*
X94150088Y-38784719D01*
X94150088Y-38784719D02*
X93911993Y-38784719D01*
X93911993Y-38784719D02*
X93816755Y-38832338D01*
X93816755Y-38832338D02*
X93769136Y-38879957D01*
X93769136Y-38879957D02*
X93721517Y-38975195D01*
X93721517Y-38975195D02*
X93721517Y-39070433D01*
X93721517Y-39070433D02*
X93769136Y-39213290D01*
X93769136Y-39213290D02*
X94340564Y-39784719D01*
X94340564Y-39784719D02*
X93721517Y-39784719D01*
X102520713Y-54119957D02*
X102473094Y-54072338D01*
X102473094Y-54072338D02*
X102377856Y-54024719D01*
X102377856Y-54024719D02*
X102139761Y-54024719D01*
X102139761Y-54024719D02*
X102044523Y-54072338D01*
X102044523Y-54072338D02*
X101996904Y-54119957D01*
X101996904Y-54119957D02*
X101949285Y-54215195D01*
X101949285Y-54215195D02*
X101949285Y-54310433D01*
X101949285Y-54310433D02*
X101996904Y-54453290D01*
X101996904Y-54453290D02*
X102568332Y-55024719D01*
X102568332Y-55024719D02*
X101949285Y-55024719D01*
X116209435Y-44864719D02*
X116780863Y-44864719D01*
X116495149Y-44864719D02*
X116495149Y-43864719D01*
X116495149Y-43864719D02*
X116590387Y-44007576D01*
X116590387Y-44007576D02*
X116685625Y-44102814D01*
X116685625Y-44102814D02*
X116780863Y-44150433D01*
X115733244Y-44864719D02*
X115542768Y-44864719D01*
X115542768Y-44864719D02*
X115447530Y-44817100D01*
X115447530Y-44817100D02*
X115399911Y-44769480D01*
X115399911Y-44769480D02*
X115304673Y-44626623D01*
X115304673Y-44626623D02*
X115257054Y-44436147D01*
X115257054Y-44436147D02*
X115257054Y-44055195D01*
X115257054Y-44055195D02*
X115304673Y-43959957D01*
X115304673Y-43959957D02*
X115352292Y-43912338D01*
X115352292Y-43912338D02*
X115447530Y-43864719D01*
X115447530Y-43864719D02*
X115638006Y-43864719D01*
X115638006Y-43864719D02*
X115733244Y-43912338D01*
X115733244Y-43912338D02*
X115780863Y-43959957D01*
X115780863Y-43959957D02*
X115828482Y-44055195D01*
X115828482Y-44055195D02*
X115828482Y-44293290D01*
X115828482Y-44293290D02*
X115780863Y-44388528D01*
X115780863Y-44388528D02*
X115733244Y-44436147D01*
X115733244Y-44436147D02*
X115638006Y-44483766D01*
X115638006Y-44483766D02*
X115447530Y-44483766D01*
X115447530Y-44483766D02*
X115352292Y-44436147D01*
X115352292Y-44436147D02*
X115304673Y-44388528D01*
X115304673Y-44388528D02*
X115257054Y-44293290D01*
X94102469Y-54453290D02*
X94197707Y-54405671D01*
X94197707Y-54405671D02*
X94245326Y-54358052D01*
X94245326Y-54358052D02*
X94292945Y-54262814D01*
X94292945Y-54262814D02*
X94292945Y-54215195D01*
X94292945Y-54215195D02*
X94245326Y-54119957D01*
X94245326Y-54119957D02*
X94197707Y-54072338D01*
X94197707Y-54072338D02*
X94102469Y-54024719D01*
X94102469Y-54024719D02*
X93911993Y-54024719D01*
X93911993Y-54024719D02*
X93816755Y-54072338D01*
X93816755Y-54072338D02*
X93769136Y-54119957D01*
X93769136Y-54119957D02*
X93721517Y-54215195D01*
X93721517Y-54215195D02*
X93721517Y-54262814D01*
X93721517Y-54262814D02*
X93769136Y-54358052D01*
X93769136Y-54358052D02*
X93816755Y-54405671D01*
X93816755Y-54405671D02*
X93911993Y-54453290D01*
X93911993Y-54453290D02*
X94102469Y-54453290D01*
X94102469Y-54453290D02*
X94197707Y-54500909D01*
X94197707Y-54500909D02*
X94245326Y-54548528D01*
X94245326Y-54548528D02*
X94292945Y-54643766D01*
X94292945Y-54643766D02*
X94292945Y-54834242D01*
X94292945Y-54834242D02*
X94245326Y-54929480D01*
X94245326Y-54929480D02*
X94197707Y-54977100D01*
X94197707Y-54977100D02*
X94102469Y-55024719D01*
X94102469Y-55024719D02*
X93911993Y-55024719D01*
X93911993Y-55024719D02*
X93816755Y-54977100D01*
X93816755Y-54977100D02*
X93769136Y-54929480D01*
X93769136Y-54929480D02*
X93721517Y-54834242D01*
X93721517Y-54834242D02*
X93721517Y-54643766D01*
X93721517Y-54643766D02*
X93769136Y-54548528D01*
X93769136Y-54548528D02*
X93816755Y-54500909D01*
X93816755Y-54500909D02*
X93911993Y-54453290D01*
X116209435Y-57564719D02*
X116780863Y-57564719D01*
X116495149Y-57564719D02*
X116495149Y-56564719D01*
X116495149Y-56564719D02*
X116590387Y-56707576D01*
X116590387Y-56707576D02*
X116685625Y-56802814D01*
X116685625Y-56802814D02*
X116780863Y-56850433D01*
X115590387Y-56564719D02*
X115495149Y-56564719D01*
X115495149Y-56564719D02*
X115399911Y-56612338D01*
X115399911Y-56612338D02*
X115352292Y-56659957D01*
X115352292Y-56659957D02*
X115304673Y-56755195D01*
X115304673Y-56755195D02*
X115257054Y-56945671D01*
X115257054Y-56945671D02*
X115257054Y-57183766D01*
X115257054Y-57183766D02*
X115304673Y-57374242D01*
X115304673Y-57374242D02*
X115352292Y-57469480D01*
X115352292Y-57469480D02*
X115399911Y-57517100D01*
X115399911Y-57517100D02*
X115495149Y-57564719D01*
X115495149Y-57564719D02*
X115590387Y-57564719D01*
X115590387Y-57564719D02*
X115685625Y-57517100D01*
X115685625Y-57517100D02*
X115733244Y-57469480D01*
X115733244Y-57469480D02*
X115780863Y-57374242D01*
X115780863Y-57374242D02*
X115828482Y-57183766D01*
X115828482Y-57183766D02*
X115828482Y-56945671D01*
X115828482Y-56945671D02*
X115780863Y-56755195D01*
X115780863Y-56755195D02*
X115733244Y-56659957D01*
X115733244Y-56659957D02*
X115685625Y-56612338D01*
X115685625Y-56612338D02*
X115590387Y-56564719D01*
X116780863Y-38879957D02*
X116733244Y-38832338D01*
X116733244Y-38832338D02*
X116638006Y-38784719D01*
X116638006Y-38784719D02*
X116399911Y-38784719D01*
X116399911Y-38784719D02*
X116304673Y-38832338D01*
X116304673Y-38832338D02*
X116257054Y-38879957D01*
X116257054Y-38879957D02*
X116209435Y-38975195D01*
X116209435Y-38975195D02*
X116209435Y-39070433D01*
X116209435Y-39070433D02*
X116257054Y-39213290D01*
X116257054Y-39213290D02*
X116828482Y-39784719D01*
X116828482Y-39784719D02*
X116209435Y-39784719D01*
X115257054Y-39784719D02*
X115828482Y-39784719D01*
X115542768Y-39784719D02*
X115542768Y-38784719D01*
X115542768Y-38784719D02*
X115638006Y-38927576D01*
X115638006Y-38927576D02*
X115733244Y-39022814D01*
X115733244Y-39022814D02*
X115828482Y-39070433D01*
X105108332Y-54024717D02*
X104441666Y-54024717D01*
X104441666Y-54024717D02*
X104870237Y-55024717D01*
X116209435Y-52484719D02*
X116780863Y-52484719D01*
X116495149Y-52484719D02*
X116495149Y-51484719D01*
X116495149Y-51484719D02*
X116590387Y-51627576D01*
X116590387Y-51627576D02*
X116685625Y-51722814D01*
X116685625Y-51722814D02*
X116780863Y-51770433D01*
X115352292Y-51818052D02*
X115352292Y-52484719D01*
X115590387Y-51437100D02*
X115828482Y-52151385D01*
X115828482Y-52151385D02*
X115209435Y-52151385D01*
X93721517Y-36292338D02*
X93816755Y-36244719D01*
X93816755Y-36244719D02*
X93959612Y-36244719D01*
X93959612Y-36244719D02*
X94102469Y-36292338D01*
X94102469Y-36292338D02*
X94197707Y-36387576D01*
X94197707Y-36387576D02*
X94245326Y-36482814D01*
X94245326Y-36482814D02*
X94292945Y-36673290D01*
X94292945Y-36673290D02*
X94292945Y-36816147D01*
X94292945Y-36816147D02*
X94245326Y-37006623D01*
X94245326Y-37006623D02*
X94197707Y-37101861D01*
X94197707Y-37101861D02*
X94102469Y-37197100D01*
X94102469Y-37197100D02*
X93959612Y-37244719D01*
X93959612Y-37244719D02*
X93864374Y-37244719D01*
X93864374Y-37244719D02*
X93721517Y-37197100D01*
X93721517Y-37197100D02*
X93673898Y-37149480D01*
X93673898Y-37149480D02*
X93673898Y-36816147D01*
X93673898Y-36816147D02*
X93864374Y-36816147D01*
X93245326Y-37244719D02*
X93245326Y-36244719D01*
X93245326Y-36244719D02*
X92673898Y-37244719D01*
X92673898Y-37244719D02*
X92673898Y-36244719D01*
X92197707Y-37244719D02*
X92197707Y-36244719D01*
X92197707Y-36244719D02*
X91959612Y-36244719D01*
X91959612Y-36244719D02*
X91816755Y-36292338D01*
X91816755Y-36292338D02*
X91721517Y-36387576D01*
X91721517Y-36387576D02*
X91673898Y-36482814D01*
X91673898Y-36482814D02*
X91626279Y-36673290D01*
X91626279Y-36673290D02*
X91626279Y-36816147D01*
X91626279Y-36816147D02*
X91673898Y-37006623D01*
X91673898Y-37006623D02*
X91721517Y-37101861D01*
X91721517Y-37101861D02*
X91816755Y-37197100D01*
X91816755Y-37197100D02*
X91959612Y-37244719D01*
X91959612Y-37244719D02*
X92197707Y-37244719D01*
X93816755Y-44198052D02*
X93816755Y-44864719D01*
X94054850Y-43817100D02*
X94292945Y-44531385D01*
X94292945Y-44531385D02*
X93673898Y-44531385D01*
X116209435Y-55024719D02*
X116780863Y-55024719D01*
X116495149Y-55024719D02*
X116495149Y-54024719D01*
X116495149Y-54024719D02*
X116590387Y-54167576D01*
X116590387Y-54167576D02*
X116685625Y-54262814D01*
X116685625Y-54262814D02*
X116780863Y-54310433D01*
X115352292Y-54024719D02*
X115542768Y-54024719D01*
X115542768Y-54024719D02*
X115638006Y-54072338D01*
X115638006Y-54072338D02*
X115685625Y-54119957D01*
X115685625Y-54119957D02*
X115780863Y-54262814D01*
X115780863Y-54262814D02*
X115828482Y-54453290D01*
X115828482Y-54453290D02*
X115828482Y-54834242D01*
X115828482Y-54834242D02*
X115780863Y-54929480D01*
X115780863Y-54929480D02*
X115733244Y-54977100D01*
X115733244Y-54977100D02*
X115638006Y-55024719D01*
X115638006Y-55024719D02*
X115447530Y-55024719D01*
X115447530Y-55024719D02*
X115352292Y-54977100D01*
X115352292Y-54977100D02*
X115304673Y-54929480D01*
X115304673Y-54929480D02*
X115257054Y-54834242D01*
X115257054Y-54834242D02*
X115257054Y-54596147D01*
X115257054Y-54596147D02*
X115304673Y-54500909D01*
X115304673Y-54500909D02*
X115352292Y-54453290D01*
X115352292Y-54453290D02*
X115447530Y-54405671D01*
X115447530Y-54405671D02*
X115638006Y-54405671D01*
X115638006Y-54405671D02*
X115733244Y-54453290D01*
X115733244Y-54453290D02*
X115780863Y-54500909D01*
X115780863Y-54500909D02*
X115828482Y-54596147D01*
X116733244Y-29100909D02*
X116590387Y-29148528D01*
X116590387Y-29148528D02*
X116542768Y-29196147D01*
X116542768Y-29196147D02*
X116495149Y-29291385D01*
X116495149Y-29291385D02*
X116495149Y-29434242D01*
X116495149Y-29434242D02*
X116542768Y-29529480D01*
X116542768Y-29529480D02*
X116590387Y-29577100D01*
X116590387Y-29577100D02*
X116685625Y-29624719D01*
X116685625Y-29624719D02*
X117066577Y-29624719D01*
X117066577Y-29624719D02*
X117066577Y-28624719D01*
X117066577Y-28624719D02*
X116733244Y-28624719D01*
X116733244Y-28624719D02*
X116638006Y-28672338D01*
X116638006Y-28672338D02*
X116590387Y-28719957D01*
X116590387Y-28719957D02*
X116542768Y-28815195D01*
X116542768Y-28815195D02*
X116542768Y-28910433D01*
X116542768Y-28910433D02*
X116590387Y-29005671D01*
X116590387Y-29005671D02*
X116638006Y-29053290D01*
X116638006Y-29053290D02*
X116733244Y-29100909D01*
X116733244Y-29100909D02*
X117066577Y-29100909D01*
X116066577Y-29243766D02*
X115304673Y-29243766D01*
X115685625Y-29624719D02*
X115685625Y-28862814D01*
X93721517Y-33752338D02*
X93816755Y-33704719D01*
X93816755Y-33704719D02*
X93959612Y-33704719D01*
X93959612Y-33704719D02*
X94102469Y-33752338D01*
X94102469Y-33752338D02*
X94197707Y-33847576D01*
X94197707Y-33847576D02*
X94245326Y-33942814D01*
X94245326Y-33942814D02*
X94292945Y-34133290D01*
X94292945Y-34133290D02*
X94292945Y-34276147D01*
X94292945Y-34276147D02*
X94245326Y-34466623D01*
X94245326Y-34466623D02*
X94197707Y-34561861D01*
X94197707Y-34561861D02*
X94102469Y-34657100D01*
X94102469Y-34657100D02*
X93959612Y-34704719D01*
X93959612Y-34704719D02*
X93864374Y-34704719D01*
X93864374Y-34704719D02*
X93721517Y-34657100D01*
X93721517Y-34657100D02*
X93673898Y-34609480D01*
X93673898Y-34609480D02*
X93673898Y-34276147D01*
X93673898Y-34276147D02*
X93864374Y-34276147D01*
X93245326Y-34704719D02*
X93245326Y-33704719D01*
X93245326Y-33704719D02*
X92673898Y-34704719D01*
X92673898Y-34704719D02*
X92673898Y-33704719D01*
X92197707Y-34704719D02*
X92197707Y-33704719D01*
X92197707Y-33704719D02*
X91959612Y-33704719D01*
X91959612Y-33704719D02*
X91816755Y-33752338D01*
X91816755Y-33752338D02*
X91721517Y-33847576D01*
X91721517Y-33847576D02*
X91673898Y-33942814D01*
X91673898Y-33942814D02*
X91626279Y-34133290D01*
X91626279Y-34133290D02*
X91626279Y-34276147D01*
X91626279Y-34276147D02*
X91673898Y-34466623D01*
X91673898Y-34466623D02*
X91721517Y-34561861D01*
X91721517Y-34561861D02*
X91816755Y-34657100D01*
X91816755Y-34657100D02*
X91959612Y-34704719D01*
X91959612Y-34704719D02*
X92197707Y-34704719D01*
X93721517Y-29624719D02*
X94292945Y-29624719D01*
X94007231Y-29624719D02*
X94007231Y-28624719D01*
X94007231Y-28624719D02*
X94102469Y-28767576D01*
X94102469Y-28767576D02*
X94197707Y-28862814D01*
X94197707Y-28862814D02*
X94292945Y-28910433D01*
X93769136Y-46404719D02*
X94245326Y-46404719D01*
X94245326Y-46404719D02*
X94292945Y-46880909D01*
X94292945Y-46880909D02*
X94245326Y-46833290D01*
X94245326Y-46833290D02*
X94150088Y-46785671D01*
X94150088Y-46785671D02*
X93911993Y-46785671D01*
X93911993Y-46785671D02*
X93816755Y-46833290D01*
X93816755Y-46833290D02*
X93769136Y-46880909D01*
X93769136Y-46880909D02*
X93721517Y-46976147D01*
X93721517Y-46976147D02*
X93721517Y-47214242D01*
X93721517Y-47214242D02*
X93769136Y-47309480D01*
X93769136Y-47309480D02*
X93816755Y-47357100D01*
X93816755Y-47357100D02*
X93911993Y-47404719D01*
X93911993Y-47404719D02*
X94150088Y-47404719D01*
X94150088Y-47404719D02*
X94245326Y-47357100D01*
X94245326Y-47357100D02*
X94292945Y-47309480D01*
X94054850Y-31164719D02*
X93959612Y-31164719D01*
X93959612Y-31164719D02*
X93864374Y-31212338D01*
X93864374Y-31212338D02*
X93816755Y-31259957D01*
X93816755Y-31259957D02*
X93769136Y-31355195D01*
X93769136Y-31355195D02*
X93721517Y-31545671D01*
X93721517Y-31545671D02*
X93721517Y-31783766D01*
X93721517Y-31783766D02*
X93769136Y-31974242D01*
X93769136Y-31974242D02*
X93816755Y-32069480D01*
X93816755Y-32069480D02*
X93864374Y-32117100D01*
X93864374Y-32117100D02*
X93959612Y-32164719D01*
X93959612Y-32164719D02*
X94054850Y-32164719D01*
X94054850Y-32164719D02*
X94150088Y-32117100D01*
X94150088Y-32117100D02*
X94197707Y-32069480D01*
X94197707Y-32069480D02*
X94245326Y-31974242D01*
X94245326Y-31974242D02*
X94292945Y-31783766D01*
X94292945Y-31783766D02*
X94292945Y-31545671D01*
X94292945Y-31545671D02*
X94245326Y-31355195D01*
X94245326Y-31355195D02*
X94197707Y-31259957D01*
X94197707Y-31259957D02*
X94150088Y-31212338D01*
X94150088Y-31212338D02*
X94054850Y-31164719D01*
D11*
%TO.C,D6*%
X102393750Y-93218750D02*
X102393750Y-93618750D01*
X101843750Y-93218750D02*
X102943750Y-93218750D01*
X102793750Y-92618750D02*
X102393750Y-93218750D01*
X101993750Y-92618750D02*
X102793750Y-92618750D01*
X102393750Y-92118750D02*
X102393750Y-92618750D01*
X102393750Y-93218750D02*
X101993750Y-92618750D01*
D12*
%TO.C,S15*%
X107818750Y-124068750D02*
X112918750Y-124068750D01*
X111718750Y-128268750D02*
X116818750Y-128268750D01*
X105818750Y-126068750D02*
G75*
G02*
X107818750Y-124068750I1999999J1D01*
G01*
X109718750Y-130268750D02*
G75*
G02*
X111718750Y-128268750I1999999J1D01*
G01*
%TO.C,S9*%
X69718750Y-105018750D02*
X74818750Y-105018750D01*
X73618750Y-109218750D02*
X78718750Y-109218750D01*
X67718750Y-107018750D02*
G75*
G02*
X69718750Y-105018750I1999999J1D01*
G01*
X71618750Y-111218750D02*
G75*
G02*
X73618750Y-109218750I1999999J1D01*
G01*
D11*
%TO.C,D13*%
X83343750Y-131318750D02*
X83343750Y-131718750D01*
X82793750Y-131318750D02*
X83893750Y-131318750D01*
X83743750Y-130718750D02*
X83343750Y-131318750D01*
X82943750Y-130718750D02*
X83743750Y-130718750D01*
X83343750Y-130218750D02*
X83343750Y-130718750D01*
X83343750Y-131318750D02*
X82943750Y-130718750D01*
%TO.C,D9*%
X83343750Y-112268750D02*
X83343750Y-112668750D01*
X82793750Y-112268750D02*
X83893750Y-112268750D01*
X83743750Y-111668750D02*
X83343750Y-112268750D01*
X82943750Y-111668750D02*
X83743750Y-111668750D01*
X83343750Y-111168750D02*
X83343750Y-111668750D01*
X83343750Y-112268750D02*
X82943750Y-111668750D01*
D12*
%TO.C,S14*%
X88768750Y-124068750D02*
X93868750Y-124068750D01*
X92668750Y-128268750D02*
X97768750Y-128268750D01*
X86768750Y-126068750D02*
G75*
G02*
X88768750Y-124068750I1999999J1D01*
G01*
X90668750Y-130268750D02*
G75*
G02*
X92668750Y-128268750I1999999J1D01*
G01*
D11*
%TO.C,D11*%
X121443750Y-112268750D02*
X121443750Y-112668750D01*
X120893750Y-112268750D02*
X121993750Y-112268750D01*
X121843750Y-111668750D02*
X121443750Y-112268750D01*
X121043750Y-111668750D02*
X121843750Y-111668750D01*
X121443750Y-111168750D02*
X121443750Y-111668750D01*
X121443750Y-112268750D02*
X121043750Y-111668750D01*
D12*
%TO.C,S12*%
X50668750Y-124068750D02*
X55768750Y-124068750D01*
X54568750Y-128268750D02*
X59668750Y-128268750D01*
X48668750Y-126068750D02*
G75*
G02*
X50668750Y-124068750I1999999J1D01*
G01*
X52568750Y-130268750D02*
G75*
G02*
X54568750Y-128268750I1999999J1D01*
G01*
D11*
%TO.C,D21*%
X102393750Y-169418750D02*
X102393750Y-169818750D01*
X101843750Y-169418750D02*
X102943750Y-169418750D01*
X102793750Y-168818750D02*
X102393750Y-169418750D01*
X101993750Y-168818750D02*
X102793750Y-168818750D01*
X102393750Y-168318750D02*
X102393750Y-168818750D01*
X102393750Y-169418750D02*
X101993750Y-168818750D01*
D12*
%TO.C,S21*%
X88768750Y-162168750D02*
X93868750Y-162168750D01*
X92668750Y-166368750D02*
X97768750Y-166368750D01*
X86768750Y-164168750D02*
G75*
G02*
X88768750Y-162168750I1999999J1D01*
G01*
X90668750Y-168368750D02*
G75*
G02*
X92668750Y-166368750I1999999J1D01*
G01*
%TO.C,S7*%
X107818750Y-85968750D02*
X112918750Y-85968750D01*
X111718750Y-90168750D02*
X116818750Y-90168750D01*
X105818750Y-87968750D02*
G75*
G02*
X107818750Y-85968750I1999999J1D01*
G01*
X109718750Y-92168750D02*
G75*
G02*
X111718750Y-90168750I1999999J1D01*
G01*
D11*
%TO.C,D7*%
X121443750Y-93218750D02*
X121443750Y-93618750D01*
X120893750Y-93218750D02*
X121993750Y-93218750D01*
X121843750Y-92618750D02*
X121443750Y-93218750D01*
X121043750Y-92618750D02*
X121843750Y-92618750D01*
X121443750Y-92118750D02*
X121443750Y-92618750D01*
X121443750Y-93218750D02*
X121043750Y-92618750D01*
%TO.C,D3*%
X102393750Y-74168750D02*
X102393750Y-74568750D01*
X101843750Y-74168750D02*
X102943750Y-74168750D01*
X102793750Y-73568750D02*
X102393750Y-74168750D01*
X101993750Y-73568750D02*
X102793750Y-73568750D01*
X102393750Y-73068750D02*
X102393750Y-73568750D01*
X102393750Y-74168750D02*
X101993750Y-73568750D01*
D12*
%TO.C,S1*%
X50668750Y-66918750D02*
X55768750Y-66918750D01*
X54568750Y-71118750D02*
X59668750Y-71118750D01*
X48668750Y-68918750D02*
G75*
G02*
X50668750Y-66918750I1999999J1D01*
G01*
X52568750Y-73118750D02*
G75*
G02*
X54568750Y-71118750I1999999J1D01*
G01*
%TO.C,S18*%
X88768750Y-143118750D02*
X93868750Y-143118750D01*
X92668750Y-147318750D02*
X97768750Y-147318750D01*
X86768750Y-145118750D02*
G75*
G02*
X88768750Y-143118750I1999999J1D01*
G01*
X90668750Y-149318750D02*
G75*
G02*
X92668750Y-147318750I1999999J1D01*
G01*
%TO.C,S8*%
X50668750Y-105018750D02*
X55768750Y-105018750D01*
X54568750Y-109218750D02*
X59668750Y-109218750D01*
X48668750Y-107018750D02*
G75*
G02*
X50668750Y-105018750I1999999J1D01*
G01*
X52568750Y-111218750D02*
G75*
G02*
X54568750Y-109218750I1999999J1D01*
G01*
%TO.C,S11*%
X107818750Y-105018750D02*
X112918750Y-105018750D01*
X111718750Y-109218750D02*
X116818750Y-109218750D01*
X105818750Y-107018750D02*
G75*
G02*
X107818750Y-105018750I1999999J1D01*
G01*
X109718750Y-111218750D02*
G75*
G02*
X111718750Y-109218750I1999999J1D01*
G01*
%TO.C,S3*%
X88768750Y-66918750D02*
X93868750Y-66918750D01*
X92668750Y-71118750D02*
X97768750Y-71118750D01*
X86768750Y-68918750D02*
G75*
G02*
X88768750Y-66918750I1999999J1D01*
G01*
X90668750Y-73118750D02*
G75*
G02*
X92668750Y-71118750I1999999J1D01*
G01*
%TO.C,S13*%
X69718750Y-124068750D02*
X74818750Y-124068750D01*
X73618750Y-128268750D02*
X78718750Y-128268750D01*
X67718750Y-126068750D02*
G75*
G02*
X69718750Y-124068750I1999999J1D01*
G01*
X71618750Y-130268750D02*
G75*
G02*
X73618750Y-128268750I1999999J1D01*
G01*
D11*
%TO.C,D22*%
X121443750Y-74168750D02*
X121443750Y-74568750D01*
X120893750Y-74168750D02*
X121993750Y-74168750D01*
X121843750Y-73568750D02*
X121443750Y-74168750D01*
X121043750Y-73568750D02*
X121843750Y-73568750D01*
X121443750Y-73068750D02*
X121443750Y-73568750D01*
X121443750Y-74168750D02*
X121043750Y-73568750D01*
D12*
%TO.C,S6*%
X88768750Y-85968750D02*
X93868750Y-85968750D01*
X92668750Y-90168750D02*
X97768750Y-90168750D01*
X86768750Y-87968750D02*
G75*
G02*
X88768750Y-85968750I1999999J1D01*
G01*
X90668750Y-92168750D02*
G75*
G02*
X92668750Y-90168750I1999999J1D01*
G01*
D11*
%TO.C,D8*%
X64293750Y-112268750D02*
X64293750Y-112668750D01*
X63743750Y-112268750D02*
X64843750Y-112268750D01*
X64693750Y-111668750D02*
X64293750Y-112268750D01*
X63893750Y-111668750D02*
X64693750Y-111668750D01*
X64293750Y-111168750D02*
X64293750Y-111668750D01*
X64293750Y-112268750D02*
X63893750Y-111668750D01*
D12*
%TO.C,S17*%
X69718750Y-143118750D02*
X74818750Y-143118750D01*
X73618750Y-147318750D02*
X78718750Y-147318750D01*
X67718750Y-145118750D02*
G75*
G02*
X69718750Y-143118750I1999999J1D01*
G01*
X71618750Y-149318750D02*
G75*
G02*
X73618750Y-147318750I1999999J1D01*
G01*
D11*
%TO.C,D18*%
X102393750Y-150368750D02*
X102393750Y-150768750D01*
X101843750Y-150368750D02*
X102943750Y-150368750D01*
X102793750Y-149768750D02*
X102393750Y-150368750D01*
X101993750Y-149768750D02*
X102793750Y-149768750D01*
X102393750Y-149268750D02*
X102393750Y-149768750D01*
X102393750Y-150368750D02*
X101993750Y-149768750D01*
%TO.C,D15*%
X121443750Y-131318750D02*
X121443750Y-131718750D01*
X120893750Y-131318750D02*
X121993750Y-131318750D01*
X121843750Y-130718750D02*
X121443750Y-131318750D01*
X121043750Y-130718750D02*
X121843750Y-130718750D01*
X121443750Y-130218750D02*
X121443750Y-130718750D01*
X121443750Y-131318750D02*
X121043750Y-130718750D01*
%TO.C,D2*%
X83343750Y-74168750D02*
X83343750Y-74568750D01*
X82793750Y-74168750D02*
X83893750Y-74168750D01*
X83743750Y-73568750D02*
X83343750Y-74168750D01*
X82943750Y-73568750D02*
X83743750Y-73568750D01*
X83343750Y-73068750D02*
X83343750Y-73568750D01*
X83343750Y-74168750D02*
X82943750Y-73568750D01*
%TO.C,D19*%
X121443750Y-150368750D02*
X121443750Y-150768750D01*
X120893750Y-150368750D02*
X121993750Y-150368750D01*
X121843750Y-149768750D02*
X121443750Y-150368750D01*
X121043750Y-149768750D02*
X121843750Y-149768750D01*
X121443750Y-149268750D02*
X121443750Y-149768750D01*
X121443750Y-150368750D02*
X121043750Y-149768750D01*
%TO.C,D12*%
X64293750Y-131318750D02*
X64293750Y-131718750D01*
X63743750Y-131318750D02*
X64843750Y-131318750D01*
X64693750Y-130718750D02*
X64293750Y-131318750D01*
X63893750Y-130718750D02*
X64693750Y-130718750D01*
X64293750Y-130218750D02*
X64293750Y-130718750D01*
X64293750Y-131318750D02*
X63893750Y-130718750D01*
%TO.C,D16*%
X64293750Y-150368750D02*
X64293750Y-150768750D01*
X63743750Y-150368750D02*
X64843750Y-150368750D01*
X64693750Y-149768750D02*
X64293750Y-150368750D01*
X63893750Y-149768750D02*
X64693750Y-149768750D01*
X64293750Y-149268750D02*
X64293750Y-149768750D01*
X64293750Y-150368750D02*
X63893750Y-149768750D01*
%TO.C,D20*%
X83343750Y-169418750D02*
X83343750Y-169818750D01*
X82793750Y-169418750D02*
X83893750Y-169418750D01*
X83743750Y-168818750D02*
X83343750Y-169418750D01*
X82943750Y-168818750D02*
X83743750Y-168818750D01*
X83343750Y-168318750D02*
X83343750Y-168818750D01*
X83343750Y-169418750D02*
X82943750Y-168818750D01*
D12*
%TO.C,S20*%
X60193750Y-162168750D02*
X65293750Y-162168750D01*
X64093750Y-166368750D02*
X69193750Y-166368750D01*
X58193750Y-164168750D02*
G75*
G02*
X60193750Y-162168750I1999999J1D01*
G01*
X62093750Y-168368750D02*
G75*
G02*
X64093750Y-166368750I1999999J1D01*
G01*
D10*
%TO.C,U2*%
X113925000Y-58382500D02*
X113925000Y-25082500D01*
X113925000Y-58382500D02*
X95625000Y-58382500D01*
X113925000Y-25082500D02*
X95625000Y-25082500D01*
X95625000Y-58382500D02*
X95625000Y-25082500D01*
D11*
%TO.C,D4*%
X64293750Y-93218750D02*
X64293750Y-93618750D01*
X63743750Y-93218750D02*
X64843750Y-93218750D01*
X64693750Y-92618750D02*
X64293750Y-93218750D01*
X63893750Y-92618750D02*
X64693750Y-92618750D01*
X64293750Y-92118750D02*
X64293750Y-92618750D01*
X64293750Y-93218750D02*
X63893750Y-92618750D01*
D12*
%TO.C,S10*%
X88768750Y-105018750D02*
X93868750Y-105018750D01*
X92668750Y-109218750D02*
X97768750Y-109218750D01*
X86768750Y-107018750D02*
G75*
G02*
X88768750Y-105018750I1999999J1D01*
G01*
X90668750Y-111218750D02*
G75*
G02*
X92668750Y-109218750I1999999J1D01*
G01*
D11*
%TO.C,D10*%
X102393750Y-112268750D02*
X102393750Y-112668750D01*
X101843750Y-112268750D02*
X102943750Y-112268750D01*
X102793750Y-111668750D02*
X102393750Y-112268750D01*
X101993750Y-111668750D02*
X102793750Y-111668750D01*
X102393750Y-111168750D02*
X102393750Y-111668750D01*
X102393750Y-112268750D02*
X101993750Y-111668750D01*
D12*
%TO.C,S4*%
X50668750Y-85968750D02*
X55768750Y-85968750D01*
X54568750Y-90168750D02*
X59668750Y-90168750D01*
X48668750Y-87968750D02*
G75*
G02*
X50668750Y-85968750I1999999J1D01*
G01*
X52568750Y-92168750D02*
G75*
G02*
X54568750Y-90168750I1999999J1D01*
G01*
%TO.C,S5*%
X69718750Y-85968750D02*
X74818750Y-85968750D01*
X73618750Y-90168750D02*
X78718750Y-90168750D01*
X67718750Y-87968750D02*
G75*
G02*
X69718750Y-85968750I1999999J1D01*
G01*
X71618750Y-92168750D02*
G75*
G02*
X73618750Y-90168750I1999999J1D01*
G01*
%TO.C,S2*%
X69718750Y-66918750D02*
X74818750Y-66918750D01*
X73618750Y-71118750D02*
X78718750Y-71118750D01*
X67718750Y-68918750D02*
G75*
G02*
X69718750Y-66918750I1999999J1D01*
G01*
X71618750Y-73118750D02*
G75*
G02*
X73618750Y-71118750I1999999J1D01*
G01*
%TO.C,S19*%
X107818750Y-152643750D02*
X112918750Y-152643750D01*
X111718750Y-156843750D02*
X116818750Y-156843750D01*
X105818750Y-154643750D02*
G75*
G02*
X107818750Y-152643750I1999999J1D01*
G01*
X109718750Y-158843750D02*
G75*
G02*
X111718750Y-156843750I1999999J1D01*
G01*
%TO.C,S16*%
X50668750Y-143118750D02*
X55768750Y-143118750D01*
X54568750Y-147318750D02*
X59668750Y-147318750D01*
X48668750Y-145118750D02*
G75*
G02*
X50668750Y-143118750I1999999J1D01*
G01*
X52568750Y-149318750D02*
G75*
G02*
X54568750Y-147318750I1999999J1D01*
G01*
D11*
%TO.C,D17*%
X83343750Y-150368750D02*
X83343750Y-150768750D01*
X82793750Y-150368750D02*
X83893750Y-150368750D01*
X83743750Y-149768750D02*
X83343750Y-150368750D01*
X82943750Y-149768750D02*
X83743750Y-149768750D01*
X83343750Y-149268750D02*
X83343750Y-149768750D01*
X83343750Y-150368750D02*
X82943750Y-149768750D01*
%TO.C,D5*%
X83343750Y-93218750D02*
X83343750Y-93618750D01*
X82793750Y-93218750D02*
X83893750Y-93218750D01*
X83743750Y-92618750D02*
X83343750Y-93218750D01*
X82943750Y-92618750D02*
X83743750Y-92618750D01*
X83343750Y-92118750D02*
X83343750Y-92618750D01*
X83343750Y-93218750D02*
X82943750Y-92618750D01*
%TO.C,D14*%
X102393750Y-131318750D02*
X102393750Y-131718750D01*
X101843750Y-131318750D02*
X102943750Y-131318750D01*
X102793750Y-130718750D02*
X102393750Y-131318750D01*
X101993750Y-130718750D02*
X102793750Y-130718750D01*
X102393750Y-130218750D02*
X102393750Y-130718750D01*
X102393750Y-131318750D02*
X101993750Y-130718750D01*
%TO.C,D1*%
X64293750Y-74168750D02*
X64293750Y-74568750D01*
X63743750Y-74168750D02*
X64843750Y-74168750D01*
X64693750Y-73568750D02*
X64293750Y-74168750D01*
X63893750Y-73568750D02*
X64693750Y-73568750D01*
X64293750Y-73068750D02*
X64293750Y-73568750D01*
X64293750Y-74168750D02*
X63893750Y-73568750D01*
%TD*%
M02*
