%TF.GenerationSoftware,KiCad,Pcbnew,8.0.6*%
%TF.CreationDate,2024-12-22T21:39:13-05:00*%
%TF.ProjectId,Keypad 2.0,4b657970-6164-4203-922e-302e6b696361,rev?*%
%TF.SameCoordinates,Original*%
%TF.FileFunction,Soldermask,Top*%
%TF.FilePolarity,Negative*%
%FSLAX46Y46*%
G04 Gerber Fmt 4.6, Leading zero omitted, Abs format (unit mm)*
G04 Created by KiCad (PCBNEW 8.0.6) date 2024-12-22 21:39:13*
%MOMM*%
%LPD*%
G01*
G04 APERTURE LIST*
G04 Aperture macros list*
%AMRoundRect*
0 Rectangle with rounded corners*
0 $1 Rounding radius*
0 $2 $3 $4 $5 $6 $7 $8 $9 X,Y pos of 4 corners*
0 Add a 4 corners polygon primitive as box body*
4,1,4,$2,$3,$4,$5,$6,$7,$8,$9,$2,$3,0*
0 Add four circle primitives for the rounded corners*
1,1,$1+$1,$2,$3*
1,1,$1+$1,$4,$5*
1,1,$1+$1,$6,$7*
1,1,$1+$1,$8,$9*
0 Add four rect primitives between the rounded corners*
20,1,$1+$1,$2,$3,$4,$5,0*
20,1,$1+$1,$4,$5,$6,$7,0*
20,1,$1+$1,$6,$7,$8,$9,0*
20,1,$1+$1,$8,$9,$2,$3,0*%
G04 Aperture macros list end*
%ADD10RoundRect,0.250000X0.625000X-0.400000X0.625000X0.400000X-0.625000X0.400000X-0.625000X-0.400000X0*%
%ADD11RoundRect,0.250000X-0.625000X0.400000X-0.625000X-0.400000X0.625000X-0.400000X0.625000X0.400000X0*%
%ADD12C,3.200000*%
%ADD13R,1.600000X1.600000*%
%ADD14O,1.600000X1.600000*%
%ADD15C,1.750000*%
%ADD16C,3.050000*%
%ADD17C,4.000000*%
%ADD18RoundRect,0.102000X0.825000X0.825000X-0.825000X0.825000X-0.825000X-0.825000X0.825000X-0.825000X0*%
%ADD19C,1.854000*%
%ADD20O,3.204000X6.204000*%
%ADD21R,1.700000X1.700000*%
%ADD22O,1.700000X1.700000*%
%ADD23C,1.752600*%
G04 APERTURE END LIST*
D10*
%TO.C,R2*%
X111428000Y-63556000D03*
X111428000Y-60456000D03*
%TD*%
D11*
%TO.C,R1*%
X107872000Y-60508000D03*
X107872000Y-63608000D03*
%TD*%
D12*
%TO.C,H4*%
X45000000Y-30900000D03*
%TD*%
%TO.C,H3*%
X45134000Y-178745000D03*
%TD*%
%TO.C,H2*%
X122350000Y-178872000D03*
%TD*%
%TO.C,H1*%
X122428000Y-30800000D03*
%TD*%
D13*
%TO.C,D6*%
X102393750Y-96678750D03*
D14*
X102393750Y-89058750D03*
%TD*%
D15*
%TO.C,S15*%
X106838750Y-130968750D03*
D16*
X108108750Y-128428750D03*
D17*
X111918750Y-130968750D03*
D16*
X114458750Y-125888750D03*
D15*
X116998750Y-130968750D03*
%TD*%
%TO.C,S9*%
X68738750Y-111918750D03*
D16*
X70008750Y-109378750D03*
D17*
X73818750Y-111918750D03*
D16*
X76358750Y-106838750D03*
D15*
X78898750Y-111918750D03*
%TD*%
D13*
%TO.C,D13*%
X83343750Y-134778750D03*
D14*
X83343750Y-127158750D03*
%TD*%
D13*
%TO.C,D9*%
X83343750Y-115728750D03*
D14*
X83343750Y-108108750D03*
%TD*%
D15*
%TO.C,S14*%
X87788750Y-130968750D03*
D16*
X89058750Y-128428750D03*
D17*
X92868750Y-130968750D03*
D16*
X95408750Y-125888750D03*
D15*
X97948750Y-130968750D03*
%TD*%
D13*
%TO.C,D11*%
X121443750Y-115728750D03*
D14*
X121443750Y-108108750D03*
%TD*%
D15*
%TO.C,S12*%
X49688750Y-130968750D03*
D16*
X50958750Y-128428750D03*
D17*
X54768750Y-130968750D03*
D16*
X57308750Y-125888750D03*
D15*
X59848750Y-130968750D03*
%TD*%
D13*
%TO.C,D21*%
X102393750Y-172878750D03*
D14*
X102393750Y-165258750D03*
%TD*%
D15*
%TO.C,S21*%
X87788750Y-169068750D03*
D16*
X89058750Y-166528750D03*
D17*
X92868750Y-169068750D03*
D16*
X95408750Y-163988750D03*
D15*
X97948750Y-169068750D03*
%TD*%
%TO.C,S7*%
X106838750Y-92868750D03*
D16*
X108108750Y-90328750D03*
D17*
X111918750Y-92868750D03*
D16*
X114458750Y-87788750D03*
D15*
X116998750Y-92868750D03*
%TD*%
D13*
%TO.C,D7*%
X121443750Y-96678750D03*
D14*
X121443750Y-89058750D03*
%TD*%
D13*
%TO.C,D3*%
X102393750Y-77628750D03*
D14*
X102393750Y-70008750D03*
%TD*%
D15*
%TO.C,S1*%
X49688750Y-73818750D03*
D16*
X50958750Y-71278750D03*
D17*
X54768750Y-73818750D03*
D16*
X57308750Y-68738750D03*
D15*
X59848750Y-73818750D03*
%TD*%
%TO.C,S18*%
X87788750Y-150018750D03*
D16*
X89058750Y-147478750D03*
D17*
X92868750Y-150018750D03*
D16*
X95408750Y-144938750D03*
D15*
X97948750Y-150018750D03*
%TD*%
%TO.C,S8*%
X49688750Y-111918750D03*
D16*
X50958750Y-109378750D03*
D17*
X54768750Y-111918750D03*
D16*
X57308750Y-106838750D03*
D15*
X59848750Y-111918750D03*
%TD*%
%TO.C,S11*%
X106838750Y-111918750D03*
D16*
X108108750Y-109378750D03*
D17*
X111918750Y-111918750D03*
D16*
X114458750Y-106838750D03*
D15*
X116998750Y-111918750D03*
%TD*%
%TO.C,S3*%
X87788750Y-73818750D03*
D16*
X89058750Y-71278750D03*
D17*
X92868750Y-73818750D03*
D16*
X95408750Y-68738750D03*
D15*
X97948750Y-73818750D03*
%TD*%
%TO.C,S13*%
X68738750Y-130968750D03*
D16*
X70008750Y-128428750D03*
D17*
X73818750Y-130968750D03*
D16*
X76358750Y-125888750D03*
D15*
X78898750Y-130968750D03*
%TD*%
D18*
%TO.C,SW1*%
X114418750Y-80818750D03*
D19*
X109418750Y-80818750D03*
X114418750Y-66318750D03*
X109418750Y-66318750D03*
X111918750Y-66318750D03*
D20*
X117618750Y-73818750D03*
X106218750Y-73818750D03*
%TD*%
D13*
%TO.C,D22*%
X121443750Y-77628750D03*
D14*
X121443750Y-70008750D03*
%TD*%
D15*
%TO.C,S6*%
X87788750Y-92868750D03*
D16*
X89058750Y-90328750D03*
D17*
X92868750Y-92868750D03*
D16*
X95408750Y-87788750D03*
D15*
X97948750Y-92868750D03*
%TD*%
D13*
%TO.C,D8*%
X64293750Y-115728750D03*
D14*
X64293750Y-108108750D03*
%TD*%
D15*
%TO.C,S17*%
X68738750Y-150018750D03*
D16*
X70008750Y-147478750D03*
D17*
X73818750Y-150018750D03*
D16*
X76358750Y-144938750D03*
D15*
X78898750Y-150018750D03*
%TD*%
D13*
%TO.C,D18*%
X102393750Y-153828750D03*
D14*
X102393750Y-146208750D03*
%TD*%
D13*
%TO.C,D15*%
X121443750Y-134778750D03*
D14*
X121443750Y-127158750D03*
%TD*%
D13*
%TO.C,D2*%
X83343750Y-77628750D03*
D14*
X83343750Y-70008750D03*
%TD*%
D13*
%TO.C,D19*%
X121443750Y-153828750D03*
D14*
X121443750Y-146208750D03*
%TD*%
D13*
%TO.C,D12*%
X64293750Y-134778750D03*
D14*
X64293750Y-127158750D03*
%TD*%
D13*
%TO.C,D16*%
X64293750Y-153828750D03*
D14*
X64293750Y-146208750D03*
%TD*%
D21*
%TO.C,J1*%
X70200000Y-55200000D03*
D22*
X67660000Y-55200000D03*
X70200000Y-52660000D03*
X67660000Y-52660000D03*
X70200000Y-50120000D03*
X67660000Y-50120000D03*
X70200000Y-47580000D03*
X67660000Y-47580000D03*
%TD*%
D13*
%TO.C,D20*%
X83343750Y-172878750D03*
D14*
X83343750Y-165258750D03*
%TD*%
D15*
%TO.C,S20*%
X59213750Y-169068750D03*
D16*
X60483750Y-166528750D03*
D17*
X64293750Y-169068750D03*
D16*
X66833750Y-163988750D03*
D15*
X69373750Y-169068750D03*
%TD*%
D23*
%TO.C,U2*%
X104775000Y-52032500D03*
X102235000Y-52032500D03*
X99695000Y-52032500D03*
X112395000Y-29172500D03*
X112395000Y-31712500D03*
X112395000Y-34252500D03*
X112395000Y-36792500D03*
X112395000Y-39332500D03*
X112395000Y-41872500D03*
X112395000Y-44412500D03*
X112395000Y-46952500D03*
X112395000Y-49492500D03*
X112395000Y-52032500D03*
X112395000Y-54572500D03*
X112395000Y-57112500D03*
X97155000Y-57112500D03*
X97155000Y-54572500D03*
X97155000Y-52032500D03*
X97155000Y-49492500D03*
X97155000Y-46952500D03*
X97155000Y-44412500D03*
X97155000Y-41872500D03*
X97155000Y-39332500D03*
X97155000Y-36792500D03*
X97155000Y-34252500D03*
X97155000Y-31712500D03*
X97155000Y-29172500D03*
%TD*%
D13*
%TO.C,D4*%
X64293750Y-96678750D03*
D14*
X64293750Y-89058750D03*
%TD*%
D15*
%TO.C,S10*%
X87788750Y-111918750D03*
D16*
X89058750Y-109378750D03*
D17*
X92868750Y-111918750D03*
D16*
X95408750Y-106838750D03*
D15*
X97948750Y-111918750D03*
%TD*%
D13*
%TO.C,D10*%
X102393750Y-115728750D03*
D14*
X102393750Y-108108750D03*
%TD*%
D15*
%TO.C,S4*%
X49688750Y-92868750D03*
D16*
X50958750Y-90328750D03*
D17*
X54768750Y-92868750D03*
D16*
X57308750Y-87788750D03*
D15*
X59848750Y-92868750D03*
%TD*%
%TO.C,S5*%
X68738750Y-92868750D03*
D16*
X70008750Y-90328750D03*
D17*
X73818750Y-92868750D03*
D16*
X76358750Y-87788750D03*
D15*
X78898750Y-92868750D03*
%TD*%
%TO.C,S2*%
X68738750Y-73818750D03*
D16*
X70008750Y-71278750D03*
D17*
X73818750Y-73818750D03*
D16*
X76358750Y-68738750D03*
D15*
X78898750Y-73818750D03*
%TD*%
%TO.C,S19*%
X106838750Y-159543750D03*
D16*
X108108750Y-157003750D03*
D17*
X111918750Y-159543750D03*
D16*
X114458750Y-154463750D03*
D15*
X116998750Y-159543750D03*
%TD*%
%TO.C,S16*%
X49688750Y-150018750D03*
D16*
X50958750Y-147478750D03*
D17*
X54768750Y-150018750D03*
D16*
X57308750Y-144938750D03*
D15*
X59848750Y-150018750D03*
%TD*%
D13*
%TO.C,D17*%
X83343750Y-153828750D03*
D14*
X83343750Y-146208750D03*
%TD*%
D13*
%TO.C,D5*%
X83343750Y-96678750D03*
D14*
X83343750Y-89058750D03*
%TD*%
D13*
%TO.C,D14*%
X102393750Y-134778750D03*
D14*
X102393750Y-127158750D03*
%TD*%
D13*
%TO.C,D1*%
X64293750Y-77628750D03*
D14*
X64293750Y-70008750D03*
%TD*%
M02*
