%TF.GenerationSoftware,KiCad,Pcbnew,8.0.6*%
%TF.CreationDate,2024-12-22T21:39:13-05:00*%
%TF.ProjectId,Keypad 2.0,4b657970-6164-4203-922e-302e6b696361,rev?*%
%TF.SameCoordinates,Original*%
%TF.FileFunction,Legend,Top*%
%TF.FilePolarity,Positive*%
%FSLAX46Y46*%
G04 Gerber Fmt 4.6, Leading zero omitted, Abs format (unit mm)*
G04 Created by KiCad (PCBNEW 8.0.6) date 2024-12-22 21:39:13*
%MOMM*%
%LPD*%
G01*
G04 APERTURE LIST*
%ADD10C,0.250000*%
%ADD11C,0.300000*%
%ADD12C,0.150000*%
%ADD13C,0.200000*%
%ADD14C,0.120000*%
%ADD15C,0.127000*%
G04 APERTURE END LIST*
D10*
X53489949Y-53721000D02*
X53632806Y-53768619D01*
X53632806Y-53768619D02*
X53870901Y-53768619D01*
X53870901Y-53768619D02*
X53966139Y-53721000D01*
X53966139Y-53721000D02*
X54013758Y-53673380D01*
X54013758Y-53673380D02*
X54061377Y-53578142D01*
X54061377Y-53578142D02*
X54061377Y-53482904D01*
X54061377Y-53482904D02*
X54013758Y-53387666D01*
X54013758Y-53387666D02*
X53966139Y-53340047D01*
X53966139Y-53340047D02*
X53870901Y-53292428D01*
X53870901Y-53292428D02*
X53680425Y-53244809D01*
X53680425Y-53244809D02*
X53585187Y-53197190D01*
X53585187Y-53197190D02*
X53537568Y-53149571D01*
X53537568Y-53149571D02*
X53489949Y-53054333D01*
X53489949Y-53054333D02*
X53489949Y-52959095D01*
X53489949Y-52959095D02*
X53537568Y-52863857D01*
X53537568Y-52863857D02*
X53585187Y-52816238D01*
X53585187Y-52816238D02*
X53680425Y-52768619D01*
X53680425Y-52768619D02*
X53918520Y-52768619D01*
X53918520Y-52768619D02*
X54061377Y-52816238D01*
X54489949Y-53768619D02*
X54489949Y-52768619D01*
X54489949Y-52768619D02*
X54870901Y-52768619D01*
X54870901Y-52768619D02*
X54966139Y-52816238D01*
X54966139Y-52816238D02*
X55013758Y-52863857D01*
X55013758Y-52863857D02*
X55061377Y-52959095D01*
X55061377Y-52959095D02*
X55061377Y-53101952D01*
X55061377Y-53101952D02*
X55013758Y-53197190D01*
X55013758Y-53197190D02*
X54966139Y-53244809D01*
X54966139Y-53244809D02*
X54870901Y-53292428D01*
X54870901Y-53292428D02*
X54489949Y-53292428D01*
X55489949Y-53768619D02*
X55489949Y-52768619D01*
X55728044Y-53863857D02*
X56489948Y-53863857D01*
X56728044Y-53768619D02*
X56728044Y-52768619D01*
X56728044Y-52768619D02*
X57061377Y-53482904D01*
X57061377Y-53482904D02*
X57394710Y-52768619D01*
X57394710Y-52768619D02*
X57394710Y-53768619D01*
X58061377Y-52768619D02*
X58251853Y-52768619D01*
X58251853Y-52768619D02*
X58347091Y-52816238D01*
X58347091Y-52816238D02*
X58442329Y-52911476D01*
X58442329Y-52911476D02*
X58489948Y-53101952D01*
X58489948Y-53101952D02*
X58489948Y-53435285D01*
X58489948Y-53435285D02*
X58442329Y-53625761D01*
X58442329Y-53625761D02*
X58347091Y-53721000D01*
X58347091Y-53721000D02*
X58251853Y-53768619D01*
X58251853Y-53768619D02*
X58061377Y-53768619D01*
X58061377Y-53768619D02*
X57966139Y-53721000D01*
X57966139Y-53721000D02*
X57870901Y-53625761D01*
X57870901Y-53625761D02*
X57823282Y-53435285D01*
X57823282Y-53435285D02*
X57823282Y-53101952D01*
X57823282Y-53101952D02*
X57870901Y-52911476D01*
X57870901Y-52911476D02*
X57966139Y-52816238D01*
X57966139Y-52816238D02*
X58061377Y-52768619D01*
X58870901Y-53721000D02*
X59013758Y-53768619D01*
X59013758Y-53768619D02*
X59251853Y-53768619D01*
X59251853Y-53768619D02*
X59347091Y-53721000D01*
X59347091Y-53721000D02*
X59394710Y-53673380D01*
X59394710Y-53673380D02*
X59442329Y-53578142D01*
X59442329Y-53578142D02*
X59442329Y-53482904D01*
X59442329Y-53482904D02*
X59394710Y-53387666D01*
X59394710Y-53387666D02*
X59347091Y-53340047D01*
X59347091Y-53340047D02*
X59251853Y-53292428D01*
X59251853Y-53292428D02*
X59061377Y-53244809D01*
X59061377Y-53244809D02*
X58966139Y-53197190D01*
X58966139Y-53197190D02*
X58918520Y-53149571D01*
X58918520Y-53149571D02*
X58870901Y-53054333D01*
X58870901Y-53054333D02*
X58870901Y-52959095D01*
X58870901Y-52959095D02*
X58918520Y-52863857D01*
X58918520Y-52863857D02*
X58966139Y-52816238D01*
X58966139Y-52816238D02*
X59061377Y-52768619D01*
X59061377Y-52768619D02*
X59299472Y-52768619D01*
X59299472Y-52768619D02*
X59442329Y-52816238D01*
X59870901Y-53768619D02*
X59870901Y-52768619D01*
X53362949Y-51435000D02*
X53505806Y-51482619D01*
X53505806Y-51482619D02*
X53743901Y-51482619D01*
X53743901Y-51482619D02*
X53839139Y-51435000D01*
X53839139Y-51435000D02*
X53886758Y-51387380D01*
X53886758Y-51387380D02*
X53934377Y-51292142D01*
X53934377Y-51292142D02*
X53934377Y-51196904D01*
X53934377Y-51196904D02*
X53886758Y-51101666D01*
X53886758Y-51101666D02*
X53839139Y-51054047D01*
X53839139Y-51054047D02*
X53743901Y-51006428D01*
X53743901Y-51006428D02*
X53553425Y-50958809D01*
X53553425Y-50958809D02*
X53458187Y-50911190D01*
X53458187Y-50911190D02*
X53410568Y-50863571D01*
X53410568Y-50863571D02*
X53362949Y-50768333D01*
X53362949Y-50768333D02*
X53362949Y-50673095D01*
X53362949Y-50673095D02*
X53410568Y-50577857D01*
X53410568Y-50577857D02*
X53458187Y-50530238D01*
X53458187Y-50530238D02*
X53553425Y-50482619D01*
X53553425Y-50482619D02*
X53791520Y-50482619D01*
X53791520Y-50482619D02*
X53934377Y-50530238D01*
X54362949Y-51482619D02*
X54362949Y-50482619D01*
X54362949Y-50482619D02*
X54743901Y-50482619D01*
X54743901Y-50482619D02*
X54839139Y-50530238D01*
X54839139Y-50530238D02*
X54886758Y-50577857D01*
X54886758Y-50577857D02*
X54934377Y-50673095D01*
X54934377Y-50673095D02*
X54934377Y-50815952D01*
X54934377Y-50815952D02*
X54886758Y-50911190D01*
X54886758Y-50911190D02*
X54839139Y-50958809D01*
X54839139Y-50958809D02*
X54743901Y-51006428D01*
X54743901Y-51006428D02*
X54362949Y-51006428D01*
X55362949Y-51482619D02*
X55362949Y-50482619D01*
X55601044Y-51577857D02*
X56362948Y-51577857D01*
X57172472Y-51482619D02*
X56839139Y-51006428D01*
X56601044Y-51482619D02*
X56601044Y-50482619D01*
X56601044Y-50482619D02*
X56981996Y-50482619D01*
X56981996Y-50482619D02*
X57077234Y-50530238D01*
X57077234Y-50530238D02*
X57124853Y-50577857D01*
X57124853Y-50577857D02*
X57172472Y-50673095D01*
X57172472Y-50673095D02*
X57172472Y-50815952D01*
X57172472Y-50815952D02*
X57124853Y-50911190D01*
X57124853Y-50911190D02*
X57077234Y-50958809D01*
X57077234Y-50958809D02*
X56981996Y-51006428D01*
X56981996Y-51006428D02*
X56601044Y-51006428D01*
X57553425Y-51435000D02*
X57696282Y-51482619D01*
X57696282Y-51482619D02*
X57934377Y-51482619D01*
X57934377Y-51482619D02*
X58029615Y-51435000D01*
X58029615Y-51435000D02*
X58077234Y-51387380D01*
X58077234Y-51387380D02*
X58124853Y-51292142D01*
X58124853Y-51292142D02*
X58124853Y-51196904D01*
X58124853Y-51196904D02*
X58077234Y-51101666D01*
X58077234Y-51101666D02*
X58029615Y-51054047D01*
X58029615Y-51054047D02*
X57934377Y-51006428D01*
X57934377Y-51006428D02*
X57743901Y-50958809D01*
X57743901Y-50958809D02*
X57648663Y-50911190D01*
X57648663Y-50911190D02*
X57601044Y-50863571D01*
X57601044Y-50863571D02*
X57553425Y-50768333D01*
X57553425Y-50768333D02*
X57553425Y-50673095D01*
X57553425Y-50673095D02*
X57601044Y-50577857D01*
X57601044Y-50577857D02*
X57648663Y-50530238D01*
X57648663Y-50530238D02*
X57743901Y-50482619D01*
X57743901Y-50482619D02*
X57981996Y-50482619D01*
X57981996Y-50482619D02*
X58124853Y-50530238D01*
X58410568Y-50482619D02*
X58981996Y-50482619D01*
X58696282Y-51482619D02*
X58696282Y-50482619D01*
X53489949Y-49403000D02*
X53632806Y-49450619D01*
X53632806Y-49450619D02*
X53870901Y-49450619D01*
X53870901Y-49450619D02*
X53966139Y-49403000D01*
X53966139Y-49403000D02*
X54013758Y-49355380D01*
X54013758Y-49355380D02*
X54061377Y-49260142D01*
X54061377Y-49260142D02*
X54061377Y-49164904D01*
X54061377Y-49164904D02*
X54013758Y-49069666D01*
X54013758Y-49069666D02*
X53966139Y-49022047D01*
X53966139Y-49022047D02*
X53870901Y-48974428D01*
X53870901Y-48974428D02*
X53680425Y-48926809D01*
X53680425Y-48926809D02*
X53585187Y-48879190D01*
X53585187Y-48879190D02*
X53537568Y-48831571D01*
X53537568Y-48831571D02*
X53489949Y-48736333D01*
X53489949Y-48736333D02*
X53489949Y-48641095D01*
X53489949Y-48641095D02*
X53537568Y-48545857D01*
X53537568Y-48545857D02*
X53585187Y-48498238D01*
X53585187Y-48498238D02*
X53680425Y-48450619D01*
X53680425Y-48450619D02*
X53918520Y-48450619D01*
X53918520Y-48450619D02*
X54061377Y-48498238D01*
X54489949Y-49450619D02*
X54489949Y-48450619D01*
X54489949Y-48450619D02*
X54870901Y-48450619D01*
X54870901Y-48450619D02*
X54966139Y-48498238D01*
X54966139Y-48498238D02*
X55013758Y-48545857D01*
X55013758Y-48545857D02*
X55061377Y-48641095D01*
X55061377Y-48641095D02*
X55061377Y-48783952D01*
X55061377Y-48783952D02*
X55013758Y-48879190D01*
X55013758Y-48879190D02*
X54966139Y-48926809D01*
X54966139Y-48926809D02*
X54870901Y-48974428D01*
X54870901Y-48974428D02*
X54489949Y-48974428D01*
X55489949Y-49450619D02*
X55489949Y-48450619D01*
X55728044Y-49545857D02*
X56489948Y-49545857D01*
X57299472Y-49355380D02*
X57251853Y-49403000D01*
X57251853Y-49403000D02*
X57108996Y-49450619D01*
X57108996Y-49450619D02*
X57013758Y-49450619D01*
X57013758Y-49450619D02*
X56870901Y-49403000D01*
X56870901Y-49403000D02*
X56775663Y-49307761D01*
X56775663Y-49307761D02*
X56728044Y-49212523D01*
X56728044Y-49212523D02*
X56680425Y-49022047D01*
X56680425Y-49022047D02*
X56680425Y-48879190D01*
X56680425Y-48879190D02*
X56728044Y-48688714D01*
X56728044Y-48688714D02*
X56775663Y-48593476D01*
X56775663Y-48593476D02*
X56870901Y-48498238D01*
X56870901Y-48498238D02*
X57013758Y-48450619D01*
X57013758Y-48450619D02*
X57108996Y-48450619D01*
X57108996Y-48450619D02*
X57251853Y-48498238D01*
X57251853Y-48498238D02*
X57299472Y-48545857D01*
X57680425Y-49403000D02*
X57823282Y-49450619D01*
X57823282Y-49450619D02*
X58061377Y-49450619D01*
X58061377Y-49450619D02*
X58156615Y-49403000D01*
X58156615Y-49403000D02*
X58204234Y-49355380D01*
X58204234Y-49355380D02*
X58251853Y-49260142D01*
X58251853Y-49260142D02*
X58251853Y-49164904D01*
X58251853Y-49164904D02*
X58204234Y-49069666D01*
X58204234Y-49069666D02*
X58156615Y-49022047D01*
X58156615Y-49022047D02*
X58061377Y-48974428D01*
X58061377Y-48974428D02*
X57870901Y-48926809D01*
X57870901Y-48926809D02*
X57775663Y-48879190D01*
X57775663Y-48879190D02*
X57728044Y-48831571D01*
X57728044Y-48831571D02*
X57680425Y-48736333D01*
X57680425Y-48736333D02*
X57680425Y-48641095D01*
X57680425Y-48641095D02*
X57728044Y-48545857D01*
X57728044Y-48545857D02*
X57775663Y-48498238D01*
X57775663Y-48498238D02*
X57870901Y-48450619D01*
X57870901Y-48450619D02*
X58108996Y-48450619D01*
X58108996Y-48450619D02*
X58251853Y-48498238D01*
X53664568Y-47037666D02*
X54426473Y-47037666D01*
X54045520Y-47418619D02*
X54045520Y-46656714D01*
X54807425Y-46418619D02*
X55426472Y-46418619D01*
X55426472Y-46418619D02*
X55093139Y-46799571D01*
X55093139Y-46799571D02*
X55235996Y-46799571D01*
X55235996Y-46799571D02*
X55331234Y-46847190D01*
X55331234Y-46847190D02*
X55378853Y-46894809D01*
X55378853Y-46894809D02*
X55426472Y-46990047D01*
X55426472Y-46990047D02*
X55426472Y-47228142D01*
X55426472Y-47228142D02*
X55378853Y-47323380D01*
X55378853Y-47323380D02*
X55331234Y-47371000D01*
X55331234Y-47371000D02*
X55235996Y-47418619D01*
X55235996Y-47418619D02*
X54950282Y-47418619D01*
X54950282Y-47418619D02*
X54855044Y-47371000D01*
X54855044Y-47371000D02*
X54807425Y-47323380D01*
X55712187Y-46418619D02*
X56045520Y-47418619D01*
X56045520Y-47418619D02*
X56378853Y-46418619D01*
X56616949Y-46418619D02*
X57235996Y-46418619D01*
X57235996Y-46418619D02*
X56902663Y-46799571D01*
X56902663Y-46799571D02*
X57045520Y-46799571D01*
X57045520Y-46799571D02*
X57140758Y-46847190D01*
X57140758Y-46847190D02*
X57188377Y-46894809D01*
X57188377Y-46894809D02*
X57235996Y-46990047D01*
X57235996Y-46990047D02*
X57235996Y-47228142D01*
X57235996Y-47228142D02*
X57188377Y-47323380D01*
X57188377Y-47323380D02*
X57140758Y-47371000D01*
X57140758Y-47371000D02*
X57045520Y-47418619D01*
X57045520Y-47418619D02*
X56759806Y-47418619D01*
X56759806Y-47418619D02*
X56664568Y-47371000D01*
X56664568Y-47371000D02*
X56616949Y-47323380D01*
X46250949Y-53721000D02*
X46393806Y-53768619D01*
X46393806Y-53768619D02*
X46631901Y-53768619D01*
X46631901Y-53768619D02*
X46727139Y-53721000D01*
X46727139Y-53721000D02*
X46774758Y-53673380D01*
X46774758Y-53673380D02*
X46822377Y-53578142D01*
X46822377Y-53578142D02*
X46822377Y-53482904D01*
X46822377Y-53482904D02*
X46774758Y-53387666D01*
X46774758Y-53387666D02*
X46727139Y-53340047D01*
X46727139Y-53340047D02*
X46631901Y-53292428D01*
X46631901Y-53292428D02*
X46441425Y-53244809D01*
X46441425Y-53244809D02*
X46346187Y-53197190D01*
X46346187Y-53197190D02*
X46298568Y-53149571D01*
X46298568Y-53149571D02*
X46250949Y-53054333D01*
X46250949Y-53054333D02*
X46250949Y-52959095D01*
X46250949Y-52959095D02*
X46298568Y-52863857D01*
X46298568Y-52863857D02*
X46346187Y-52816238D01*
X46346187Y-52816238D02*
X46441425Y-52768619D01*
X46441425Y-52768619D02*
X46679520Y-52768619D01*
X46679520Y-52768619D02*
X46822377Y-52816238D01*
X47250949Y-53768619D02*
X47250949Y-52768619D01*
X47250949Y-52768619D02*
X47631901Y-52768619D01*
X47631901Y-52768619D02*
X47727139Y-52816238D01*
X47727139Y-52816238D02*
X47774758Y-52863857D01*
X47774758Y-52863857D02*
X47822377Y-52959095D01*
X47822377Y-52959095D02*
X47822377Y-53101952D01*
X47822377Y-53101952D02*
X47774758Y-53197190D01*
X47774758Y-53197190D02*
X47727139Y-53244809D01*
X47727139Y-53244809D02*
X47631901Y-53292428D01*
X47631901Y-53292428D02*
X47250949Y-53292428D01*
X48250949Y-53768619D02*
X48250949Y-52768619D01*
X48489044Y-53863857D02*
X49250948Y-53863857D01*
X49441425Y-53721000D02*
X49584282Y-53768619D01*
X49584282Y-53768619D02*
X49822377Y-53768619D01*
X49822377Y-53768619D02*
X49917615Y-53721000D01*
X49917615Y-53721000D02*
X49965234Y-53673380D01*
X49965234Y-53673380D02*
X50012853Y-53578142D01*
X50012853Y-53578142D02*
X50012853Y-53482904D01*
X50012853Y-53482904D02*
X49965234Y-53387666D01*
X49965234Y-53387666D02*
X49917615Y-53340047D01*
X49917615Y-53340047D02*
X49822377Y-53292428D01*
X49822377Y-53292428D02*
X49631901Y-53244809D01*
X49631901Y-53244809D02*
X49536663Y-53197190D01*
X49536663Y-53197190D02*
X49489044Y-53149571D01*
X49489044Y-53149571D02*
X49441425Y-53054333D01*
X49441425Y-53054333D02*
X49441425Y-52959095D01*
X49441425Y-52959095D02*
X49489044Y-52863857D01*
X49489044Y-52863857D02*
X49536663Y-52816238D01*
X49536663Y-52816238D02*
X49631901Y-52768619D01*
X49631901Y-52768619D02*
X49869996Y-52768619D01*
X49869996Y-52768619D02*
X50012853Y-52816238D01*
X51012853Y-53673380D02*
X50965234Y-53721000D01*
X50965234Y-53721000D02*
X50822377Y-53768619D01*
X50822377Y-53768619D02*
X50727139Y-53768619D01*
X50727139Y-53768619D02*
X50584282Y-53721000D01*
X50584282Y-53721000D02*
X50489044Y-53625761D01*
X50489044Y-53625761D02*
X50441425Y-53530523D01*
X50441425Y-53530523D02*
X50393806Y-53340047D01*
X50393806Y-53340047D02*
X50393806Y-53197190D01*
X50393806Y-53197190D02*
X50441425Y-53006714D01*
X50441425Y-53006714D02*
X50489044Y-52911476D01*
X50489044Y-52911476D02*
X50584282Y-52816238D01*
X50584282Y-52816238D02*
X50727139Y-52768619D01*
X50727139Y-52768619D02*
X50822377Y-52768619D01*
X50822377Y-52768619D02*
X50965234Y-52816238D01*
X50965234Y-52816238D02*
X51012853Y-52863857D01*
X51917615Y-53768619D02*
X51441425Y-53768619D01*
X51441425Y-53768619D02*
X51441425Y-52768619D01*
X52250949Y-53768619D02*
X52250949Y-52768619D01*
X52822377Y-53768619D02*
X52393806Y-53197190D01*
X52822377Y-52768619D02*
X52250949Y-53340047D01*
X46298568Y-51212809D02*
X46631901Y-51212809D01*
X46774758Y-51736619D02*
X46298568Y-51736619D01*
X46298568Y-51736619D02*
X46298568Y-50736619D01*
X46298568Y-50736619D02*
X46774758Y-50736619D01*
X47108092Y-50736619D02*
X47774758Y-51736619D01*
X47774758Y-50736619D02*
X47108092Y-51736619D01*
X48012854Y-50736619D02*
X48584282Y-50736619D01*
X48298568Y-51736619D02*
X48298568Y-50736619D01*
X49489044Y-51736619D02*
X49155711Y-51260428D01*
X48917616Y-51736619D02*
X48917616Y-50736619D01*
X48917616Y-50736619D02*
X49298568Y-50736619D01*
X49298568Y-50736619D02*
X49393806Y-50784238D01*
X49393806Y-50784238D02*
X49441425Y-50831857D01*
X49441425Y-50831857D02*
X49489044Y-50927095D01*
X49489044Y-50927095D02*
X49489044Y-51069952D01*
X49489044Y-51069952D02*
X49441425Y-51165190D01*
X49441425Y-51165190D02*
X49393806Y-51212809D01*
X49393806Y-51212809D02*
X49298568Y-51260428D01*
X49298568Y-51260428D02*
X48917616Y-51260428D01*
X49869997Y-51450904D02*
X50346187Y-51450904D01*
X49774759Y-51736619D02*
X50108092Y-50736619D01*
X50108092Y-50736619D02*
X50441425Y-51736619D01*
X46377949Y-49784000D02*
X46520806Y-49831619D01*
X46520806Y-49831619D02*
X46758901Y-49831619D01*
X46758901Y-49831619D02*
X46854139Y-49784000D01*
X46854139Y-49784000D02*
X46901758Y-49736380D01*
X46901758Y-49736380D02*
X46949377Y-49641142D01*
X46949377Y-49641142D02*
X46949377Y-49545904D01*
X46949377Y-49545904D02*
X46901758Y-49450666D01*
X46901758Y-49450666D02*
X46854139Y-49403047D01*
X46854139Y-49403047D02*
X46758901Y-49355428D01*
X46758901Y-49355428D02*
X46568425Y-49307809D01*
X46568425Y-49307809D02*
X46473187Y-49260190D01*
X46473187Y-49260190D02*
X46425568Y-49212571D01*
X46425568Y-49212571D02*
X46377949Y-49117333D01*
X46377949Y-49117333D02*
X46377949Y-49022095D01*
X46377949Y-49022095D02*
X46425568Y-48926857D01*
X46425568Y-48926857D02*
X46473187Y-48879238D01*
X46473187Y-48879238D02*
X46568425Y-48831619D01*
X46568425Y-48831619D02*
X46806520Y-48831619D01*
X46806520Y-48831619D02*
X46949377Y-48879238D01*
X47377949Y-49831619D02*
X47377949Y-48831619D01*
X47377949Y-48831619D02*
X47758901Y-48831619D01*
X47758901Y-48831619D02*
X47854139Y-48879238D01*
X47854139Y-48879238D02*
X47901758Y-48926857D01*
X47901758Y-48926857D02*
X47949377Y-49022095D01*
X47949377Y-49022095D02*
X47949377Y-49164952D01*
X47949377Y-49164952D02*
X47901758Y-49260190D01*
X47901758Y-49260190D02*
X47854139Y-49307809D01*
X47854139Y-49307809D02*
X47758901Y-49355428D01*
X47758901Y-49355428D02*
X47377949Y-49355428D01*
X48377949Y-49831619D02*
X48377949Y-48831619D01*
X48616044Y-49926857D02*
X49377948Y-49926857D01*
X49616044Y-49831619D02*
X49616044Y-48831619D01*
X49616044Y-48831619D02*
X49854139Y-48831619D01*
X49854139Y-48831619D02*
X49996996Y-48879238D01*
X49996996Y-48879238D02*
X50092234Y-48974476D01*
X50092234Y-48974476D02*
X50139853Y-49069714D01*
X50139853Y-49069714D02*
X50187472Y-49260190D01*
X50187472Y-49260190D02*
X50187472Y-49403047D01*
X50187472Y-49403047D02*
X50139853Y-49593523D01*
X50139853Y-49593523D02*
X50092234Y-49688761D01*
X50092234Y-49688761D02*
X49996996Y-49784000D01*
X49996996Y-49784000D02*
X49854139Y-49831619D01*
X49854139Y-49831619D02*
X49616044Y-49831619D01*
X51187472Y-49736380D02*
X51139853Y-49784000D01*
X51139853Y-49784000D02*
X50996996Y-49831619D01*
X50996996Y-49831619D02*
X50901758Y-49831619D01*
X50901758Y-49831619D02*
X50758901Y-49784000D01*
X50758901Y-49784000D02*
X50663663Y-49688761D01*
X50663663Y-49688761D02*
X50616044Y-49593523D01*
X50616044Y-49593523D02*
X50568425Y-49403047D01*
X50568425Y-49403047D02*
X50568425Y-49260190D01*
X50568425Y-49260190D02*
X50616044Y-49069714D01*
X50616044Y-49069714D02*
X50663663Y-48974476D01*
X50663663Y-48974476D02*
X50758901Y-48879238D01*
X50758901Y-48879238D02*
X50901758Y-48831619D01*
X50901758Y-48831619D02*
X50996996Y-48831619D01*
X50996996Y-48831619D02*
X51139853Y-48879238D01*
X51139853Y-48879238D02*
X51187472Y-48926857D01*
D11*
X47083844Y-46522209D02*
X46960034Y-46460304D01*
X46960034Y-46460304D02*
X46774320Y-46460304D01*
X46774320Y-46460304D02*
X46588606Y-46522209D01*
X46588606Y-46522209D02*
X46464796Y-46646019D01*
X46464796Y-46646019D02*
X46402891Y-46769828D01*
X46402891Y-46769828D02*
X46340987Y-47017447D01*
X46340987Y-47017447D02*
X46340987Y-47203161D01*
X46340987Y-47203161D02*
X46402891Y-47450780D01*
X46402891Y-47450780D02*
X46464796Y-47574590D01*
X46464796Y-47574590D02*
X46588606Y-47698400D01*
X46588606Y-47698400D02*
X46774320Y-47760304D01*
X46774320Y-47760304D02*
X46898129Y-47760304D01*
X46898129Y-47760304D02*
X47083844Y-47698400D01*
X47083844Y-47698400D02*
X47145748Y-47636495D01*
X47145748Y-47636495D02*
X47145748Y-47203161D01*
X47145748Y-47203161D02*
X46898129Y-47203161D01*
X47702891Y-47760304D02*
X47702891Y-46460304D01*
X47702891Y-46460304D02*
X48445748Y-47760304D01*
X48445748Y-47760304D02*
X48445748Y-46460304D01*
X49064796Y-47760304D02*
X49064796Y-46460304D01*
X49064796Y-46460304D02*
X49374320Y-46460304D01*
X49374320Y-46460304D02*
X49560034Y-46522209D01*
X49560034Y-46522209D02*
X49683844Y-46646019D01*
X49683844Y-46646019D02*
X49745749Y-46769828D01*
X49745749Y-46769828D02*
X49807653Y-47017447D01*
X49807653Y-47017447D02*
X49807653Y-47203161D01*
X49807653Y-47203161D02*
X49745749Y-47450780D01*
X49745749Y-47450780D02*
X49683844Y-47574590D01*
X49683844Y-47574590D02*
X49560034Y-47698400D01*
X49560034Y-47698400D02*
X49374320Y-47760304D01*
X49374320Y-47760304D02*
X49064796Y-47760304D01*
D12*
X115311819Y-62198666D02*
X114835628Y-62531999D01*
X115311819Y-62770094D02*
X114311819Y-62770094D01*
X114311819Y-62770094D02*
X114311819Y-62389142D01*
X114311819Y-62389142D02*
X114359438Y-62293904D01*
X114359438Y-62293904D02*
X114407057Y-62246285D01*
X114407057Y-62246285D02*
X114502295Y-62198666D01*
X114502295Y-62198666D02*
X114645152Y-62198666D01*
X114645152Y-62198666D02*
X114740390Y-62246285D01*
X114740390Y-62246285D02*
X114788009Y-62293904D01*
X114788009Y-62293904D02*
X114835628Y-62389142D01*
X114835628Y-62389142D02*
X114835628Y-62770094D01*
X114407057Y-61817713D02*
X114359438Y-61770094D01*
X114359438Y-61770094D02*
X114311819Y-61674856D01*
X114311819Y-61674856D02*
X114311819Y-61436761D01*
X114311819Y-61436761D02*
X114359438Y-61341523D01*
X114359438Y-61341523D02*
X114407057Y-61293904D01*
X114407057Y-61293904D02*
X114502295Y-61246285D01*
X114502295Y-61246285D02*
X114597533Y-61246285D01*
X114597533Y-61246285D02*
X114740390Y-61293904D01*
X114740390Y-61293904D02*
X115311819Y-61865332D01*
X115311819Y-61865332D02*
X115311819Y-61246285D01*
X110146819Y-62224666D02*
X109670628Y-62557999D01*
X110146819Y-62796094D02*
X109146819Y-62796094D01*
X109146819Y-62796094D02*
X109146819Y-62415142D01*
X109146819Y-62415142D02*
X109194438Y-62319904D01*
X109194438Y-62319904D02*
X109242057Y-62272285D01*
X109242057Y-62272285D02*
X109337295Y-62224666D01*
X109337295Y-62224666D02*
X109480152Y-62224666D01*
X109480152Y-62224666D02*
X109575390Y-62272285D01*
X109575390Y-62272285D02*
X109623009Y-62319904D01*
X109623009Y-62319904D02*
X109670628Y-62415142D01*
X109670628Y-62415142D02*
X109670628Y-62796094D01*
X110146819Y-61272285D02*
X110146819Y-61843713D01*
X110146819Y-61557999D02*
X109146819Y-61557999D01*
X109146819Y-61557999D02*
X109289676Y-61653237D01*
X109289676Y-61653237D02*
X109384914Y-61748475D01*
X109384914Y-61748475D02*
X109432533Y-61843713D01*
X44238095Y-27154819D02*
X44238095Y-26154819D01*
X44238095Y-26631009D02*
X44809523Y-26631009D01*
X44809523Y-27154819D02*
X44809523Y-26154819D01*
X45714285Y-26488152D02*
X45714285Y-27154819D01*
X45476190Y-26107200D02*
X45238095Y-26821485D01*
X45238095Y-26821485D02*
X45857142Y-26821485D01*
X121666095Y-27054819D02*
X121666095Y-26054819D01*
X121666095Y-26531009D02*
X122237523Y-26531009D01*
X122237523Y-27054819D02*
X122237523Y-26054819D01*
X123237523Y-27054819D02*
X122666095Y-27054819D01*
X122951809Y-27054819D02*
X122951809Y-26054819D01*
X122951809Y-26054819D02*
X122856571Y-26197676D01*
X122856571Y-26197676D02*
X122761333Y-26292914D01*
X122761333Y-26292914D02*
X122666095Y-26340533D01*
X110680655Y-123375950D02*
X110823512Y-123423569D01*
X110823512Y-123423569D02*
X111061607Y-123423569D01*
X111061607Y-123423569D02*
X111156845Y-123375950D01*
X111156845Y-123375950D02*
X111204464Y-123328330D01*
X111204464Y-123328330D02*
X111252083Y-123233092D01*
X111252083Y-123233092D02*
X111252083Y-123137854D01*
X111252083Y-123137854D02*
X111204464Y-123042616D01*
X111204464Y-123042616D02*
X111156845Y-122994997D01*
X111156845Y-122994997D02*
X111061607Y-122947378D01*
X111061607Y-122947378D02*
X110871131Y-122899759D01*
X110871131Y-122899759D02*
X110775893Y-122852140D01*
X110775893Y-122852140D02*
X110728274Y-122804521D01*
X110728274Y-122804521D02*
X110680655Y-122709283D01*
X110680655Y-122709283D02*
X110680655Y-122614045D01*
X110680655Y-122614045D02*
X110728274Y-122518807D01*
X110728274Y-122518807D02*
X110775893Y-122471188D01*
X110775893Y-122471188D02*
X110871131Y-122423569D01*
X110871131Y-122423569D02*
X111109226Y-122423569D01*
X111109226Y-122423569D02*
X111252083Y-122471188D01*
X112204464Y-123423569D02*
X111633036Y-123423569D01*
X111918750Y-123423569D02*
X111918750Y-122423569D01*
X111918750Y-122423569D02*
X111823512Y-122566426D01*
X111823512Y-122566426D02*
X111728274Y-122661664D01*
X111728274Y-122661664D02*
X111633036Y-122709283D01*
X113109226Y-122423569D02*
X112633036Y-122423569D01*
X112633036Y-122423569D02*
X112585417Y-122899759D01*
X112585417Y-122899759D02*
X112633036Y-122852140D01*
X112633036Y-122852140D02*
X112728274Y-122804521D01*
X112728274Y-122804521D02*
X112966369Y-122804521D01*
X112966369Y-122804521D02*
X113061607Y-122852140D01*
X113061607Y-122852140D02*
X113109226Y-122899759D01*
X113109226Y-122899759D02*
X113156845Y-122994997D01*
X113156845Y-122994997D02*
X113156845Y-123233092D01*
X113156845Y-123233092D02*
X113109226Y-123328330D01*
X113109226Y-123328330D02*
X113061607Y-123375950D01*
X113061607Y-123375950D02*
X112966369Y-123423569D01*
X112966369Y-123423569D02*
X112728274Y-123423569D01*
X112728274Y-123423569D02*
X112633036Y-123375950D01*
X112633036Y-123375950D02*
X112585417Y-123328330D01*
X73056845Y-104325950D02*
X73199702Y-104373569D01*
X73199702Y-104373569D02*
X73437797Y-104373569D01*
X73437797Y-104373569D02*
X73533035Y-104325950D01*
X73533035Y-104325950D02*
X73580654Y-104278330D01*
X73580654Y-104278330D02*
X73628273Y-104183092D01*
X73628273Y-104183092D02*
X73628273Y-104087854D01*
X73628273Y-104087854D02*
X73580654Y-103992616D01*
X73580654Y-103992616D02*
X73533035Y-103944997D01*
X73533035Y-103944997D02*
X73437797Y-103897378D01*
X73437797Y-103897378D02*
X73247321Y-103849759D01*
X73247321Y-103849759D02*
X73152083Y-103802140D01*
X73152083Y-103802140D02*
X73104464Y-103754521D01*
X73104464Y-103754521D02*
X73056845Y-103659283D01*
X73056845Y-103659283D02*
X73056845Y-103564045D01*
X73056845Y-103564045D02*
X73104464Y-103468807D01*
X73104464Y-103468807D02*
X73152083Y-103421188D01*
X73152083Y-103421188D02*
X73247321Y-103373569D01*
X73247321Y-103373569D02*
X73485416Y-103373569D01*
X73485416Y-103373569D02*
X73628273Y-103421188D01*
X74104464Y-104373569D02*
X74294940Y-104373569D01*
X74294940Y-104373569D02*
X74390178Y-104325950D01*
X74390178Y-104325950D02*
X74437797Y-104278330D01*
X74437797Y-104278330D02*
X74533035Y-104135473D01*
X74533035Y-104135473D02*
X74580654Y-103944997D01*
X74580654Y-103944997D02*
X74580654Y-103564045D01*
X74580654Y-103564045D02*
X74533035Y-103468807D01*
X74533035Y-103468807D02*
X74485416Y-103421188D01*
X74485416Y-103421188D02*
X74390178Y-103373569D01*
X74390178Y-103373569D02*
X74199702Y-103373569D01*
X74199702Y-103373569D02*
X74104464Y-103421188D01*
X74104464Y-103421188D02*
X74056845Y-103468807D01*
X74056845Y-103468807D02*
X74009226Y-103564045D01*
X74009226Y-103564045D02*
X74009226Y-103802140D01*
X74009226Y-103802140D02*
X74056845Y-103897378D01*
X74056845Y-103897378D02*
X74104464Y-103944997D01*
X74104464Y-103944997D02*
X74199702Y-103992616D01*
X74199702Y-103992616D02*
X74390178Y-103992616D01*
X74390178Y-103992616D02*
X74485416Y-103944997D01*
X74485416Y-103944997D02*
X74533035Y-103897378D01*
X74533035Y-103897378D02*
X74580654Y-103802140D01*
X91630655Y-123375950D02*
X91773512Y-123423569D01*
X91773512Y-123423569D02*
X92011607Y-123423569D01*
X92011607Y-123423569D02*
X92106845Y-123375950D01*
X92106845Y-123375950D02*
X92154464Y-123328330D01*
X92154464Y-123328330D02*
X92202083Y-123233092D01*
X92202083Y-123233092D02*
X92202083Y-123137854D01*
X92202083Y-123137854D02*
X92154464Y-123042616D01*
X92154464Y-123042616D02*
X92106845Y-122994997D01*
X92106845Y-122994997D02*
X92011607Y-122947378D01*
X92011607Y-122947378D02*
X91821131Y-122899759D01*
X91821131Y-122899759D02*
X91725893Y-122852140D01*
X91725893Y-122852140D02*
X91678274Y-122804521D01*
X91678274Y-122804521D02*
X91630655Y-122709283D01*
X91630655Y-122709283D02*
X91630655Y-122614045D01*
X91630655Y-122614045D02*
X91678274Y-122518807D01*
X91678274Y-122518807D02*
X91725893Y-122471188D01*
X91725893Y-122471188D02*
X91821131Y-122423569D01*
X91821131Y-122423569D02*
X92059226Y-122423569D01*
X92059226Y-122423569D02*
X92202083Y-122471188D01*
X93154464Y-123423569D02*
X92583036Y-123423569D01*
X92868750Y-123423569D02*
X92868750Y-122423569D01*
X92868750Y-122423569D02*
X92773512Y-122566426D01*
X92773512Y-122566426D02*
X92678274Y-122661664D01*
X92678274Y-122661664D02*
X92583036Y-122709283D01*
X94011607Y-122756902D02*
X94011607Y-123423569D01*
X93773512Y-122375950D02*
X93535417Y-123090235D01*
X93535417Y-123090235D02*
X94154464Y-123090235D01*
X53530655Y-123375950D02*
X53673512Y-123423569D01*
X53673512Y-123423569D02*
X53911607Y-123423569D01*
X53911607Y-123423569D02*
X54006845Y-123375950D01*
X54006845Y-123375950D02*
X54054464Y-123328330D01*
X54054464Y-123328330D02*
X54102083Y-123233092D01*
X54102083Y-123233092D02*
X54102083Y-123137854D01*
X54102083Y-123137854D02*
X54054464Y-123042616D01*
X54054464Y-123042616D02*
X54006845Y-122994997D01*
X54006845Y-122994997D02*
X53911607Y-122947378D01*
X53911607Y-122947378D02*
X53721131Y-122899759D01*
X53721131Y-122899759D02*
X53625893Y-122852140D01*
X53625893Y-122852140D02*
X53578274Y-122804521D01*
X53578274Y-122804521D02*
X53530655Y-122709283D01*
X53530655Y-122709283D02*
X53530655Y-122614045D01*
X53530655Y-122614045D02*
X53578274Y-122518807D01*
X53578274Y-122518807D02*
X53625893Y-122471188D01*
X53625893Y-122471188D02*
X53721131Y-122423569D01*
X53721131Y-122423569D02*
X53959226Y-122423569D01*
X53959226Y-122423569D02*
X54102083Y-122471188D01*
X55054464Y-123423569D02*
X54483036Y-123423569D01*
X54768750Y-123423569D02*
X54768750Y-122423569D01*
X54768750Y-122423569D02*
X54673512Y-122566426D01*
X54673512Y-122566426D02*
X54578274Y-122661664D01*
X54578274Y-122661664D02*
X54483036Y-122709283D01*
X55435417Y-122518807D02*
X55483036Y-122471188D01*
X55483036Y-122471188D02*
X55578274Y-122423569D01*
X55578274Y-122423569D02*
X55816369Y-122423569D01*
X55816369Y-122423569D02*
X55911607Y-122471188D01*
X55911607Y-122471188D02*
X55959226Y-122518807D01*
X55959226Y-122518807D02*
X56006845Y-122614045D01*
X56006845Y-122614045D02*
X56006845Y-122709283D01*
X56006845Y-122709283D02*
X55959226Y-122852140D01*
X55959226Y-122852140D02*
X55387798Y-123423569D01*
X55387798Y-123423569D02*
X56006845Y-123423569D01*
X91630655Y-161475950D02*
X91773512Y-161523569D01*
X91773512Y-161523569D02*
X92011607Y-161523569D01*
X92011607Y-161523569D02*
X92106845Y-161475950D01*
X92106845Y-161475950D02*
X92154464Y-161428330D01*
X92154464Y-161428330D02*
X92202083Y-161333092D01*
X92202083Y-161333092D02*
X92202083Y-161237854D01*
X92202083Y-161237854D02*
X92154464Y-161142616D01*
X92154464Y-161142616D02*
X92106845Y-161094997D01*
X92106845Y-161094997D02*
X92011607Y-161047378D01*
X92011607Y-161047378D02*
X91821131Y-160999759D01*
X91821131Y-160999759D02*
X91725893Y-160952140D01*
X91725893Y-160952140D02*
X91678274Y-160904521D01*
X91678274Y-160904521D02*
X91630655Y-160809283D01*
X91630655Y-160809283D02*
X91630655Y-160714045D01*
X91630655Y-160714045D02*
X91678274Y-160618807D01*
X91678274Y-160618807D02*
X91725893Y-160571188D01*
X91725893Y-160571188D02*
X91821131Y-160523569D01*
X91821131Y-160523569D02*
X92059226Y-160523569D01*
X92059226Y-160523569D02*
X92202083Y-160571188D01*
X92583036Y-160618807D02*
X92630655Y-160571188D01*
X92630655Y-160571188D02*
X92725893Y-160523569D01*
X92725893Y-160523569D02*
X92963988Y-160523569D01*
X92963988Y-160523569D02*
X93059226Y-160571188D01*
X93059226Y-160571188D02*
X93106845Y-160618807D01*
X93106845Y-160618807D02*
X93154464Y-160714045D01*
X93154464Y-160714045D02*
X93154464Y-160809283D01*
X93154464Y-160809283D02*
X93106845Y-160952140D01*
X93106845Y-160952140D02*
X92535417Y-161523569D01*
X92535417Y-161523569D02*
X93154464Y-161523569D01*
X94106845Y-161523569D02*
X93535417Y-161523569D01*
X93821131Y-161523569D02*
X93821131Y-160523569D01*
X93821131Y-160523569D02*
X93725893Y-160666426D01*
X93725893Y-160666426D02*
X93630655Y-160761664D01*
X93630655Y-160761664D02*
X93535417Y-160809283D01*
X111156845Y-85275950D02*
X111299702Y-85323569D01*
X111299702Y-85323569D02*
X111537797Y-85323569D01*
X111537797Y-85323569D02*
X111633035Y-85275950D01*
X111633035Y-85275950D02*
X111680654Y-85228330D01*
X111680654Y-85228330D02*
X111728273Y-85133092D01*
X111728273Y-85133092D02*
X111728273Y-85037854D01*
X111728273Y-85037854D02*
X111680654Y-84942616D01*
X111680654Y-84942616D02*
X111633035Y-84894997D01*
X111633035Y-84894997D02*
X111537797Y-84847378D01*
X111537797Y-84847378D02*
X111347321Y-84799759D01*
X111347321Y-84799759D02*
X111252083Y-84752140D01*
X111252083Y-84752140D02*
X111204464Y-84704521D01*
X111204464Y-84704521D02*
X111156845Y-84609283D01*
X111156845Y-84609283D02*
X111156845Y-84514045D01*
X111156845Y-84514045D02*
X111204464Y-84418807D01*
X111204464Y-84418807D02*
X111252083Y-84371188D01*
X111252083Y-84371188D02*
X111347321Y-84323569D01*
X111347321Y-84323569D02*
X111585416Y-84323569D01*
X111585416Y-84323569D02*
X111728273Y-84371188D01*
X112061607Y-84323569D02*
X112728273Y-84323569D01*
X112728273Y-84323569D02*
X112299702Y-85323569D01*
X54006845Y-66225950D02*
X54149702Y-66273569D01*
X54149702Y-66273569D02*
X54387797Y-66273569D01*
X54387797Y-66273569D02*
X54483035Y-66225950D01*
X54483035Y-66225950D02*
X54530654Y-66178330D01*
X54530654Y-66178330D02*
X54578273Y-66083092D01*
X54578273Y-66083092D02*
X54578273Y-65987854D01*
X54578273Y-65987854D02*
X54530654Y-65892616D01*
X54530654Y-65892616D02*
X54483035Y-65844997D01*
X54483035Y-65844997D02*
X54387797Y-65797378D01*
X54387797Y-65797378D02*
X54197321Y-65749759D01*
X54197321Y-65749759D02*
X54102083Y-65702140D01*
X54102083Y-65702140D02*
X54054464Y-65654521D01*
X54054464Y-65654521D02*
X54006845Y-65559283D01*
X54006845Y-65559283D02*
X54006845Y-65464045D01*
X54006845Y-65464045D02*
X54054464Y-65368807D01*
X54054464Y-65368807D02*
X54102083Y-65321188D01*
X54102083Y-65321188D02*
X54197321Y-65273569D01*
X54197321Y-65273569D02*
X54435416Y-65273569D01*
X54435416Y-65273569D02*
X54578273Y-65321188D01*
X55530654Y-66273569D02*
X54959226Y-66273569D01*
X55244940Y-66273569D02*
X55244940Y-65273569D01*
X55244940Y-65273569D02*
X55149702Y-65416426D01*
X55149702Y-65416426D02*
X55054464Y-65511664D01*
X55054464Y-65511664D02*
X54959226Y-65559283D01*
X91630655Y-142425950D02*
X91773512Y-142473569D01*
X91773512Y-142473569D02*
X92011607Y-142473569D01*
X92011607Y-142473569D02*
X92106845Y-142425950D01*
X92106845Y-142425950D02*
X92154464Y-142378330D01*
X92154464Y-142378330D02*
X92202083Y-142283092D01*
X92202083Y-142283092D02*
X92202083Y-142187854D01*
X92202083Y-142187854D02*
X92154464Y-142092616D01*
X92154464Y-142092616D02*
X92106845Y-142044997D01*
X92106845Y-142044997D02*
X92011607Y-141997378D01*
X92011607Y-141997378D02*
X91821131Y-141949759D01*
X91821131Y-141949759D02*
X91725893Y-141902140D01*
X91725893Y-141902140D02*
X91678274Y-141854521D01*
X91678274Y-141854521D02*
X91630655Y-141759283D01*
X91630655Y-141759283D02*
X91630655Y-141664045D01*
X91630655Y-141664045D02*
X91678274Y-141568807D01*
X91678274Y-141568807D02*
X91725893Y-141521188D01*
X91725893Y-141521188D02*
X91821131Y-141473569D01*
X91821131Y-141473569D02*
X92059226Y-141473569D01*
X92059226Y-141473569D02*
X92202083Y-141521188D01*
X93154464Y-142473569D02*
X92583036Y-142473569D01*
X92868750Y-142473569D02*
X92868750Y-141473569D01*
X92868750Y-141473569D02*
X92773512Y-141616426D01*
X92773512Y-141616426D02*
X92678274Y-141711664D01*
X92678274Y-141711664D02*
X92583036Y-141759283D01*
X93725893Y-141902140D02*
X93630655Y-141854521D01*
X93630655Y-141854521D02*
X93583036Y-141806902D01*
X93583036Y-141806902D02*
X93535417Y-141711664D01*
X93535417Y-141711664D02*
X93535417Y-141664045D01*
X93535417Y-141664045D02*
X93583036Y-141568807D01*
X93583036Y-141568807D02*
X93630655Y-141521188D01*
X93630655Y-141521188D02*
X93725893Y-141473569D01*
X93725893Y-141473569D02*
X93916369Y-141473569D01*
X93916369Y-141473569D02*
X94011607Y-141521188D01*
X94011607Y-141521188D02*
X94059226Y-141568807D01*
X94059226Y-141568807D02*
X94106845Y-141664045D01*
X94106845Y-141664045D02*
X94106845Y-141711664D01*
X94106845Y-141711664D02*
X94059226Y-141806902D01*
X94059226Y-141806902D02*
X94011607Y-141854521D01*
X94011607Y-141854521D02*
X93916369Y-141902140D01*
X93916369Y-141902140D02*
X93725893Y-141902140D01*
X93725893Y-141902140D02*
X93630655Y-141949759D01*
X93630655Y-141949759D02*
X93583036Y-141997378D01*
X93583036Y-141997378D02*
X93535417Y-142092616D01*
X93535417Y-142092616D02*
X93535417Y-142283092D01*
X93535417Y-142283092D02*
X93583036Y-142378330D01*
X93583036Y-142378330D02*
X93630655Y-142425950D01*
X93630655Y-142425950D02*
X93725893Y-142473569D01*
X93725893Y-142473569D02*
X93916369Y-142473569D01*
X93916369Y-142473569D02*
X94011607Y-142425950D01*
X94011607Y-142425950D02*
X94059226Y-142378330D01*
X94059226Y-142378330D02*
X94106845Y-142283092D01*
X94106845Y-142283092D02*
X94106845Y-142092616D01*
X94106845Y-142092616D02*
X94059226Y-141997378D01*
X94059226Y-141997378D02*
X94011607Y-141949759D01*
X94011607Y-141949759D02*
X93916369Y-141902140D01*
X54006845Y-104325950D02*
X54149702Y-104373569D01*
X54149702Y-104373569D02*
X54387797Y-104373569D01*
X54387797Y-104373569D02*
X54483035Y-104325950D01*
X54483035Y-104325950D02*
X54530654Y-104278330D01*
X54530654Y-104278330D02*
X54578273Y-104183092D01*
X54578273Y-104183092D02*
X54578273Y-104087854D01*
X54578273Y-104087854D02*
X54530654Y-103992616D01*
X54530654Y-103992616D02*
X54483035Y-103944997D01*
X54483035Y-103944997D02*
X54387797Y-103897378D01*
X54387797Y-103897378D02*
X54197321Y-103849759D01*
X54197321Y-103849759D02*
X54102083Y-103802140D01*
X54102083Y-103802140D02*
X54054464Y-103754521D01*
X54054464Y-103754521D02*
X54006845Y-103659283D01*
X54006845Y-103659283D02*
X54006845Y-103564045D01*
X54006845Y-103564045D02*
X54054464Y-103468807D01*
X54054464Y-103468807D02*
X54102083Y-103421188D01*
X54102083Y-103421188D02*
X54197321Y-103373569D01*
X54197321Y-103373569D02*
X54435416Y-103373569D01*
X54435416Y-103373569D02*
X54578273Y-103421188D01*
X55149702Y-103802140D02*
X55054464Y-103754521D01*
X55054464Y-103754521D02*
X55006845Y-103706902D01*
X55006845Y-103706902D02*
X54959226Y-103611664D01*
X54959226Y-103611664D02*
X54959226Y-103564045D01*
X54959226Y-103564045D02*
X55006845Y-103468807D01*
X55006845Y-103468807D02*
X55054464Y-103421188D01*
X55054464Y-103421188D02*
X55149702Y-103373569D01*
X55149702Y-103373569D02*
X55340178Y-103373569D01*
X55340178Y-103373569D02*
X55435416Y-103421188D01*
X55435416Y-103421188D02*
X55483035Y-103468807D01*
X55483035Y-103468807D02*
X55530654Y-103564045D01*
X55530654Y-103564045D02*
X55530654Y-103611664D01*
X55530654Y-103611664D02*
X55483035Y-103706902D01*
X55483035Y-103706902D02*
X55435416Y-103754521D01*
X55435416Y-103754521D02*
X55340178Y-103802140D01*
X55340178Y-103802140D02*
X55149702Y-103802140D01*
X55149702Y-103802140D02*
X55054464Y-103849759D01*
X55054464Y-103849759D02*
X55006845Y-103897378D01*
X55006845Y-103897378D02*
X54959226Y-103992616D01*
X54959226Y-103992616D02*
X54959226Y-104183092D01*
X54959226Y-104183092D02*
X55006845Y-104278330D01*
X55006845Y-104278330D02*
X55054464Y-104325950D01*
X55054464Y-104325950D02*
X55149702Y-104373569D01*
X55149702Y-104373569D02*
X55340178Y-104373569D01*
X55340178Y-104373569D02*
X55435416Y-104325950D01*
X55435416Y-104325950D02*
X55483035Y-104278330D01*
X55483035Y-104278330D02*
X55530654Y-104183092D01*
X55530654Y-104183092D02*
X55530654Y-103992616D01*
X55530654Y-103992616D02*
X55483035Y-103897378D01*
X55483035Y-103897378D02*
X55435416Y-103849759D01*
X55435416Y-103849759D02*
X55340178Y-103802140D01*
X110680655Y-104325950D02*
X110823512Y-104373569D01*
X110823512Y-104373569D02*
X111061607Y-104373569D01*
X111061607Y-104373569D02*
X111156845Y-104325950D01*
X111156845Y-104325950D02*
X111204464Y-104278330D01*
X111204464Y-104278330D02*
X111252083Y-104183092D01*
X111252083Y-104183092D02*
X111252083Y-104087854D01*
X111252083Y-104087854D02*
X111204464Y-103992616D01*
X111204464Y-103992616D02*
X111156845Y-103944997D01*
X111156845Y-103944997D02*
X111061607Y-103897378D01*
X111061607Y-103897378D02*
X110871131Y-103849759D01*
X110871131Y-103849759D02*
X110775893Y-103802140D01*
X110775893Y-103802140D02*
X110728274Y-103754521D01*
X110728274Y-103754521D02*
X110680655Y-103659283D01*
X110680655Y-103659283D02*
X110680655Y-103564045D01*
X110680655Y-103564045D02*
X110728274Y-103468807D01*
X110728274Y-103468807D02*
X110775893Y-103421188D01*
X110775893Y-103421188D02*
X110871131Y-103373569D01*
X110871131Y-103373569D02*
X111109226Y-103373569D01*
X111109226Y-103373569D02*
X111252083Y-103421188D01*
X112204464Y-104373569D02*
X111633036Y-104373569D01*
X111918750Y-104373569D02*
X111918750Y-103373569D01*
X111918750Y-103373569D02*
X111823512Y-103516426D01*
X111823512Y-103516426D02*
X111728274Y-103611664D01*
X111728274Y-103611664D02*
X111633036Y-103659283D01*
X113156845Y-104373569D02*
X112585417Y-104373569D01*
X112871131Y-104373569D02*
X112871131Y-103373569D01*
X112871131Y-103373569D02*
X112775893Y-103516426D01*
X112775893Y-103516426D02*
X112680655Y-103611664D01*
X112680655Y-103611664D02*
X112585417Y-103659283D01*
X92106845Y-66225950D02*
X92249702Y-66273569D01*
X92249702Y-66273569D02*
X92487797Y-66273569D01*
X92487797Y-66273569D02*
X92583035Y-66225950D01*
X92583035Y-66225950D02*
X92630654Y-66178330D01*
X92630654Y-66178330D02*
X92678273Y-66083092D01*
X92678273Y-66083092D02*
X92678273Y-65987854D01*
X92678273Y-65987854D02*
X92630654Y-65892616D01*
X92630654Y-65892616D02*
X92583035Y-65844997D01*
X92583035Y-65844997D02*
X92487797Y-65797378D01*
X92487797Y-65797378D02*
X92297321Y-65749759D01*
X92297321Y-65749759D02*
X92202083Y-65702140D01*
X92202083Y-65702140D02*
X92154464Y-65654521D01*
X92154464Y-65654521D02*
X92106845Y-65559283D01*
X92106845Y-65559283D02*
X92106845Y-65464045D01*
X92106845Y-65464045D02*
X92154464Y-65368807D01*
X92154464Y-65368807D02*
X92202083Y-65321188D01*
X92202083Y-65321188D02*
X92297321Y-65273569D01*
X92297321Y-65273569D02*
X92535416Y-65273569D01*
X92535416Y-65273569D02*
X92678273Y-65321188D01*
X93011607Y-65273569D02*
X93630654Y-65273569D01*
X93630654Y-65273569D02*
X93297321Y-65654521D01*
X93297321Y-65654521D02*
X93440178Y-65654521D01*
X93440178Y-65654521D02*
X93535416Y-65702140D01*
X93535416Y-65702140D02*
X93583035Y-65749759D01*
X93583035Y-65749759D02*
X93630654Y-65844997D01*
X93630654Y-65844997D02*
X93630654Y-66083092D01*
X93630654Y-66083092D02*
X93583035Y-66178330D01*
X93583035Y-66178330D02*
X93535416Y-66225950D01*
X93535416Y-66225950D02*
X93440178Y-66273569D01*
X93440178Y-66273569D02*
X93154464Y-66273569D01*
X93154464Y-66273569D02*
X93059226Y-66225950D01*
X93059226Y-66225950D02*
X93011607Y-66178330D01*
X72580655Y-123375950D02*
X72723512Y-123423569D01*
X72723512Y-123423569D02*
X72961607Y-123423569D01*
X72961607Y-123423569D02*
X73056845Y-123375950D01*
X73056845Y-123375950D02*
X73104464Y-123328330D01*
X73104464Y-123328330D02*
X73152083Y-123233092D01*
X73152083Y-123233092D02*
X73152083Y-123137854D01*
X73152083Y-123137854D02*
X73104464Y-123042616D01*
X73104464Y-123042616D02*
X73056845Y-122994997D01*
X73056845Y-122994997D02*
X72961607Y-122947378D01*
X72961607Y-122947378D02*
X72771131Y-122899759D01*
X72771131Y-122899759D02*
X72675893Y-122852140D01*
X72675893Y-122852140D02*
X72628274Y-122804521D01*
X72628274Y-122804521D02*
X72580655Y-122709283D01*
X72580655Y-122709283D02*
X72580655Y-122614045D01*
X72580655Y-122614045D02*
X72628274Y-122518807D01*
X72628274Y-122518807D02*
X72675893Y-122471188D01*
X72675893Y-122471188D02*
X72771131Y-122423569D01*
X72771131Y-122423569D02*
X73009226Y-122423569D01*
X73009226Y-122423569D02*
X73152083Y-122471188D01*
X74104464Y-123423569D02*
X73533036Y-123423569D01*
X73818750Y-123423569D02*
X73818750Y-122423569D01*
X73818750Y-122423569D02*
X73723512Y-122566426D01*
X73723512Y-122566426D02*
X73628274Y-122661664D01*
X73628274Y-122661664D02*
X73533036Y-122709283D01*
X74437798Y-122423569D02*
X75056845Y-122423569D01*
X75056845Y-122423569D02*
X74723512Y-122804521D01*
X74723512Y-122804521D02*
X74866369Y-122804521D01*
X74866369Y-122804521D02*
X74961607Y-122852140D01*
X74961607Y-122852140D02*
X75009226Y-122899759D01*
X75009226Y-122899759D02*
X75056845Y-122994997D01*
X75056845Y-122994997D02*
X75056845Y-123233092D01*
X75056845Y-123233092D02*
X75009226Y-123328330D01*
X75009226Y-123328330D02*
X74961607Y-123375950D01*
X74961607Y-123375950D02*
X74866369Y-123423569D01*
X74866369Y-123423569D02*
X74580655Y-123423569D01*
X74580655Y-123423569D02*
X74485417Y-123375950D01*
X74485417Y-123375950D02*
X74437798Y-123328330D01*
X110585417Y-74225950D02*
X110728274Y-74273569D01*
X110728274Y-74273569D02*
X110966369Y-74273569D01*
X110966369Y-74273569D02*
X111061607Y-74225950D01*
X111061607Y-74225950D02*
X111109226Y-74178330D01*
X111109226Y-74178330D02*
X111156845Y-74083092D01*
X111156845Y-74083092D02*
X111156845Y-73987854D01*
X111156845Y-73987854D02*
X111109226Y-73892616D01*
X111109226Y-73892616D02*
X111061607Y-73844997D01*
X111061607Y-73844997D02*
X110966369Y-73797378D01*
X110966369Y-73797378D02*
X110775893Y-73749759D01*
X110775893Y-73749759D02*
X110680655Y-73702140D01*
X110680655Y-73702140D02*
X110633036Y-73654521D01*
X110633036Y-73654521D02*
X110585417Y-73559283D01*
X110585417Y-73559283D02*
X110585417Y-73464045D01*
X110585417Y-73464045D02*
X110633036Y-73368807D01*
X110633036Y-73368807D02*
X110680655Y-73321188D01*
X110680655Y-73321188D02*
X110775893Y-73273569D01*
X110775893Y-73273569D02*
X111013988Y-73273569D01*
X111013988Y-73273569D02*
X111156845Y-73321188D01*
X111490179Y-73273569D02*
X111728274Y-74273569D01*
X111728274Y-74273569D02*
X111918750Y-73559283D01*
X111918750Y-73559283D02*
X112109226Y-74273569D01*
X112109226Y-74273569D02*
X112347322Y-73273569D01*
X113252083Y-74273569D02*
X112680655Y-74273569D01*
X112966369Y-74273569D02*
X112966369Y-73273569D01*
X112966369Y-73273569D02*
X112871131Y-73416426D01*
X112871131Y-73416426D02*
X112775893Y-73511664D01*
X112775893Y-73511664D02*
X112680655Y-73559283D01*
X92106845Y-85275950D02*
X92249702Y-85323569D01*
X92249702Y-85323569D02*
X92487797Y-85323569D01*
X92487797Y-85323569D02*
X92583035Y-85275950D01*
X92583035Y-85275950D02*
X92630654Y-85228330D01*
X92630654Y-85228330D02*
X92678273Y-85133092D01*
X92678273Y-85133092D02*
X92678273Y-85037854D01*
X92678273Y-85037854D02*
X92630654Y-84942616D01*
X92630654Y-84942616D02*
X92583035Y-84894997D01*
X92583035Y-84894997D02*
X92487797Y-84847378D01*
X92487797Y-84847378D02*
X92297321Y-84799759D01*
X92297321Y-84799759D02*
X92202083Y-84752140D01*
X92202083Y-84752140D02*
X92154464Y-84704521D01*
X92154464Y-84704521D02*
X92106845Y-84609283D01*
X92106845Y-84609283D02*
X92106845Y-84514045D01*
X92106845Y-84514045D02*
X92154464Y-84418807D01*
X92154464Y-84418807D02*
X92202083Y-84371188D01*
X92202083Y-84371188D02*
X92297321Y-84323569D01*
X92297321Y-84323569D02*
X92535416Y-84323569D01*
X92535416Y-84323569D02*
X92678273Y-84371188D01*
X93535416Y-84323569D02*
X93344940Y-84323569D01*
X93344940Y-84323569D02*
X93249702Y-84371188D01*
X93249702Y-84371188D02*
X93202083Y-84418807D01*
X93202083Y-84418807D02*
X93106845Y-84561664D01*
X93106845Y-84561664D02*
X93059226Y-84752140D01*
X93059226Y-84752140D02*
X93059226Y-85133092D01*
X93059226Y-85133092D02*
X93106845Y-85228330D01*
X93106845Y-85228330D02*
X93154464Y-85275950D01*
X93154464Y-85275950D02*
X93249702Y-85323569D01*
X93249702Y-85323569D02*
X93440178Y-85323569D01*
X93440178Y-85323569D02*
X93535416Y-85275950D01*
X93535416Y-85275950D02*
X93583035Y-85228330D01*
X93583035Y-85228330D02*
X93630654Y-85133092D01*
X93630654Y-85133092D02*
X93630654Y-84894997D01*
X93630654Y-84894997D02*
X93583035Y-84799759D01*
X93583035Y-84799759D02*
X93535416Y-84752140D01*
X93535416Y-84752140D02*
X93440178Y-84704521D01*
X93440178Y-84704521D02*
X93249702Y-84704521D01*
X93249702Y-84704521D02*
X93154464Y-84752140D01*
X93154464Y-84752140D02*
X93106845Y-84799759D01*
X93106845Y-84799759D02*
X93059226Y-84894997D01*
X72580655Y-142425950D02*
X72723512Y-142473569D01*
X72723512Y-142473569D02*
X72961607Y-142473569D01*
X72961607Y-142473569D02*
X73056845Y-142425950D01*
X73056845Y-142425950D02*
X73104464Y-142378330D01*
X73104464Y-142378330D02*
X73152083Y-142283092D01*
X73152083Y-142283092D02*
X73152083Y-142187854D01*
X73152083Y-142187854D02*
X73104464Y-142092616D01*
X73104464Y-142092616D02*
X73056845Y-142044997D01*
X73056845Y-142044997D02*
X72961607Y-141997378D01*
X72961607Y-141997378D02*
X72771131Y-141949759D01*
X72771131Y-141949759D02*
X72675893Y-141902140D01*
X72675893Y-141902140D02*
X72628274Y-141854521D01*
X72628274Y-141854521D02*
X72580655Y-141759283D01*
X72580655Y-141759283D02*
X72580655Y-141664045D01*
X72580655Y-141664045D02*
X72628274Y-141568807D01*
X72628274Y-141568807D02*
X72675893Y-141521188D01*
X72675893Y-141521188D02*
X72771131Y-141473569D01*
X72771131Y-141473569D02*
X73009226Y-141473569D01*
X73009226Y-141473569D02*
X73152083Y-141521188D01*
X74104464Y-142473569D02*
X73533036Y-142473569D01*
X73818750Y-142473569D02*
X73818750Y-141473569D01*
X73818750Y-141473569D02*
X73723512Y-141616426D01*
X73723512Y-141616426D02*
X73628274Y-141711664D01*
X73628274Y-141711664D02*
X73533036Y-141759283D01*
X74437798Y-141473569D02*
X75104464Y-141473569D01*
X75104464Y-141473569D02*
X74675893Y-142473569D01*
X68596666Y-56984819D02*
X68596666Y-57699104D01*
X68596666Y-57699104D02*
X68549047Y-57841961D01*
X68549047Y-57841961D02*
X68453809Y-57937200D01*
X68453809Y-57937200D02*
X68310952Y-57984819D01*
X68310952Y-57984819D02*
X68215714Y-57984819D01*
X69596666Y-57984819D02*
X69025238Y-57984819D01*
X69310952Y-57984819D02*
X69310952Y-56984819D01*
X69310952Y-56984819D02*
X69215714Y-57127676D01*
X69215714Y-57127676D02*
X69120476Y-57222914D01*
X69120476Y-57222914D02*
X69025238Y-57270533D01*
X63055655Y-161475950D02*
X63198512Y-161523569D01*
X63198512Y-161523569D02*
X63436607Y-161523569D01*
X63436607Y-161523569D02*
X63531845Y-161475950D01*
X63531845Y-161475950D02*
X63579464Y-161428330D01*
X63579464Y-161428330D02*
X63627083Y-161333092D01*
X63627083Y-161333092D02*
X63627083Y-161237854D01*
X63627083Y-161237854D02*
X63579464Y-161142616D01*
X63579464Y-161142616D02*
X63531845Y-161094997D01*
X63531845Y-161094997D02*
X63436607Y-161047378D01*
X63436607Y-161047378D02*
X63246131Y-160999759D01*
X63246131Y-160999759D02*
X63150893Y-160952140D01*
X63150893Y-160952140D02*
X63103274Y-160904521D01*
X63103274Y-160904521D02*
X63055655Y-160809283D01*
X63055655Y-160809283D02*
X63055655Y-160714045D01*
X63055655Y-160714045D02*
X63103274Y-160618807D01*
X63103274Y-160618807D02*
X63150893Y-160571188D01*
X63150893Y-160571188D02*
X63246131Y-160523569D01*
X63246131Y-160523569D02*
X63484226Y-160523569D01*
X63484226Y-160523569D02*
X63627083Y-160571188D01*
X64008036Y-160618807D02*
X64055655Y-160571188D01*
X64055655Y-160571188D02*
X64150893Y-160523569D01*
X64150893Y-160523569D02*
X64388988Y-160523569D01*
X64388988Y-160523569D02*
X64484226Y-160571188D01*
X64484226Y-160571188D02*
X64531845Y-160618807D01*
X64531845Y-160618807D02*
X64579464Y-160714045D01*
X64579464Y-160714045D02*
X64579464Y-160809283D01*
X64579464Y-160809283D02*
X64531845Y-160952140D01*
X64531845Y-160952140D02*
X63960417Y-161523569D01*
X63960417Y-161523569D02*
X64579464Y-161523569D01*
X65198512Y-160523569D02*
X65293750Y-160523569D01*
X65293750Y-160523569D02*
X65388988Y-160571188D01*
X65388988Y-160571188D02*
X65436607Y-160618807D01*
X65436607Y-160618807D02*
X65484226Y-160714045D01*
X65484226Y-160714045D02*
X65531845Y-160904521D01*
X65531845Y-160904521D02*
X65531845Y-161142616D01*
X65531845Y-161142616D02*
X65484226Y-161333092D01*
X65484226Y-161333092D02*
X65436607Y-161428330D01*
X65436607Y-161428330D02*
X65388988Y-161475950D01*
X65388988Y-161475950D02*
X65293750Y-161523569D01*
X65293750Y-161523569D02*
X65198512Y-161523569D01*
X65198512Y-161523569D02*
X65103274Y-161475950D01*
X65103274Y-161475950D02*
X65055655Y-161428330D01*
X65055655Y-161428330D02*
X65008036Y-161333092D01*
X65008036Y-161333092D02*
X64960417Y-161142616D01*
X64960417Y-161142616D02*
X64960417Y-160904521D01*
X64960417Y-160904521D02*
X65008036Y-160714045D01*
X65008036Y-160714045D02*
X65055655Y-160618807D01*
X65055655Y-160618807D02*
X65103274Y-160571188D01*
X65103274Y-160571188D02*
X65198512Y-160523569D01*
D13*
X115828482Y-57564719D02*
X115257054Y-57564719D01*
X115542768Y-57564719D02*
X115542768Y-56564719D01*
X115542768Y-56564719D02*
X115447530Y-56707576D01*
X115447530Y-56707576D02*
X115352292Y-56802814D01*
X115352292Y-56802814D02*
X115257054Y-56850433D01*
X116447530Y-56564719D02*
X116542768Y-56564719D01*
X116542768Y-56564719D02*
X116638006Y-56612338D01*
X116638006Y-56612338D02*
X116685625Y-56659957D01*
X116685625Y-56659957D02*
X116733244Y-56755195D01*
X116733244Y-56755195D02*
X116780863Y-56945671D01*
X116780863Y-56945671D02*
X116780863Y-57183766D01*
X116780863Y-57183766D02*
X116733244Y-57374242D01*
X116733244Y-57374242D02*
X116685625Y-57469480D01*
X116685625Y-57469480D02*
X116638006Y-57517100D01*
X116638006Y-57517100D02*
X116542768Y-57564719D01*
X116542768Y-57564719D02*
X116447530Y-57564719D01*
X116447530Y-57564719D02*
X116352292Y-57517100D01*
X116352292Y-57517100D02*
X116304673Y-57469480D01*
X116304673Y-57469480D02*
X116257054Y-57374242D01*
X116257054Y-57374242D02*
X116209435Y-57183766D01*
X116209435Y-57183766D02*
X116209435Y-56945671D01*
X116209435Y-56945671D02*
X116257054Y-56755195D01*
X116257054Y-56755195D02*
X116304673Y-56659957D01*
X116304673Y-56659957D02*
X116352292Y-56612338D01*
X116352292Y-56612338D02*
X116447530Y-56564719D01*
X94197707Y-44198052D02*
X94197707Y-44864719D01*
X93959612Y-43817100D02*
X93721517Y-44531385D01*
X93721517Y-44531385D02*
X94340564Y-44531385D01*
X93673898Y-41324719D02*
X94292945Y-41324719D01*
X94292945Y-41324719D02*
X93959612Y-41705671D01*
X93959612Y-41705671D02*
X94102469Y-41705671D01*
X94102469Y-41705671D02*
X94197707Y-41753290D01*
X94197707Y-41753290D02*
X94245326Y-41800909D01*
X94245326Y-41800909D02*
X94292945Y-41896147D01*
X94292945Y-41896147D02*
X94292945Y-42134242D01*
X94292945Y-42134242D02*
X94245326Y-42229480D01*
X94245326Y-42229480D02*
X94197707Y-42277100D01*
X94197707Y-42277100D02*
X94102469Y-42324719D01*
X94102469Y-42324719D02*
X93816755Y-42324719D01*
X93816755Y-42324719D02*
X93721517Y-42277100D01*
X93721517Y-42277100D02*
X93673898Y-42229480D01*
X115257054Y-41419957D02*
X115304673Y-41372338D01*
X115304673Y-41372338D02*
X115399911Y-41324719D01*
X115399911Y-41324719D02*
X115638006Y-41324719D01*
X115638006Y-41324719D02*
X115733244Y-41372338D01*
X115733244Y-41372338D02*
X115780863Y-41419957D01*
X115780863Y-41419957D02*
X115828482Y-41515195D01*
X115828482Y-41515195D02*
X115828482Y-41610433D01*
X115828482Y-41610433D02*
X115780863Y-41753290D01*
X115780863Y-41753290D02*
X115209435Y-42324719D01*
X115209435Y-42324719D02*
X115828482Y-42324719D01*
X116447530Y-41324719D02*
X116542768Y-41324719D01*
X116542768Y-41324719D02*
X116638006Y-41372338D01*
X116638006Y-41372338D02*
X116685625Y-41419957D01*
X116685625Y-41419957D02*
X116733244Y-41515195D01*
X116733244Y-41515195D02*
X116780863Y-41705671D01*
X116780863Y-41705671D02*
X116780863Y-41943766D01*
X116780863Y-41943766D02*
X116733244Y-42134242D01*
X116733244Y-42134242D02*
X116685625Y-42229480D01*
X116685625Y-42229480D02*
X116638006Y-42277100D01*
X116638006Y-42277100D02*
X116542768Y-42324719D01*
X116542768Y-42324719D02*
X116447530Y-42324719D01*
X116447530Y-42324719D02*
X116352292Y-42277100D01*
X116352292Y-42277100D02*
X116304673Y-42229480D01*
X116304673Y-42229480D02*
X116257054Y-42134242D01*
X116257054Y-42134242D02*
X116209435Y-41943766D01*
X116209435Y-41943766D02*
X116209435Y-41705671D01*
X116209435Y-41705671D02*
X116257054Y-41515195D01*
X116257054Y-41515195D02*
X116304673Y-41419957D01*
X116304673Y-41419957D02*
X116352292Y-41372338D01*
X116352292Y-41372338D02*
X116447530Y-41324719D01*
X115638006Y-29100909D02*
X115780863Y-29148528D01*
X115780863Y-29148528D02*
X115828482Y-29196147D01*
X115828482Y-29196147D02*
X115876101Y-29291385D01*
X115876101Y-29291385D02*
X115876101Y-29434242D01*
X115876101Y-29434242D02*
X115828482Y-29529480D01*
X115828482Y-29529480D02*
X115780863Y-29577100D01*
X115780863Y-29577100D02*
X115685625Y-29624719D01*
X115685625Y-29624719D02*
X115304673Y-29624719D01*
X115304673Y-29624719D02*
X115304673Y-28624719D01*
X115304673Y-28624719D02*
X115638006Y-28624719D01*
X115638006Y-28624719D02*
X115733244Y-28672338D01*
X115733244Y-28672338D02*
X115780863Y-28719957D01*
X115780863Y-28719957D02*
X115828482Y-28815195D01*
X115828482Y-28815195D02*
X115828482Y-28910433D01*
X115828482Y-28910433D02*
X115780863Y-29005671D01*
X115780863Y-29005671D02*
X115733244Y-29053290D01*
X115733244Y-29053290D02*
X115638006Y-29100909D01*
X115638006Y-29100909D02*
X115304673Y-29100909D01*
X116304673Y-29243766D02*
X117066578Y-29243766D01*
X116685625Y-29624719D02*
X116685625Y-28862814D01*
X115828482Y-47404719D02*
X115257054Y-47404719D01*
X115542768Y-47404719D02*
X115542768Y-46404719D01*
X115542768Y-46404719D02*
X115447530Y-46547576D01*
X115447530Y-46547576D02*
X115352292Y-46642814D01*
X115352292Y-46642814D02*
X115257054Y-46690433D01*
X116399911Y-46833290D02*
X116304673Y-46785671D01*
X116304673Y-46785671D02*
X116257054Y-46738052D01*
X116257054Y-46738052D02*
X116209435Y-46642814D01*
X116209435Y-46642814D02*
X116209435Y-46595195D01*
X116209435Y-46595195D02*
X116257054Y-46499957D01*
X116257054Y-46499957D02*
X116304673Y-46452338D01*
X116304673Y-46452338D02*
X116399911Y-46404719D01*
X116399911Y-46404719D02*
X116590387Y-46404719D01*
X116590387Y-46404719D02*
X116685625Y-46452338D01*
X116685625Y-46452338D02*
X116733244Y-46499957D01*
X116733244Y-46499957D02*
X116780863Y-46595195D01*
X116780863Y-46595195D02*
X116780863Y-46642814D01*
X116780863Y-46642814D02*
X116733244Y-46738052D01*
X116733244Y-46738052D02*
X116685625Y-46785671D01*
X116685625Y-46785671D02*
X116590387Y-46833290D01*
X116590387Y-46833290D02*
X116399911Y-46833290D01*
X116399911Y-46833290D02*
X116304673Y-46880909D01*
X116304673Y-46880909D02*
X116257054Y-46928528D01*
X116257054Y-46928528D02*
X116209435Y-47023766D01*
X116209435Y-47023766D02*
X116209435Y-47214242D01*
X116209435Y-47214242D02*
X116257054Y-47309480D01*
X116257054Y-47309480D02*
X116304673Y-47357100D01*
X116304673Y-47357100D02*
X116399911Y-47404719D01*
X116399911Y-47404719D02*
X116590387Y-47404719D01*
X116590387Y-47404719D02*
X116685625Y-47357100D01*
X116685625Y-47357100D02*
X116733244Y-47309480D01*
X116733244Y-47309480D02*
X116780863Y-47214242D01*
X116780863Y-47214242D02*
X116780863Y-47023766D01*
X116780863Y-47023766D02*
X116733244Y-46928528D01*
X116733244Y-46928528D02*
X116685625Y-46880909D01*
X116685625Y-46880909D02*
X116590387Y-46833290D01*
X94245326Y-46404719D02*
X93769136Y-46404719D01*
X93769136Y-46404719D02*
X93721517Y-46880909D01*
X93721517Y-46880909D02*
X93769136Y-46833290D01*
X93769136Y-46833290D02*
X93864374Y-46785671D01*
X93864374Y-46785671D02*
X94102469Y-46785671D01*
X94102469Y-46785671D02*
X94197707Y-46833290D01*
X94197707Y-46833290D02*
X94245326Y-46880909D01*
X94245326Y-46880909D02*
X94292945Y-46976147D01*
X94292945Y-46976147D02*
X94292945Y-47214242D01*
X94292945Y-47214242D02*
X94245326Y-47309480D01*
X94245326Y-47309480D02*
X94197707Y-47357100D01*
X94197707Y-47357100D02*
X94102469Y-47404719D01*
X94102469Y-47404719D02*
X93864374Y-47404719D01*
X93864374Y-47404719D02*
X93769136Y-47357100D01*
X93769136Y-47357100D02*
X93721517Y-47309480D01*
X115257054Y-38879957D02*
X115304673Y-38832338D01*
X115304673Y-38832338D02*
X115399911Y-38784719D01*
X115399911Y-38784719D02*
X115638006Y-38784719D01*
X115638006Y-38784719D02*
X115733244Y-38832338D01*
X115733244Y-38832338D02*
X115780863Y-38879957D01*
X115780863Y-38879957D02*
X115828482Y-38975195D01*
X115828482Y-38975195D02*
X115828482Y-39070433D01*
X115828482Y-39070433D02*
X115780863Y-39213290D01*
X115780863Y-39213290D02*
X115209435Y-39784719D01*
X115209435Y-39784719D02*
X115828482Y-39784719D01*
X116780863Y-39784719D02*
X116209435Y-39784719D01*
X116495149Y-39784719D02*
X116495149Y-38784719D01*
X116495149Y-38784719D02*
X116399911Y-38927576D01*
X116399911Y-38927576D02*
X116304673Y-39022814D01*
X116304673Y-39022814D02*
X116209435Y-39070433D01*
X93673898Y-51484719D02*
X94340564Y-51484719D01*
X94340564Y-51484719D02*
X93911993Y-52484719D01*
X93721517Y-38879957D02*
X93769136Y-38832338D01*
X93769136Y-38832338D02*
X93864374Y-38784719D01*
X93864374Y-38784719D02*
X94102469Y-38784719D01*
X94102469Y-38784719D02*
X94197707Y-38832338D01*
X94197707Y-38832338D02*
X94245326Y-38879957D01*
X94245326Y-38879957D02*
X94292945Y-38975195D01*
X94292945Y-38975195D02*
X94292945Y-39070433D01*
X94292945Y-39070433D02*
X94245326Y-39213290D01*
X94245326Y-39213290D02*
X93673898Y-39784719D01*
X93673898Y-39784719D02*
X94292945Y-39784719D01*
X115828482Y-49944719D02*
X115257054Y-49944719D01*
X115542768Y-49944719D02*
X115542768Y-48944719D01*
X115542768Y-48944719D02*
X115447530Y-49087576D01*
X115447530Y-49087576D02*
X115352292Y-49182814D01*
X115352292Y-49182814D02*
X115257054Y-49230433D01*
X116733244Y-48944719D02*
X116257054Y-48944719D01*
X116257054Y-48944719D02*
X116209435Y-49420909D01*
X116209435Y-49420909D02*
X116257054Y-49373290D01*
X116257054Y-49373290D02*
X116352292Y-49325671D01*
X116352292Y-49325671D02*
X116590387Y-49325671D01*
X116590387Y-49325671D02*
X116685625Y-49373290D01*
X116685625Y-49373290D02*
X116733244Y-49420909D01*
X116733244Y-49420909D02*
X116780863Y-49516147D01*
X116780863Y-49516147D02*
X116780863Y-49754242D01*
X116780863Y-49754242D02*
X116733244Y-49849480D01*
X116733244Y-49849480D02*
X116685625Y-49897100D01*
X116685625Y-49897100D02*
X116590387Y-49944719D01*
X116590387Y-49944719D02*
X116352292Y-49944719D01*
X116352292Y-49944719D02*
X116257054Y-49897100D01*
X116257054Y-49897100D02*
X116209435Y-49849480D01*
X93959612Y-31164719D02*
X94054850Y-31164719D01*
X94054850Y-31164719D02*
X94150088Y-31212338D01*
X94150088Y-31212338D02*
X94197707Y-31259957D01*
X94197707Y-31259957D02*
X94245326Y-31355195D01*
X94245326Y-31355195D02*
X94292945Y-31545671D01*
X94292945Y-31545671D02*
X94292945Y-31783766D01*
X94292945Y-31783766D02*
X94245326Y-31974242D01*
X94245326Y-31974242D02*
X94197707Y-32069480D01*
X94197707Y-32069480D02*
X94150088Y-32117100D01*
X94150088Y-32117100D02*
X94054850Y-32164719D01*
X94054850Y-32164719D02*
X93959612Y-32164719D01*
X93959612Y-32164719D02*
X93864374Y-32117100D01*
X93864374Y-32117100D02*
X93816755Y-32069480D01*
X93816755Y-32069480D02*
X93769136Y-31974242D01*
X93769136Y-31974242D02*
X93721517Y-31783766D01*
X93721517Y-31783766D02*
X93721517Y-31545671D01*
X93721517Y-31545671D02*
X93769136Y-31355195D01*
X93769136Y-31355195D02*
X93816755Y-31259957D01*
X93816755Y-31259957D02*
X93864374Y-31212338D01*
X93864374Y-31212338D02*
X93959612Y-31164719D01*
X115828482Y-52484719D02*
X115257054Y-52484719D01*
X115542768Y-52484719D02*
X115542768Y-51484719D01*
X115542768Y-51484719D02*
X115447530Y-51627576D01*
X115447530Y-51627576D02*
X115352292Y-51722814D01*
X115352292Y-51722814D02*
X115257054Y-51770433D01*
X116685625Y-51818052D02*
X116685625Y-52484719D01*
X116447530Y-51437100D02*
X116209435Y-52151385D01*
X116209435Y-52151385D02*
X116828482Y-52151385D01*
X93911993Y-54453290D02*
X93816755Y-54405671D01*
X93816755Y-54405671D02*
X93769136Y-54358052D01*
X93769136Y-54358052D02*
X93721517Y-54262814D01*
X93721517Y-54262814D02*
X93721517Y-54215195D01*
X93721517Y-54215195D02*
X93769136Y-54119957D01*
X93769136Y-54119957D02*
X93816755Y-54072338D01*
X93816755Y-54072338D02*
X93911993Y-54024719D01*
X93911993Y-54024719D02*
X94102469Y-54024719D01*
X94102469Y-54024719D02*
X94197707Y-54072338D01*
X94197707Y-54072338D02*
X94245326Y-54119957D01*
X94245326Y-54119957D02*
X94292945Y-54215195D01*
X94292945Y-54215195D02*
X94292945Y-54262814D01*
X94292945Y-54262814D02*
X94245326Y-54358052D01*
X94245326Y-54358052D02*
X94197707Y-54405671D01*
X94197707Y-54405671D02*
X94102469Y-54453290D01*
X94102469Y-54453290D02*
X93911993Y-54453290D01*
X93911993Y-54453290D02*
X93816755Y-54500909D01*
X93816755Y-54500909D02*
X93769136Y-54548528D01*
X93769136Y-54548528D02*
X93721517Y-54643766D01*
X93721517Y-54643766D02*
X93721517Y-54834242D01*
X93721517Y-54834242D02*
X93769136Y-54929480D01*
X93769136Y-54929480D02*
X93816755Y-54977100D01*
X93816755Y-54977100D02*
X93911993Y-55024719D01*
X93911993Y-55024719D02*
X94102469Y-55024719D01*
X94102469Y-55024719D02*
X94197707Y-54977100D01*
X94197707Y-54977100D02*
X94245326Y-54929480D01*
X94245326Y-54929480D02*
X94292945Y-54834242D01*
X94292945Y-54834242D02*
X94292945Y-54643766D01*
X94292945Y-54643766D02*
X94245326Y-54548528D01*
X94245326Y-54548528D02*
X94197707Y-54500909D01*
X94197707Y-54500909D02*
X94102469Y-54453290D01*
X93816755Y-57564719D02*
X94007231Y-57564719D01*
X94007231Y-57564719D02*
X94102469Y-57517100D01*
X94102469Y-57517100D02*
X94150088Y-57469480D01*
X94150088Y-57469480D02*
X94245326Y-57326623D01*
X94245326Y-57326623D02*
X94292945Y-57136147D01*
X94292945Y-57136147D02*
X94292945Y-56755195D01*
X94292945Y-56755195D02*
X94245326Y-56659957D01*
X94245326Y-56659957D02*
X94197707Y-56612338D01*
X94197707Y-56612338D02*
X94102469Y-56564719D01*
X94102469Y-56564719D02*
X93911993Y-56564719D01*
X93911993Y-56564719D02*
X93816755Y-56612338D01*
X93816755Y-56612338D02*
X93769136Y-56659957D01*
X93769136Y-56659957D02*
X93721517Y-56755195D01*
X93721517Y-56755195D02*
X93721517Y-56993290D01*
X93721517Y-56993290D02*
X93769136Y-57088528D01*
X93769136Y-57088528D02*
X93816755Y-57136147D01*
X93816755Y-57136147D02*
X93911993Y-57183766D01*
X93911993Y-57183766D02*
X94102469Y-57183766D01*
X94102469Y-57183766D02*
X94197707Y-57136147D01*
X94197707Y-57136147D02*
X94245326Y-57088528D01*
X94245326Y-57088528D02*
X94292945Y-56993290D01*
X115876101Y-34704719D02*
X115542768Y-34228528D01*
X115304673Y-34704719D02*
X115304673Y-33704719D01*
X115304673Y-33704719D02*
X115685625Y-33704719D01*
X115685625Y-33704719D02*
X115780863Y-33752338D01*
X115780863Y-33752338D02*
X115828482Y-33799957D01*
X115828482Y-33799957D02*
X115876101Y-33895195D01*
X115876101Y-33895195D02*
X115876101Y-34038052D01*
X115876101Y-34038052D02*
X115828482Y-34133290D01*
X115828482Y-34133290D02*
X115780863Y-34180909D01*
X115780863Y-34180909D02*
X115685625Y-34228528D01*
X115685625Y-34228528D02*
X115304673Y-34228528D01*
X116257054Y-34657100D02*
X116399911Y-34704719D01*
X116399911Y-34704719D02*
X116638006Y-34704719D01*
X116638006Y-34704719D02*
X116733244Y-34657100D01*
X116733244Y-34657100D02*
X116780863Y-34609480D01*
X116780863Y-34609480D02*
X116828482Y-34514242D01*
X116828482Y-34514242D02*
X116828482Y-34419004D01*
X116828482Y-34419004D02*
X116780863Y-34323766D01*
X116780863Y-34323766D02*
X116733244Y-34276147D01*
X116733244Y-34276147D02*
X116638006Y-34228528D01*
X116638006Y-34228528D02*
X116447530Y-34180909D01*
X116447530Y-34180909D02*
X116352292Y-34133290D01*
X116352292Y-34133290D02*
X116304673Y-34085671D01*
X116304673Y-34085671D02*
X116257054Y-33990433D01*
X116257054Y-33990433D02*
X116257054Y-33895195D01*
X116257054Y-33895195D02*
X116304673Y-33799957D01*
X116304673Y-33799957D02*
X116352292Y-33752338D01*
X116352292Y-33752338D02*
X116447530Y-33704719D01*
X116447530Y-33704719D02*
X116685625Y-33704719D01*
X116685625Y-33704719D02*
X116828482Y-33752338D01*
X117114197Y-33704719D02*
X117685625Y-33704719D01*
X117399911Y-34704719D02*
X117399911Y-33704719D01*
X104441667Y-54024717D02*
X105108333Y-54024717D01*
X105108333Y-54024717D02*
X104679762Y-55024717D01*
X115828482Y-31212338D02*
X115733244Y-31164719D01*
X115733244Y-31164719D02*
X115590387Y-31164719D01*
X115590387Y-31164719D02*
X115447530Y-31212338D01*
X115447530Y-31212338D02*
X115352292Y-31307576D01*
X115352292Y-31307576D02*
X115304673Y-31402814D01*
X115304673Y-31402814D02*
X115257054Y-31593290D01*
X115257054Y-31593290D02*
X115257054Y-31736147D01*
X115257054Y-31736147D02*
X115304673Y-31926623D01*
X115304673Y-31926623D02*
X115352292Y-32021861D01*
X115352292Y-32021861D02*
X115447530Y-32117100D01*
X115447530Y-32117100D02*
X115590387Y-32164719D01*
X115590387Y-32164719D02*
X115685625Y-32164719D01*
X115685625Y-32164719D02*
X115828482Y-32117100D01*
X115828482Y-32117100D02*
X115876101Y-32069480D01*
X115876101Y-32069480D02*
X115876101Y-31736147D01*
X115876101Y-31736147D02*
X115685625Y-31736147D01*
X116304673Y-32164719D02*
X116304673Y-31164719D01*
X116304673Y-31164719D02*
X116876101Y-32164719D01*
X116876101Y-32164719D02*
X116876101Y-31164719D01*
X117352292Y-32164719D02*
X117352292Y-31164719D01*
X117352292Y-31164719D02*
X117590387Y-31164719D01*
X117590387Y-31164719D02*
X117733244Y-31212338D01*
X117733244Y-31212338D02*
X117828482Y-31307576D01*
X117828482Y-31307576D02*
X117876101Y-31402814D01*
X117876101Y-31402814D02*
X117923720Y-31593290D01*
X117923720Y-31593290D02*
X117923720Y-31736147D01*
X117923720Y-31736147D02*
X117876101Y-31926623D01*
X117876101Y-31926623D02*
X117828482Y-32021861D01*
X117828482Y-32021861D02*
X117733244Y-32117100D01*
X117733244Y-32117100D02*
X117590387Y-32164719D01*
X117590387Y-32164719D02*
X117352292Y-32164719D01*
X115209435Y-36244719D02*
X115828482Y-36244719D01*
X115828482Y-36244719D02*
X115495149Y-36625671D01*
X115495149Y-36625671D02*
X115638006Y-36625671D01*
X115638006Y-36625671D02*
X115733244Y-36673290D01*
X115733244Y-36673290D02*
X115780863Y-36720909D01*
X115780863Y-36720909D02*
X115828482Y-36816147D01*
X115828482Y-36816147D02*
X115828482Y-37054242D01*
X115828482Y-37054242D02*
X115780863Y-37149480D01*
X115780863Y-37149480D02*
X115733244Y-37197100D01*
X115733244Y-37197100D02*
X115638006Y-37244719D01*
X115638006Y-37244719D02*
X115352292Y-37244719D01*
X115352292Y-37244719D02*
X115257054Y-37197100D01*
X115257054Y-37197100D02*
X115209435Y-37149480D01*
X116257054Y-37149480D02*
X116304673Y-37197100D01*
X116304673Y-37197100D02*
X116257054Y-37244719D01*
X116257054Y-37244719D02*
X116209435Y-37197100D01*
X116209435Y-37197100D02*
X116257054Y-37149480D01*
X116257054Y-37149480D02*
X116257054Y-37244719D01*
X116638006Y-36244719D02*
X117257053Y-36244719D01*
X117257053Y-36244719D02*
X116923720Y-36625671D01*
X116923720Y-36625671D02*
X117066577Y-36625671D01*
X117066577Y-36625671D02*
X117161815Y-36673290D01*
X117161815Y-36673290D02*
X117209434Y-36720909D01*
X117209434Y-36720909D02*
X117257053Y-36816147D01*
X117257053Y-36816147D02*
X117257053Y-37054242D01*
X117257053Y-37054242D02*
X117209434Y-37149480D01*
X117209434Y-37149480D02*
X117161815Y-37197100D01*
X117161815Y-37197100D02*
X117066577Y-37244719D01*
X117066577Y-37244719D02*
X116780863Y-37244719D01*
X116780863Y-37244719D02*
X116685625Y-37197100D01*
X116685625Y-37197100D02*
X116638006Y-37149480D01*
X117590387Y-36578052D02*
X117828482Y-37244719D01*
X117828482Y-37244719D02*
X118066577Y-36578052D01*
X115828482Y-44864719D02*
X115257054Y-44864719D01*
X115542768Y-44864719D02*
X115542768Y-43864719D01*
X115542768Y-43864719D02*
X115447530Y-44007576D01*
X115447530Y-44007576D02*
X115352292Y-44102814D01*
X115352292Y-44102814D02*
X115257054Y-44150433D01*
X116304673Y-44864719D02*
X116495149Y-44864719D01*
X116495149Y-44864719D02*
X116590387Y-44817100D01*
X116590387Y-44817100D02*
X116638006Y-44769480D01*
X116638006Y-44769480D02*
X116733244Y-44626623D01*
X116733244Y-44626623D02*
X116780863Y-44436147D01*
X116780863Y-44436147D02*
X116780863Y-44055195D01*
X116780863Y-44055195D02*
X116733244Y-43959957D01*
X116733244Y-43959957D02*
X116685625Y-43912338D01*
X116685625Y-43912338D02*
X116590387Y-43864719D01*
X116590387Y-43864719D02*
X116399911Y-43864719D01*
X116399911Y-43864719D02*
X116304673Y-43912338D01*
X116304673Y-43912338D02*
X116257054Y-43959957D01*
X116257054Y-43959957D02*
X116209435Y-44055195D01*
X116209435Y-44055195D02*
X116209435Y-44293290D01*
X116209435Y-44293290D02*
X116257054Y-44388528D01*
X116257054Y-44388528D02*
X116304673Y-44436147D01*
X116304673Y-44436147D02*
X116399911Y-44483766D01*
X116399911Y-44483766D02*
X116590387Y-44483766D01*
X116590387Y-44483766D02*
X116685625Y-44436147D01*
X116685625Y-44436147D02*
X116733244Y-44388528D01*
X116733244Y-44388528D02*
X116780863Y-44293290D01*
X92197707Y-36292338D02*
X92102469Y-36244719D01*
X92102469Y-36244719D02*
X91959612Y-36244719D01*
X91959612Y-36244719D02*
X91816755Y-36292338D01*
X91816755Y-36292338D02*
X91721517Y-36387576D01*
X91721517Y-36387576D02*
X91673898Y-36482814D01*
X91673898Y-36482814D02*
X91626279Y-36673290D01*
X91626279Y-36673290D02*
X91626279Y-36816147D01*
X91626279Y-36816147D02*
X91673898Y-37006623D01*
X91673898Y-37006623D02*
X91721517Y-37101861D01*
X91721517Y-37101861D02*
X91816755Y-37197100D01*
X91816755Y-37197100D02*
X91959612Y-37244719D01*
X91959612Y-37244719D02*
X92054850Y-37244719D01*
X92054850Y-37244719D02*
X92197707Y-37197100D01*
X92197707Y-37197100D02*
X92245326Y-37149480D01*
X92245326Y-37149480D02*
X92245326Y-36816147D01*
X92245326Y-36816147D02*
X92054850Y-36816147D01*
X92673898Y-37244719D02*
X92673898Y-36244719D01*
X92673898Y-36244719D02*
X93245326Y-37244719D01*
X93245326Y-37244719D02*
X93245326Y-36244719D01*
X93721517Y-37244719D02*
X93721517Y-36244719D01*
X93721517Y-36244719D02*
X93959612Y-36244719D01*
X93959612Y-36244719D02*
X94102469Y-36292338D01*
X94102469Y-36292338D02*
X94197707Y-36387576D01*
X94197707Y-36387576D02*
X94245326Y-36482814D01*
X94245326Y-36482814D02*
X94292945Y-36673290D01*
X94292945Y-36673290D02*
X94292945Y-36816147D01*
X94292945Y-36816147D02*
X94245326Y-37006623D01*
X94245326Y-37006623D02*
X94197707Y-37101861D01*
X94197707Y-37101861D02*
X94102469Y-37197100D01*
X94102469Y-37197100D02*
X93959612Y-37244719D01*
X93959612Y-37244719D02*
X93721517Y-37244719D01*
X99980714Y-55024719D02*
X99409286Y-55024719D01*
X99695000Y-55024719D02*
X99695000Y-54024719D01*
X99695000Y-54024719D02*
X99599762Y-54167576D01*
X99599762Y-54167576D02*
X99504524Y-54262814D01*
X99504524Y-54262814D02*
X99409286Y-54310433D01*
X115828482Y-55024719D02*
X115257054Y-55024719D01*
X115542768Y-55024719D02*
X115542768Y-54024719D01*
X115542768Y-54024719D02*
X115447530Y-54167576D01*
X115447530Y-54167576D02*
X115352292Y-54262814D01*
X115352292Y-54262814D02*
X115257054Y-54310433D01*
X116685625Y-54024719D02*
X116495149Y-54024719D01*
X116495149Y-54024719D02*
X116399911Y-54072338D01*
X116399911Y-54072338D02*
X116352292Y-54119957D01*
X116352292Y-54119957D02*
X116257054Y-54262814D01*
X116257054Y-54262814D02*
X116209435Y-54453290D01*
X116209435Y-54453290D02*
X116209435Y-54834242D01*
X116209435Y-54834242D02*
X116257054Y-54929480D01*
X116257054Y-54929480D02*
X116304673Y-54977100D01*
X116304673Y-54977100D02*
X116399911Y-55024719D01*
X116399911Y-55024719D02*
X116590387Y-55024719D01*
X116590387Y-55024719D02*
X116685625Y-54977100D01*
X116685625Y-54977100D02*
X116733244Y-54929480D01*
X116733244Y-54929480D02*
X116780863Y-54834242D01*
X116780863Y-54834242D02*
X116780863Y-54596147D01*
X116780863Y-54596147D02*
X116733244Y-54500909D01*
X116733244Y-54500909D02*
X116685625Y-54453290D01*
X116685625Y-54453290D02*
X116590387Y-54405671D01*
X116590387Y-54405671D02*
X116399911Y-54405671D01*
X116399911Y-54405671D02*
X116304673Y-54453290D01*
X116304673Y-54453290D02*
X116257054Y-54500909D01*
X116257054Y-54500909D02*
X116209435Y-54596147D01*
X94197707Y-48944719D02*
X94007231Y-48944719D01*
X94007231Y-48944719D02*
X93911993Y-48992338D01*
X93911993Y-48992338D02*
X93864374Y-49039957D01*
X93864374Y-49039957D02*
X93769136Y-49182814D01*
X93769136Y-49182814D02*
X93721517Y-49373290D01*
X93721517Y-49373290D02*
X93721517Y-49754242D01*
X93721517Y-49754242D02*
X93769136Y-49849480D01*
X93769136Y-49849480D02*
X93816755Y-49897100D01*
X93816755Y-49897100D02*
X93911993Y-49944719D01*
X93911993Y-49944719D02*
X94102469Y-49944719D01*
X94102469Y-49944719D02*
X94197707Y-49897100D01*
X94197707Y-49897100D02*
X94245326Y-49849480D01*
X94245326Y-49849480D02*
X94292945Y-49754242D01*
X94292945Y-49754242D02*
X94292945Y-49516147D01*
X94292945Y-49516147D02*
X94245326Y-49420909D01*
X94245326Y-49420909D02*
X94197707Y-49373290D01*
X94197707Y-49373290D02*
X94102469Y-49325671D01*
X94102469Y-49325671D02*
X93911993Y-49325671D01*
X93911993Y-49325671D02*
X93816755Y-49373290D01*
X93816755Y-49373290D02*
X93769136Y-49420909D01*
X93769136Y-49420909D02*
X93721517Y-49516147D01*
X101949286Y-54119957D02*
X101996905Y-54072338D01*
X101996905Y-54072338D02*
X102092143Y-54024719D01*
X102092143Y-54024719D02*
X102330238Y-54024719D01*
X102330238Y-54024719D02*
X102425476Y-54072338D01*
X102425476Y-54072338D02*
X102473095Y-54119957D01*
X102473095Y-54119957D02*
X102520714Y-54215195D01*
X102520714Y-54215195D02*
X102520714Y-54310433D01*
X102520714Y-54310433D02*
X102473095Y-54453290D01*
X102473095Y-54453290D02*
X101901667Y-55024719D01*
X101901667Y-55024719D02*
X102520714Y-55024719D01*
X92197707Y-33752338D02*
X92102469Y-33704719D01*
X92102469Y-33704719D02*
X91959612Y-33704719D01*
X91959612Y-33704719D02*
X91816755Y-33752338D01*
X91816755Y-33752338D02*
X91721517Y-33847576D01*
X91721517Y-33847576D02*
X91673898Y-33942814D01*
X91673898Y-33942814D02*
X91626279Y-34133290D01*
X91626279Y-34133290D02*
X91626279Y-34276147D01*
X91626279Y-34276147D02*
X91673898Y-34466623D01*
X91673898Y-34466623D02*
X91721517Y-34561861D01*
X91721517Y-34561861D02*
X91816755Y-34657100D01*
X91816755Y-34657100D02*
X91959612Y-34704719D01*
X91959612Y-34704719D02*
X92054850Y-34704719D01*
X92054850Y-34704719D02*
X92197707Y-34657100D01*
X92197707Y-34657100D02*
X92245326Y-34609480D01*
X92245326Y-34609480D02*
X92245326Y-34276147D01*
X92245326Y-34276147D02*
X92054850Y-34276147D01*
X92673898Y-34704719D02*
X92673898Y-33704719D01*
X92673898Y-33704719D02*
X93245326Y-34704719D01*
X93245326Y-34704719D02*
X93245326Y-33704719D01*
X93721517Y-34704719D02*
X93721517Y-33704719D01*
X93721517Y-33704719D02*
X93959612Y-33704719D01*
X93959612Y-33704719D02*
X94102469Y-33752338D01*
X94102469Y-33752338D02*
X94197707Y-33847576D01*
X94197707Y-33847576D02*
X94245326Y-33942814D01*
X94245326Y-33942814D02*
X94292945Y-34133290D01*
X94292945Y-34133290D02*
X94292945Y-34276147D01*
X94292945Y-34276147D02*
X94245326Y-34466623D01*
X94245326Y-34466623D02*
X94197707Y-34561861D01*
X94197707Y-34561861D02*
X94102469Y-34657100D01*
X94102469Y-34657100D02*
X93959612Y-34704719D01*
X93959612Y-34704719D02*
X93721517Y-34704719D01*
X94292945Y-29624719D02*
X93721517Y-29624719D01*
X94007231Y-29624719D02*
X94007231Y-28624719D01*
X94007231Y-28624719D02*
X93911993Y-28767576D01*
X93911993Y-28767576D02*
X93816755Y-28862814D01*
X93816755Y-28862814D02*
X93721517Y-28910433D01*
D12*
X91630655Y-104325950D02*
X91773512Y-104373569D01*
X91773512Y-104373569D02*
X92011607Y-104373569D01*
X92011607Y-104373569D02*
X92106845Y-104325950D01*
X92106845Y-104325950D02*
X92154464Y-104278330D01*
X92154464Y-104278330D02*
X92202083Y-104183092D01*
X92202083Y-104183092D02*
X92202083Y-104087854D01*
X92202083Y-104087854D02*
X92154464Y-103992616D01*
X92154464Y-103992616D02*
X92106845Y-103944997D01*
X92106845Y-103944997D02*
X92011607Y-103897378D01*
X92011607Y-103897378D02*
X91821131Y-103849759D01*
X91821131Y-103849759D02*
X91725893Y-103802140D01*
X91725893Y-103802140D02*
X91678274Y-103754521D01*
X91678274Y-103754521D02*
X91630655Y-103659283D01*
X91630655Y-103659283D02*
X91630655Y-103564045D01*
X91630655Y-103564045D02*
X91678274Y-103468807D01*
X91678274Y-103468807D02*
X91725893Y-103421188D01*
X91725893Y-103421188D02*
X91821131Y-103373569D01*
X91821131Y-103373569D02*
X92059226Y-103373569D01*
X92059226Y-103373569D02*
X92202083Y-103421188D01*
X93154464Y-104373569D02*
X92583036Y-104373569D01*
X92868750Y-104373569D02*
X92868750Y-103373569D01*
X92868750Y-103373569D02*
X92773512Y-103516426D01*
X92773512Y-103516426D02*
X92678274Y-103611664D01*
X92678274Y-103611664D02*
X92583036Y-103659283D01*
X93773512Y-103373569D02*
X93868750Y-103373569D01*
X93868750Y-103373569D02*
X93963988Y-103421188D01*
X93963988Y-103421188D02*
X94011607Y-103468807D01*
X94011607Y-103468807D02*
X94059226Y-103564045D01*
X94059226Y-103564045D02*
X94106845Y-103754521D01*
X94106845Y-103754521D02*
X94106845Y-103992616D01*
X94106845Y-103992616D02*
X94059226Y-104183092D01*
X94059226Y-104183092D02*
X94011607Y-104278330D01*
X94011607Y-104278330D02*
X93963988Y-104325950D01*
X93963988Y-104325950D02*
X93868750Y-104373569D01*
X93868750Y-104373569D02*
X93773512Y-104373569D01*
X93773512Y-104373569D02*
X93678274Y-104325950D01*
X93678274Y-104325950D02*
X93630655Y-104278330D01*
X93630655Y-104278330D02*
X93583036Y-104183092D01*
X93583036Y-104183092D02*
X93535417Y-103992616D01*
X93535417Y-103992616D02*
X93535417Y-103754521D01*
X93535417Y-103754521D02*
X93583036Y-103564045D01*
X93583036Y-103564045D02*
X93630655Y-103468807D01*
X93630655Y-103468807D02*
X93678274Y-103421188D01*
X93678274Y-103421188D02*
X93773512Y-103373569D01*
X54006845Y-85275950D02*
X54149702Y-85323569D01*
X54149702Y-85323569D02*
X54387797Y-85323569D01*
X54387797Y-85323569D02*
X54483035Y-85275950D01*
X54483035Y-85275950D02*
X54530654Y-85228330D01*
X54530654Y-85228330D02*
X54578273Y-85133092D01*
X54578273Y-85133092D02*
X54578273Y-85037854D01*
X54578273Y-85037854D02*
X54530654Y-84942616D01*
X54530654Y-84942616D02*
X54483035Y-84894997D01*
X54483035Y-84894997D02*
X54387797Y-84847378D01*
X54387797Y-84847378D02*
X54197321Y-84799759D01*
X54197321Y-84799759D02*
X54102083Y-84752140D01*
X54102083Y-84752140D02*
X54054464Y-84704521D01*
X54054464Y-84704521D02*
X54006845Y-84609283D01*
X54006845Y-84609283D02*
X54006845Y-84514045D01*
X54006845Y-84514045D02*
X54054464Y-84418807D01*
X54054464Y-84418807D02*
X54102083Y-84371188D01*
X54102083Y-84371188D02*
X54197321Y-84323569D01*
X54197321Y-84323569D02*
X54435416Y-84323569D01*
X54435416Y-84323569D02*
X54578273Y-84371188D01*
X55435416Y-84656902D02*
X55435416Y-85323569D01*
X55197321Y-84275950D02*
X54959226Y-84990235D01*
X54959226Y-84990235D02*
X55578273Y-84990235D01*
X73056845Y-85275950D02*
X73199702Y-85323569D01*
X73199702Y-85323569D02*
X73437797Y-85323569D01*
X73437797Y-85323569D02*
X73533035Y-85275950D01*
X73533035Y-85275950D02*
X73580654Y-85228330D01*
X73580654Y-85228330D02*
X73628273Y-85133092D01*
X73628273Y-85133092D02*
X73628273Y-85037854D01*
X73628273Y-85037854D02*
X73580654Y-84942616D01*
X73580654Y-84942616D02*
X73533035Y-84894997D01*
X73533035Y-84894997D02*
X73437797Y-84847378D01*
X73437797Y-84847378D02*
X73247321Y-84799759D01*
X73247321Y-84799759D02*
X73152083Y-84752140D01*
X73152083Y-84752140D02*
X73104464Y-84704521D01*
X73104464Y-84704521D02*
X73056845Y-84609283D01*
X73056845Y-84609283D02*
X73056845Y-84514045D01*
X73056845Y-84514045D02*
X73104464Y-84418807D01*
X73104464Y-84418807D02*
X73152083Y-84371188D01*
X73152083Y-84371188D02*
X73247321Y-84323569D01*
X73247321Y-84323569D02*
X73485416Y-84323569D01*
X73485416Y-84323569D02*
X73628273Y-84371188D01*
X74533035Y-84323569D02*
X74056845Y-84323569D01*
X74056845Y-84323569D02*
X74009226Y-84799759D01*
X74009226Y-84799759D02*
X74056845Y-84752140D01*
X74056845Y-84752140D02*
X74152083Y-84704521D01*
X74152083Y-84704521D02*
X74390178Y-84704521D01*
X74390178Y-84704521D02*
X74485416Y-84752140D01*
X74485416Y-84752140D02*
X74533035Y-84799759D01*
X74533035Y-84799759D02*
X74580654Y-84894997D01*
X74580654Y-84894997D02*
X74580654Y-85133092D01*
X74580654Y-85133092D02*
X74533035Y-85228330D01*
X74533035Y-85228330D02*
X74485416Y-85275950D01*
X74485416Y-85275950D02*
X74390178Y-85323569D01*
X74390178Y-85323569D02*
X74152083Y-85323569D01*
X74152083Y-85323569D02*
X74056845Y-85275950D01*
X74056845Y-85275950D02*
X74009226Y-85228330D01*
X73056845Y-66225950D02*
X73199702Y-66273569D01*
X73199702Y-66273569D02*
X73437797Y-66273569D01*
X73437797Y-66273569D02*
X73533035Y-66225950D01*
X73533035Y-66225950D02*
X73580654Y-66178330D01*
X73580654Y-66178330D02*
X73628273Y-66083092D01*
X73628273Y-66083092D02*
X73628273Y-65987854D01*
X73628273Y-65987854D02*
X73580654Y-65892616D01*
X73580654Y-65892616D02*
X73533035Y-65844997D01*
X73533035Y-65844997D02*
X73437797Y-65797378D01*
X73437797Y-65797378D02*
X73247321Y-65749759D01*
X73247321Y-65749759D02*
X73152083Y-65702140D01*
X73152083Y-65702140D02*
X73104464Y-65654521D01*
X73104464Y-65654521D02*
X73056845Y-65559283D01*
X73056845Y-65559283D02*
X73056845Y-65464045D01*
X73056845Y-65464045D02*
X73104464Y-65368807D01*
X73104464Y-65368807D02*
X73152083Y-65321188D01*
X73152083Y-65321188D02*
X73247321Y-65273569D01*
X73247321Y-65273569D02*
X73485416Y-65273569D01*
X73485416Y-65273569D02*
X73628273Y-65321188D01*
X74009226Y-65368807D02*
X74056845Y-65321188D01*
X74056845Y-65321188D02*
X74152083Y-65273569D01*
X74152083Y-65273569D02*
X74390178Y-65273569D01*
X74390178Y-65273569D02*
X74485416Y-65321188D01*
X74485416Y-65321188D02*
X74533035Y-65368807D01*
X74533035Y-65368807D02*
X74580654Y-65464045D01*
X74580654Y-65464045D02*
X74580654Y-65559283D01*
X74580654Y-65559283D02*
X74533035Y-65702140D01*
X74533035Y-65702140D02*
X73961607Y-66273569D01*
X73961607Y-66273569D02*
X74580654Y-66273569D01*
X110680655Y-151950950D02*
X110823512Y-151998569D01*
X110823512Y-151998569D02*
X111061607Y-151998569D01*
X111061607Y-151998569D02*
X111156845Y-151950950D01*
X111156845Y-151950950D02*
X111204464Y-151903330D01*
X111204464Y-151903330D02*
X111252083Y-151808092D01*
X111252083Y-151808092D02*
X111252083Y-151712854D01*
X111252083Y-151712854D02*
X111204464Y-151617616D01*
X111204464Y-151617616D02*
X111156845Y-151569997D01*
X111156845Y-151569997D02*
X111061607Y-151522378D01*
X111061607Y-151522378D02*
X110871131Y-151474759D01*
X110871131Y-151474759D02*
X110775893Y-151427140D01*
X110775893Y-151427140D02*
X110728274Y-151379521D01*
X110728274Y-151379521D02*
X110680655Y-151284283D01*
X110680655Y-151284283D02*
X110680655Y-151189045D01*
X110680655Y-151189045D02*
X110728274Y-151093807D01*
X110728274Y-151093807D02*
X110775893Y-151046188D01*
X110775893Y-151046188D02*
X110871131Y-150998569D01*
X110871131Y-150998569D02*
X111109226Y-150998569D01*
X111109226Y-150998569D02*
X111252083Y-151046188D01*
X112204464Y-151998569D02*
X111633036Y-151998569D01*
X111918750Y-151998569D02*
X111918750Y-150998569D01*
X111918750Y-150998569D02*
X111823512Y-151141426D01*
X111823512Y-151141426D02*
X111728274Y-151236664D01*
X111728274Y-151236664D02*
X111633036Y-151284283D01*
X112680655Y-151998569D02*
X112871131Y-151998569D01*
X112871131Y-151998569D02*
X112966369Y-151950950D01*
X112966369Y-151950950D02*
X113013988Y-151903330D01*
X113013988Y-151903330D02*
X113109226Y-151760473D01*
X113109226Y-151760473D02*
X113156845Y-151569997D01*
X113156845Y-151569997D02*
X113156845Y-151189045D01*
X113156845Y-151189045D02*
X113109226Y-151093807D01*
X113109226Y-151093807D02*
X113061607Y-151046188D01*
X113061607Y-151046188D02*
X112966369Y-150998569D01*
X112966369Y-150998569D02*
X112775893Y-150998569D01*
X112775893Y-150998569D02*
X112680655Y-151046188D01*
X112680655Y-151046188D02*
X112633036Y-151093807D01*
X112633036Y-151093807D02*
X112585417Y-151189045D01*
X112585417Y-151189045D02*
X112585417Y-151427140D01*
X112585417Y-151427140D02*
X112633036Y-151522378D01*
X112633036Y-151522378D02*
X112680655Y-151569997D01*
X112680655Y-151569997D02*
X112775893Y-151617616D01*
X112775893Y-151617616D02*
X112966369Y-151617616D01*
X112966369Y-151617616D02*
X113061607Y-151569997D01*
X113061607Y-151569997D02*
X113109226Y-151522378D01*
X113109226Y-151522378D02*
X113156845Y-151427140D01*
X53530655Y-142425950D02*
X53673512Y-142473569D01*
X53673512Y-142473569D02*
X53911607Y-142473569D01*
X53911607Y-142473569D02*
X54006845Y-142425950D01*
X54006845Y-142425950D02*
X54054464Y-142378330D01*
X54054464Y-142378330D02*
X54102083Y-142283092D01*
X54102083Y-142283092D02*
X54102083Y-142187854D01*
X54102083Y-142187854D02*
X54054464Y-142092616D01*
X54054464Y-142092616D02*
X54006845Y-142044997D01*
X54006845Y-142044997D02*
X53911607Y-141997378D01*
X53911607Y-141997378D02*
X53721131Y-141949759D01*
X53721131Y-141949759D02*
X53625893Y-141902140D01*
X53625893Y-141902140D02*
X53578274Y-141854521D01*
X53578274Y-141854521D02*
X53530655Y-141759283D01*
X53530655Y-141759283D02*
X53530655Y-141664045D01*
X53530655Y-141664045D02*
X53578274Y-141568807D01*
X53578274Y-141568807D02*
X53625893Y-141521188D01*
X53625893Y-141521188D02*
X53721131Y-141473569D01*
X53721131Y-141473569D02*
X53959226Y-141473569D01*
X53959226Y-141473569D02*
X54102083Y-141521188D01*
X55054464Y-142473569D02*
X54483036Y-142473569D01*
X54768750Y-142473569D02*
X54768750Y-141473569D01*
X54768750Y-141473569D02*
X54673512Y-141616426D01*
X54673512Y-141616426D02*
X54578274Y-141711664D01*
X54578274Y-141711664D02*
X54483036Y-141759283D01*
X55911607Y-141473569D02*
X55721131Y-141473569D01*
X55721131Y-141473569D02*
X55625893Y-141521188D01*
X55625893Y-141521188D02*
X55578274Y-141568807D01*
X55578274Y-141568807D02*
X55483036Y-141711664D01*
X55483036Y-141711664D02*
X55435417Y-141902140D01*
X55435417Y-141902140D02*
X55435417Y-142283092D01*
X55435417Y-142283092D02*
X55483036Y-142378330D01*
X55483036Y-142378330D02*
X55530655Y-142425950D01*
X55530655Y-142425950D02*
X55625893Y-142473569D01*
X55625893Y-142473569D02*
X55816369Y-142473569D01*
X55816369Y-142473569D02*
X55911607Y-142425950D01*
X55911607Y-142425950D02*
X55959226Y-142378330D01*
X55959226Y-142378330D02*
X56006845Y-142283092D01*
X56006845Y-142283092D02*
X56006845Y-142044997D01*
X56006845Y-142044997D02*
X55959226Y-141949759D01*
X55959226Y-141949759D02*
X55911607Y-141902140D01*
X55911607Y-141902140D02*
X55816369Y-141854521D01*
X55816369Y-141854521D02*
X55625893Y-141854521D01*
X55625893Y-141854521D02*
X55530655Y-141902140D01*
X55530655Y-141902140D02*
X55483036Y-141949759D01*
X55483036Y-141949759D02*
X55435417Y-142044997D01*
D14*
%TO.C,R2*%
X110518000Y-62733064D02*
X110518000Y-61278936D01*
X112338000Y-62733064D02*
X112338000Y-61278936D01*
%TO.C,R1*%
X108782000Y-61330936D02*
X108782000Y-62785064D01*
X106962000Y-61330936D02*
X106962000Y-62785064D01*
%TO.C,S15*%
X104818750Y-123868750D02*
X104818750Y-138068750D01*
X104818750Y-138068750D02*
X119018750Y-138068750D01*
X119018750Y-123868750D02*
X104818750Y-123868750D01*
X119018750Y-138068750D02*
X119018750Y-123868750D01*
%TO.C,S9*%
X66718750Y-104818750D02*
X66718750Y-119018750D01*
X66718750Y-119018750D02*
X80918750Y-119018750D01*
X80918750Y-104818750D02*
X66718750Y-104818750D01*
X80918750Y-119018750D02*
X80918750Y-104818750D01*
%TO.C,S14*%
X85768750Y-123868750D02*
X85768750Y-138068750D01*
X85768750Y-138068750D02*
X99968750Y-138068750D01*
X99968750Y-123868750D02*
X85768750Y-123868750D01*
X99968750Y-138068750D02*
X99968750Y-123868750D01*
%TO.C,S12*%
X47668750Y-123868750D02*
X47668750Y-138068750D01*
X47668750Y-138068750D02*
X61868750Y-138068750D01*
X61868750Y-123868750D02*
X47668750Y-123868750D01*
X61868750Y-138068750D02*
X61868750Y-123868750D01*
%TO.C,S21*%
X85768750Y-161968750D02*
X85768750Y-176168750D01*
X85768750Y-176168750D02*
X99968750Y-176168750D01*
X99968750Y-161968750D02*
X85768750Y-161968750D01*
X99968750Y-176168750D02*
X99968750Y-161968750D01*
%TO.C,S7*%
X104818750Y-85768750D02*
X104818750Y-99968750D01*
X104818750Y-99968750D02*
X119018750Y-99968750D01*
X119018750Y-85768750D02*
X104818750Y-85768750D01*
X119018750Y-99968750D02*
X119018750Y-85768750D01*
%TO.C,S1*%
X47668750Y-66718750D02*
X47668750Y-80918750D01*
X47668750Y-80918750D02*
X61868750Y-80918750D01*
X61868750Y-66718750D02*
X47668750Y-66718750D01*
X61868750Y-80918750D02*
X61868750Y-66718750D01*
%TO.C,S18*%
X85768750Y-142918750D02*
X85768750Y-157118750D01*
X85768750Y-157118750D02*
X99968750Y-157118750D01*
X99968750Y-142918750D02*
X85768750Y-142918750D01*
X99968750Y-157118750D02*
X99968750Y-142918750D01*
%TO.C,S8*%
X47668750Y-104818750D02*
X47668750Y-119018750D01*
X47668750Y-119018750D02*
X61868750Y-119018750D01*
X61868750Y-104818750D02*
X47668750Y-104818750D01*
X61868750Y-119018750D02*
X61868750Y-104818750D01*
%TO.C,S11*%
X104818750Y-104818750D02*
X104818750Y-119018750D01*
X104818750Y-119018750D02*
X119018750Y-119018750D01*
X119018750Y-104818750D02*
X104818750Y-104818750D01*
X119018750Y-119018750D02*
X119018750Y-104818750D01*
%TO.C,S3*%
X85768750Y-66718750D02*
X85768750Y-80918750D01*
X85768750Y-80918750D02*
X99968750Y-80918750D01*
X99968750Y-66718750D02*
X85768750Y-66718750D01*
X99968750Y-80918750D02*
X99968750Y-66718750D01*
%TO.C,S13*%
X66718750Y-123868750D02*
X66718750Y-138068750D01*
X66718750Y-138068750D02*
X80918750Y-138068750D01*
X80918750Y-123868750D02*
X66718750Y-123868750D01*
X80918750Y-138068750D02*
X80918750Y-123868750D01*
D15*
%TO.C,SW1*%
X118168750Y-80518750D02*
X115618750Y-80518750D01*
X118168750Y-77218750D02*
X118168750Y-80518750D01*
X118168750Y-70418750D02*
X118168750Y-67118750D01*
X118168750Y-67118750D02*
X115618750Y-67118750D01*
X108218750Y-80518750D02*
X105668750Y-80518750D01*
X108218750Y-67118750D02*
X105668750Y-67118750D01*
X105668750Y-80518750D02*
X105668750Y-77218750D01*
X105668750Y-67118750D02*
X105668750Y-70418750D01*
D13*
X116218750Y-81418750D02*
G75*
G02*
X116018750Y-81418750I-100000J0D01*
G01*
X116018750Y-81418750D02*
G75*
G02*
X116218750Y-81418750I100000J0D01*
G01*
D14*
%TO.C,S6*%
X85768750Y-85768750D02*
X85768750Y-99968750D01*
X85768750Y-99968750D02*
X99968750Y-99968750D01*
X99968750Y-85768750D02*
X85768750Y-85768750D01*
X99968750Y-99968750D02*
X99968750Y-85768750D01*
%TO.C,S17*%
X66718750Y-142918750D02*
X66718750Y-157118750D01*
X66718750Y-157118750D02*
X80918750Y-157118750D01*
X80918750Y-142918750D02*
X66718750Y-142918750D01*
X80918750Y-157118750D02*
X80918750Y-142918750D01*
%TO.C,J1*%
X71530000Y-56530000D02*
X70200000Y-56530000D01*
X71530000Y-55200000D02*
X71530000Y-56530000D01*
X71530000Y-53930000D02*
X71530000Y-46250000D01*
X71530000Y-53930000D02*
X68930000Y-53930000D01*
X71530000Y-46250000D02*
X66330000Y-46250000D01*
X68930000Y-56530000D02*
X66330000Y-56530000D01*
X68930000Y-53930000D02*
X68930000Y-56530000D01*
X66330000Y-56530000D02*
X66330000Y-46250000D01*
%TO.C,S20*%
X57193750Y-161968750D02*
X57193750Y-176168750D01*
X57193750Y-176168750D02*
X71393750Y-176168750D01*
X71393750Y-161968750D02*
X57193750Y-161968750D01*
X71393750Y-176168750D02*
X71393750Y-161968750D01*
D13*
%TO.C,U2*%
X113925000Y-58382500D02*
X95625000Y-58382500D01*
X113925000Y-25082500D02*
X113925000Y-58382500D01*
X113925000Y-25082500D02*
X95625000Y-25082500D01*
X95625000Y-25082500D02*
X95625000Y-58382500D01*
D14*
%TO.C,S10*%
X85768750Y-104818750D02*
X85768750Y-119018750D01*
X85768750Y-119018750D02*
X99968750Y-119018750D01*
X99968750Y-104818750D02*
X85768750Y-104818750D01*
X99968750Y-119018750D02*
X99968750Y-104818750D01*
%TO.C,S4*%
X47668750Y-85768750D02*
X47668750Y-99968750D01*
X47668750Y-99968750D02*
X61868750Y-99968750D01*
X61868750Y-85768750D02*
X47668750Y-85768750D01*
X61868750Y-99968750D02*
X61868750Y-85768750D01*
%TO.C,S5*%
X66718750Y-85768750D02*
X66718750Y-99968750D01*
X66718750Y-99968750D02*
X80918750Y-99968750D01*
X80918750Y-85768750D02*
X66718750Y-85768750D01*
X80918750Y-99968750D02*
X80918750Y-85768750D01*
%TO.C,S2*%
X66718750Y-66718750D02*
X66718750Y-80918750D01*
X66718750Y-80918750D02*
X80918750Y-80918750D01*
X80918750Y-66718750D02*
X66718750Y-66718750D01*
X80918750Y-80918750D02*
X80918750Y-66718750D01*
%TO.C,S19*%
X104818750Y-152443750D02*
X104818750Y-166643750D01*
X104818750Y-166643750D02*
X119018750Y-166643750D01*
X119018750Y-152443750D02*
X104818750Y-152443750D01*
X119018750Y-166643750D02*
X119018750Y-152443750D01*
%TO.C,S16*%
X47668750Y-142918750D02*
X47668750Y-157118750D01*
X47668750Y-157118750D02*
X61868750Y-157118750D01*
X61868750Y-142918750D02*
X47668750Y-142918750D01*
X61868750Y-157118750D02*
X61868750Y-142918750D01*
%TD*%
M02*
