%TF.GenerationSoftware,KiCad,Pcbnew,8.0.6*%
%TF.CreationDate,2024-12-22T21:39:13-05:00*%
%TF.ProjectId,Keypad 2.0,4b657970-6164-4203-922e-302e6b696361,rev?*%
%TF.SameCoordinates,Original*%
%TF.FileFunction,Paste,Bot*%
%TF.FilePolarity,Positive*%
%FSLAX46Y46*%
G04 Gerber Fmt 4.6, Leading zero omitted, Abs format (unit mm)*
G04 Created by KiCad (PCBNEW 8.0.6) date 2024-12-22 21:39:13*
%MOMM*%
%LPD*%
G01*
G04 APERTURE LIST*
G04 Aperture macros list*
%AMRoundRect*
0 Rectangle with rounded corners*
0 $1 Rounding radius*
0 $2 $3 $4 $5 $6 $7 $8 $9 X,Y pos of 4 corners*
0 Add a 4 corners polygon primitive as box body*
4,1,4,$2,$3,$4,$5,$6,$7,$8,$9,$2,$3,0*
0 Add four circle primitives for the rounded corners*
1,1,$1+$1,$2,$3*
1,1,$1+$1,$4,$5*
1,1,$1+$1,$6,$7*
1,1,$1+$1,$8,$9*
0 Add four rect primitives between the rounded corners*
20,1,$1+$1,$2,$3,$4,$5,0*
20,1,$1+$1,$4,$5,$6,$7,0*
20,1,$1+$1,$6,$7,$8,$9,0*
20,1,$1+$1,$8,$9,$2,$3,0*%
G04 Aperture macros list end*
%ADD10RoundRect,0.250000X-1.025000X-1.000000X1.025000X-1.000000X1.025000X1.000000X-1.025000X1.000000X0*%
G04 APERTURE END LIST*
D10*
%TO.C,S15*%
X104833750Y-128428750D03*
X117760750Y-125888750D03*
%TD*%
%TO.C,S9*%
X66733750Y-109378750D03*
X79660750Y-106838750D03*
%TD*%
%TO.C,S14*%
X85783750Y-128428750D03*
X98710750Y-125888750D03*
%TD*%
%TO.C,S12*%
X47683750Y-128428750D03*
X60610750Y-125888750D03*
%TD*%
%TO.C,S21*%
X85783750Y-166528750D03*
X98710750Y-163988750D03*
%TD*%
%TO.C,S7*%
X104833750Y-90328750D03*
X117760750Y-87788750D03*
%TD*%
%TO.C,S1*%
X47683750Y-71278750D03*
X60610750Y-68738750D03*
%TD*%
%TO.C,S18*%
X85783750Y-147478750D03*
X98710750Y-144938750D03*
%TD*%
%TO.C,S8*%
X47683750Y-109378750D03*
X60610750Y-106838750D03*
%TD*%
%TO.C,S11*%
X104833750Y-109378750D03*
X117760750Y-106838750D03*
%TD*%
%TO.C,S3*%
X85783750Y-71278750D03*
X98710750Y-68738750D03*
%TD*%
%TO.C,S13*%
X66733750Y-128428750D03*
X79660750Y-125888750D03*
%TD*%
%TO.C,S6*%
X85783750Y-90328750D03*
X98710750Y-87788750D03*
%TD*%
%TO.C,S17*%
X66733750Y-147478750D03*
X79660750Y-144938750D03*
%TD*%
%TO.C,S20*%
X57208750Y-166528750D03*
X70135750Y-163988750D03*
%TD*%
%TO.C,S10*%
X85783750Y-109378750D03*
X98710750Y-106838750D03*
%TD*%
%TO.C,S4*%
X47683750Y-90328750D03*
X60610750Y-87788750D03*
%TD*%
%TO.C,S5*%
X66733750Y-90328750D03*
X79660750Y-87788750D03*
%TD*%
%TO.C,S2*%
X66733750Y-71278750D03*
X79660750Y-68738750D03*
%TD*%
%TO.C,S19*%
X104833750Y-157003750D03*
X117760750Y-154463750D03*
%TD*%
%TO.C,S16*%
X47683750Y-147478750D03*
X60610750Y-144938750D03*
%TD*%
M02*
