M48
; DRILL file {KiCad 8.0.6} date 2024-12-22T21:39:10-0500
; FORMAT={-:-/ absolute / metric / decimal}
; #@! TF.CreationDate,2024-12-22T21:39:10-05:00
; #@! TF.GenerationSoftware,Kicad,Pcbnew,8.0.6
; #@! TF.FileFunction,Plated,1,2,PTH
FMAT,2
METRIC
; #@! TA.AperFunction,Plated,PTH,ViaDrill
T1C0.300
; #@! TA.AperFunction,Plated,PTH,ComponentDrill
T2C0.800
; #@! TA.AperFunction,Plated,PTH,ComponentDrill
T3C1.000
; #@! TA.AperFunction,Plated,PTH,ComponentDrill
T4C1.092
; #@! TA.AperFunction,Plated,PTH,ComponentDrill
T5C1.100
; #@! TA.AperFunction,Plated,PTH,ComponentDrill
T6C2.000
%
G90
G05
T1
X67.66Y-45.878
X70.358Y-43.434
X89.408Y-57.912
X92.837Y-49.53
X92.964Y-46.99
X93.091Y-51.943
X93.218Y-44.45
X94.107Y-36.703
X94.144Y-34.252
X96.012Y-62.23
X104.648Y-39.497
X109.855Y-57.785
X111.555Y-68.509
X113.919Y-31.75
X118.11Y-49.53
X118.11Y-54.61
T2
X64.294Y-70.009
X64.294Y-77.629
X64.294Y-89.059
X64.294Y-96.679
X64.294Y-108.109
X64.294Y-115.729
X64.294Y-127.159
X64.294Y-134.779
X64.294Y-146.209
X64.294Y-153.829
X83.344Y-70.009
X83.344Y-77.629
X83.344Y-89.059
X83.344Y-96.679
X83.344Y-108.109
X83.344Y-115.729
X83.344Y-127.159
X83.344Y-134.779
X83.344Y-146.209
X83.344Y-153.829
X83.344Y-165.259
X83.344Y-172.879
X102.394Y-70.009
X102.394Y-77.629
X102.394Y-89.059
X102.394Y-96.679
X102.394Y-108.109
X102.394Y-115.729
X102.394Y-127.159
X102.394Y-134.779
X102.394Y-146.209
X102.394Y-153.829
X102.394Y-165.259
X102.394Y-172.879
X121.444Y-70.009
X121.444Y-77.629
X121.444Y-89.059
X121.444Y-96.679
X121.444Y-108.109
X121.444Y-115.729
X121.444Y-127.159
X121.444Y-134.779
X121.444Y-146.209
X121.444Y-153.829
T3
X67.66Y-47.58
X67.66Y-50.12
X67.66Y-52.66
X67.66Y-55.2
X70.2Y-47.58
X70.2Y-50.12
X70.2Y-52.66
X70.2Y-55.2
T4
X97.155Y-29.172
X97.155Y-31.712
X97.155Y-34.252
X97.155Y-36.792
X97.155Y-39.332
X97.155Y-41.872
X97.155Y-44.413
X97.155Y-46.953
X97.155Y-49.492
X97.155Y-52.032
X97.155Y-54.572
X97.155Y-57.112
X99.695Y-52.032
X102.235Y-52.032
X104.775Y-52.032
X112.395Y-29.172
X112.395Y-31.712
X112.395Y-34.252
X112.395Y-36.792
X112.395Y-39.332
X112.395Y-41.872
X112.395Y-44.413
X112.395Y-46.953
X112.395Y-49.492
X112.395Y-52.032
X112.395Y-54.572
X112.395Y-57.112
T5
X109.419Y-66.319
X109.419Y-80.819
X111.919Y-66.319
X114.419Y-66.319
X114.419Y-80.819
T6
G00X106.219Y-74.219
M15
G01X106.219Y-73.419
M16
G05
G00X117.619Y-74.219
M15
G01X117.619Y-73.419
M16
G05
M30
