M48
; DRILL file {KiCad 8.0.6} date 2024-12-22T21:39:10-0500
; FORMAT={-:-/ absolute / metric / decimal}
; #@! TF.CreationDate,2024-12-22T21:39:10-05:00
; #@! TF.GenerationSoftware,Kicad,Pcbnew,8.0.6
; #@! TF.FileFunction,NonPlated,1,2,NPTH
FMAT,2
METRIC
; #@! TA.AperFunction,NonPlated,NPTH,ComponentDrill
T1C1.750
; #@! TA.AperFunction,NonPlated,NPTH,ComponentDrill
T2C3.050
; #@! TA.AperFunction,NonPlated,NPTH,ComponentDrill
T3C3.200
; #@! TA.AperFunction,NonPlated,NPTH,ComponentDrill
T4C4.000
%
G90
G05
T1
X49.689Y-73.819
X49.689Y-92.869
X49.689Y-111.919
X49.689Y-130.969
X49.689Y-150.019
X59.214Y-169.069
X59.849Y-73.819
X59.849Y-92.869
X59.849Y-111.919
X59.849Y-130.969
X59.849Y-150.019
X68.739Y-73.819
X68.739Y-92.869
X68.739Y-111.919
X68.739Y-130.969
X68.739Y-150.019
X69.374Y-169.069
X78.899Y-73.819
X78.899Y-92.869
X78.899Y-111.919
X78.899Y-130.969
X78.899Y-150.019
X87.789Y-73.819
X87.789Y-92.869
X87.789Y-111.919
X87.789Y-130.969
X87.789Y-150.019
X87.789Y-169.069
X97.949Y-73.819
X97.949Y-92.869
X97.949Y-111.919
X97.949Y-130.969
X97.949Y-150.019
X97.949Y-169.069
X106.839Y-92.869
X106.839Y-111.919
X106.839Y-130.969
X106.839Y-159.544
X116.999Y-92.869
X116.999Y-111.919
X116.999Y-130.969
X116.999Y-159.544
T2
X50.959Y-71.279
X50.959Y-90.329
X50.959Y-109.379
X50.959Y-128.429
X50.959Y-147.479
X57.309Y-68.739
X57.309Y-87.789
X57.309Y-106.839
X57.309Y-125.889
X57.309Y-144.939
X60.484Y-166.529
X66.834Y-163.989
X70.009Y-71.279
X70.009Y-90.329
X70.009Y-109.379
X70.009Y-128.429
X70.009Y-147.479
X76.359Y-68.739
X76.359Y-87.789
X76.359Y-106.839
X76.359Y-125.889
X76.359Y-144.939
X89.059Y-71.279
X89.059Y-90.329
X89.059Y-109.379
X89.059Y-128.429
X89.059Y-147.479
X89.059Y-166.529
X95.409Y-68.739
X95.409Y-87.789
X95.409Y-106.839
X95.409Y-125.889
X95.409Y-144.939
X95.409Y-163.989
X108.109Y-90.329
X108.109Y-109.379
X108.109Y-128.429
X108.109Y-157.004
X114.459Y-87.789
X114.459Y-106.839
X114.459Y-125.889
X114.459Y-154.464
T3
X45.0Y-30.9
X45.134Y-178.745
X122.35Y-178.872
X122.428Y-30.8
T4
X54.769Y-73.819
X54.769Y-92.869
X54.769Y-111.919
X54.769Y-130.969
X54.769Y-150.019
X64.294Y-169.069
X73.819Y-73.819
X73.819Y-92.869
X73.819Y-111.919
X73.819Y-130.969
X73.819Y-150.019
X92.869Y-73.819
X92.869Y-92.869
X92.869Y-111.919
X92.869Y-130.969
X92.869Y-150.019
X92.869Y-169.069
X111.919Y-92.869
X111.919Y-111.919
X111.919Y-130.969
X111.919Y-159.544
M30
